{"glyphs":{"0":{"ha":781,"x_min":78,"x_max":702,"o":"m 702 572 l 702 422 q 664 165 702 260 q 556 28 626 69 q 391 -14 486 -14 q 226 28 296 -14 q 117 165 155 69 q 78 422 78 260 l 78 572 q 116 827 78 734 q 225 961 155 921 q 389 1001 295 1001 q 555 961 485 1001 q 664 827 625 921 q 702 572 702 734 m 576 401 l 576 593 q 555 772 576 705 q 492 869 534 839 q 389 899 450 899 q 288 869 330 899 q 225 772 247 839 q 204 593 204 705 l 204 401 q 226 222 204 291 q 289 121 248 153 q 391 90 331 90 q 493 121 452 90 q 555 222 534 153 q 576 401 576 291 z "},"1":{"ha":781,"x_min":116,"x_max":494,"o":"m 494 993 l 494 0 l 369 0 l 369 836 l 116 744 l 116 857 l 475 993 l 494 993 z "},"2":{"ha":781,"x_min":64,"x_max":729,"o":"m 729 103 l 729 0 l 83 0 l 83 90 l 406 450 q 499 563 466 517 q 545 647 532 610 q 558 722 558 684 q 513 846 558 795 q 386 898 469 898 q 276 872 320 898 q 211 802 233 847 q 189 697 189 756 l 64 697 q 100 850 64 781 q 209 960 137 919 q 386 1001 281 1001 q 605 928 526 1001 q 684 737 684 856 q 659 620 684 679 q 591 503 633 561 q 498 390 549 445 l 234 103 l 729 103 z "},"3":{"ha":781,"x_min":64,"x_max":690,"o":"m 265 555 l 355 555 q 464 577 420 555 q 528 638 507 600 q 549 724 549 676 q 530 820 549 781 q 473 878 511 859 q 377 898 435 898 q 284 877 324 898 q 221 819 243 857 q 198 729 198 781 l 73 729 q 111 866 73 804 q 217 964 149 928 q 377 1001 286 1001 q 534 969 467 1001 q 638 876 601 938 q 675 722 675 814 q 658 642 675 684 q 605 563 641 600 q 511 503 568 526 q 372 479 453 479 l 265 479 l 265 555 m 265 452 l 265 528 l 372 528 q 528 505 467 528 q 626 446 590 483 q 676 364 661 408 q 690 275 690 319 q 649 119 690 183 q 538 20 608 54 q 378 -14 467 -14 q 257 5 313 -14 q 157 58 200 23 q 89 144 113 93 q 64 261 64 195 l 190 261 q 213 171 190 210 q 278 111 235 132 q 378 90 320 90 q 514 135 465 90 q 564 273 564 180 q 538 374 564 334 q 466 433 513 414 q 355 452 418 452 l 265 452 z "},"4":{"ha":781,"x_min":36,"x_max":749,"o":"m 749 332 l 749 229 l 36 229 l 36 303 l 478 987 l 581 987 l 471 789 l 178 332 l 749 332 m 612 987 l 612 0 l 486 0 l 486 987 l 612 987 z "},"5":{"ha":781,"x_min":104,"x_max":726,"o":"m 241 470 l 140 496 l 190 987 l 696 987 l 696 871 l 296 871 l 267 603 q 335 632 294 618 q 431 646 377 646 q 588 605 522 646 q 690 490 654 564 q 726 315 726 416 q 691 146 726 220 q 588 29 657 72 q 413 -14 519 -14 q 300 3 353 -14 q 205 54 247 20 q 137 139 163 88 q 104 260 111 191 l 224 260 q 284 133 235 176 q 413 90 333 90 q 514 117 473 90 q 577 194 555 144 q 600 313 600 245 q 576 425 600 376 q 510 504 553 475 q 402 533 466 533 q 307 516 339 533 q 241 470 275 499 z "},"6":{"ha":781,"x_min":90,"x_max":714,"o":"m 564 989 l 574 989 l 574 882 l 564 882 q 397 850 464 882 q 290 764 330 818 q 234 643 251 710 q 216 507 216 576 l 216 361 q 243 213 216 274 q 314 121 271 153 q 408 90 358 90 q 507 119 466 90 q 569 199 547 149 q 590 316 590 250 q 571 427 590 375 q 511 512 551 479 q 410 544 471 544 q 313 518 358 544 q 239 452 268 493 q 206 363 210 411 l 140 363 q 194 527 153 465 q 297 619 236 590 q 431 648 359 648 q 592 600 530 648 q 684 478 654 553 q 714 322 714 404 q 679 153 714 229 q 576 32 644 77 q 408 -14 508 -14 q 268 19 328 -14 q 169 107 208 52 q 110 229 130 162 q 90 366 90 296 l 90 425 q 111 629 90 529 q 184 811 132 730 q 328 941 236 892 q 564 989 420 989 z "},"7":{"ha":781,"x_min":53,"x_max":720,"o":"m 720 987 l 720 917 l 311 0 l 179 0 l 587 884 l 53 884 l 53 987 l 720 987 z "},"8":{"ha":781,"x_min":77,"x_max":705,"o":"m 705 267 q 663 114 705 177 q 550 19 621 52 q 391 -14 479 -14 q 231 19 302 -14 q 118 114 159 52 q 77 267 77 177 q 117 407 77 346 q 227 503 157 468 q 389 538 298 538 q 551 503 480 538 q 664 407 623 468 q 705 267 705 346 m 578 270 q 555 367 578 325 q 488 433 531 410 q 389 457 446 457 q 290 433 332 457 q 225 367 248 410 q 202 270 202 325 q 225 173 202 213 q 290 111 248 132 q 391 90 332 90 q 491 111 449 90 q 556 173 533 132 q 578 270 578 213 m 682 730 q 644 601 682 659 q 540 510 606 543 q 391 477 474 477 q 240 510 306 477 q 136 601 174 543 q 99 730 99 659 q 137 877 99 817 q 240 969 174 937 q 390 1001 306 1001 q 541 969 475 1001 q 644 877 606 937 q 682 730 682 817 m 556 728 q 535 816 556 778 q 477 876 514 854 q 390 898 439 898 q 303 877 340 898 q 246 819 267 857 q 225 728 225 781 q 246 640 225 677 q 304 581 267 602 q 391 559 341 559 q 477 581 440 559 q 535 640 514 602 q 556 728 556 677 z "},"9":{"ha":781,"x_min":68,"x_max":689,"o":"m 207 105 l 220 105 q 396 136 328 105 q 500 218 464 166 q 551 334 537 269 q 564 467 564 399 l 564 618 q 538 771 564 709 q 468 865 511 833 q 374 897 425 897 q 275 867 316 897 q 213 785 234 837 q 191 667 191 732 q 211 555 191 608 q 270 468 231 502 q 370 435 310 435 q 449 451 412 435 q 515 497 486 468 q 561 562 544 526 q 581 639 578 599 l 641 639 q 619 528 641 583 q 557 429 597 473 q 465 357 518 384 q 350 330 412 330 q 190 379 252 330 q 98 504 127 428 q 68 660 68 579 q 102 831 68 754 q 205 955 137 909 q 374 1001 274 1001 q 519 967 459 1001 q 616 876 578 933 q 671 748 654 819 q 689 602 689 677 l 689 556 q 679 400 689 479 q 642 250 669 321 q 562 121 614 178 q 426 32 510 64 q 220 -1 342 -1 l 207 -1 l 207 105 z "},"\u0000":{"ha":0,"x_min":0,"x_max":0,"o":""},"A":{"ha":906,"x_min":20,"x_max":888,"o":"m 480 900 l 153 0 l 20 0 l 396 987 l 482 987 l 480 900 m 754 0 l 427 900 l 425 987 l 511 987 l 888 0 l 754 0 m 737 366 l 737 258 l 182 258 l 182 366 l 737 366 z "},"Æ":{"ha":1298,"x_min":-10,"x_max":1275,"o":"m 658 886 l 144 0 l -10 0 l 587 987 l 668 987 l 658 886 m 756 358 l 756 239 l 252 239 l 252 358 l 756 358 m 1275 103 l 1275 0 l 778 0 l 778 103 l 1275 103 m 760 987 l 802 0 l 675 0 l 634 987 l 760 987 m 1178 566 l 1178 463 l 751 463 l 751 566 l 1178 566 m 1233 987 l 1233 884 l 736 884 l 736 987 l 1233 987 z "},"Ǽ":{"ha":1298,"x_min":-10,"x_max":1275,"o":"m 658 886 l 144 0 l -10 0 l 587 987 l 668 987 l 658 886 m 756 358 l 756 239 l 252 239 l 252 358 l 756 358 m 1275 103 l 1275 0 l 778 0 l 778 103 l 1275 103 m 760 987 l 802 0 l 675 0 l 634 987 l 760 987 m 1178 566 l 1178 463 l 751 463 l 751 566 l 1178 566 m 1233 987 l 1233 884 l 736 884 l 736 987 l 1233 987 m 568 1061 l 699 1260 l 850 1260 l 669 1061 l 568 1061 z "},"Á":{"ha":906,"x_min":20,"x_max":888,"o":"m 480 900 l 153 0 l 20 0 l 396 987 l 482 987 l 480 900 m 754 0 l 427 900 l 425 987 l 511 987 l 888 0 l 754 0 m 737 366 l 737 258 l 182 258 l 182 366 l 737 366 m 387 1053 l 518 1253 l 669 1253 l 488 1053 l 387 1053 z "},"Ă":{"ha":906,"x_min":20,"x_max":888,"o":"m 480 900 l 153 0 l 20 0 l 396 987 l 482 987 l 480 900 m 754 0 l 427 900 l 425 987 l 511 987 l 888 0 l 754 0 m 737 366 l 737 258 l 182 258 l 182 366 l 737 366 m 557 1225 l 659 1225 q 604 1094 659 1145 q 456 1044 550 1044 q 308 1094 362 1044 q 253 1225 253 1145 l 355 1225 q 378 1154 355 1185 q 456 1124 401 1124 q 534 1154 511 1124 q 557 1225 557 1185 z "},"Â":{"ha":906,"x_min":20,"x_max":888,"o":"m 480 900 l 153 0 l 20 0 l 396 987 l 482 987 l 480 900 m 754 0 l 427 900 l 425 987 l 511 987 l 888 0 l 754 0 m 737 366 l 737 258 l 182 258 l 182 366 l 737 366 m 494 1253 l 662 1067 l 662 1061 l 557 1061 l 456 1175 l 355 1061 l 252 1061 l 252 1068 l 418 1253 l 494 1253 z "},"Ä":{"ha":906,"x_min":20,"x_max":888,"o":"m 480 900 l 153 0 l 20 0 l 396 987 l 482 987 l 480 900 m 754 0 l 427 900 l 425 987 l 511 987 l 888 0 l 754 0 m 737 366 l 737 258 l 182 258 l 182 366 l 737 366 m 237 1141 q 256 1192 237 1171 q 311 1213 275 1213 q 367 1192 348 1213 q 386 1141 386 1171 q 367 1091 386 1112 q 311 1070 348 1070 q 256 1091 275 1070 q 237 1141 237 1112 m 530 1139 q 548 1191 530 1170 q 604 1212 567 1212 q 659 1191 640 1212 q 678 1139 678 1170 q 659 1089 678 1110 q 604 1069 640 1069 q 548 1089 567 1069 q 530 1139 530 1110 z "},"À":{"ha":906,"x_min":20,"x_max":888,"o":"m 480 900 l 153 0 l 20 0 l 396 987 l 482 987 l 480 900 m 754 0 l 427 900 l 425 987 l 511 987 l 888 0 l 754 0 m 737 366 l 737 258 l 182 258 l 182 366 l 737 366 m 396 1253 l 527 1053 l 419 1053 l 244 1253 l 396 1253 z "},"Ā":{"ha":906,"x_min":20,"x_max":888,"o":"m 480 900 l 153 0 l 20 0 l 396 987 l 482 987 l 480 900 m 754 0 l 427 900 l 425 987 l 511 987 l 888 0 l 754 0 m 737 366 l 737 258 l 182 258 l 182 366 l 737 366 m 687 1196 l 687 1100 l 232 1100 l 232 1196 l 687 1196 z "},"Ą":{"ha":906,"x_min":20,"x_max":888,"o":"m 480 900 l 153 0 l 20 0 l 396 987 l 482 987 l 480 900 m 754 0 l 427 900 l 425 987 l 511 987 l 888 0 l 754 0 m 737 366 l 737 258 l 182 258 l 182 366 l 737 366 m 812 39 l 863 0 q 783 -70 819 -33 q 747 -151 747 -106 q 759 -186 747 -173 q 800 -200 770 -200 q 840 -194 822 -200 q 867 -182 857 -187 l 877 -264 q 834 -284 860 -275 q 768 -294 808 -294 q 675 -261 713 -294 q 637 -165 637 -229 q 655 -92 637 -128 q 712 -23 673 -56 q 812 39 751 10 z "},"Å":{"ha":906,"x_min":20,"x_max":888,"o":"m 480 900 l 153 0 l 20 0 l 396 987 l 482 987 l 480 900 m 754 0 l 427 900 l 425 987 l 511 987 l 888 0 l 754 0 m 737 366 l 737 258 l 182 258 l 182 366 l 737 366 m 310 1174 q 352 1274 310 1232 q 456 1315 394 1315 q 559 1274 517 1315 q 602 1174 602 1232 q 559 1075 602 1114 q 456 1036 517 1036 q 352 1075 394 1036 q 310 1174 310 1114 m 377 1174 q 399 1120 377 1144 q 456 1096 421 1096 q 512 1119 490 1096 q 534 1174 534 1143 q 512 1230 534 1206 q 456 1254 490 1254 q 399 1230 421 1254 q 377 1174 377 1206 z "},"Ǻ":{"ha":906,"x_min":20,"x_max":888,"o":"m 480 900 l 153 0 l 20 0 l 396 987 l 482 987 l 480 900 m 754 0 l 427 900 l 425 987 l 511 987 l 888 0 l 754 0 m 737 366 l 737 258 l 182 258 l 182 366 l 737 366 m 429 1192 l 528 1316 l 656 1316 l 507 1192 l 429 1192 m 342 1045 q 376 1127 342 1095 q 458 1158 410 1158 q 538 1127 505 1158 q 572 1045 572 1095 q 538 965 572 996 q 458 935 505 935 q 376 965 410 935 q 342 1045 342 996 m 399 1045 q 416 1005 399 1021 q 458 988 434 988 q 498 1005 481 988 q 515 1045 515 1021 q 498 1088 515 1071 q 458 1105 481 1105 q 416 1088 434 1105 q 399 1045 399 1071 z "},"Ã":{"ha":906,"x_min":20,"x_max":888,"o":"m 480 900 l 153 0 l 20 0 l 396 987 l 482 987 l 480 900 m 754 0 l 427 900 l 425 987 l 511 987 l 888 0 l 754 0 m 737 366 l 737 258 l 182 258 l 182 366 l 737 366 m 612 1239 l 696 1232 q 677 1145 696 1182 q 624 1087 657 1107 q 550 1067 591 1067 q 493 1077 515 1067 q 453 1099 471 1086 q 416 1121 435 1112 q 368 1131 397 1131 q 320 1109 340 1131 q 301 1056 301 1088 l 216 1060 q 236 1147 216 1109 q 288 1206 255 1185 q 362 1227 321 1227 q 413 1218 391 1227 q 455 1195 435 1208 q 496 1173 475 1183 q 544 1163 517 1163 q 592 1185 572 1163 q 612 1239 612 1207 z "},"B":{"ha":865,"x_min":115,"x_max":787,"o":"m 467 462 l 216 462 l 215 567 l 442 567 q 578 609 527 567 q 629 726 629 651 q 582 844 629 807 q 438 880 535 880 l 245 880 l 245 0 l 115 0 l 115 987 l 438 987 q 675 925 590 987 q 760 724 760 862 q 729 614 760 663 q 643 534 698 565 q 513 494 587 503 l 467 462 m 460 0 l 165 0 l 239 106 l 460 106 q 605 154 553 106 q 656 283 656 202 q 637 378 656 338 q 575 440 617 418 q 467 462 533 462 l 280 462 l 281 567 l 536 567 l 564 529 q 685 489 635 523 q 761 401 734 454 q 787 285 787 349 q 697 73 787 146 q 460 0 608 0 z "},"C":{"ha":904,"x_min":81,"x_max":841,"o":"m 711 314 l 841 314 q 787 146 831 220 q 665 30 744 73 q 467 -14 585 -14 q 264 43 351 -14 q 130 203 178 100 q 81 444 81 306 l 81 543 q 130 784 81 681 q 267 944 178 887 q 478 1001 356 1001 q 667 959 590 1001 q 788 843 745 917 q 841 671 831 768 l 711 671 q 644 834 696 774 q 478 894 593 894 q 331 850 391 894 q 242 728 272 806 q 212 544 212 649 l 212 444 q 239 268 212 347 q 322 140 266 188 q 467 93 379 93 q 600 119 550 93 q 674 195 649 146 q 711 314 700 245 z "},"\r":{"ha":345,"x_min":0,"x_max":0,"o":""},"Ć":{"ha":904,"x_min":81,"x_max":841,"o":"m 711 314 l 841 314 q 787 146 831 220 q 665 30 744 73 q 467 -14 585 -14 q 264 43 351 -14 q 130 203 178 100 q 81 444 81 306 l 81 543 q 130 784 81 681 q 267 944 178 887 q 478 1001 356 1001 q 667 959 590 1001 q 788 843 745 917 q 841 671 831 768 l 711 671 q 644 834 696 774 q 478 894 593 894 q 331 850 391 894 q 242 728 272 806 q 212 544 212 649 l 212 444 q 239 268 212 347 q 322 140 266 188 q 467 93 379 93 q 600 119 550 93 q 674 195 649 146 q 711 314 700 245 m 392 1075 l 524 1274 l 675 1274 l 493 1075 l 392 1075 z "},"Č":{"ha":904,"x_min":81,"x_max":841,"o":"m 711 314 l 841 314 q 787 146 831 220 q 665 30 744 73 q 467 -14 585 -14 q 264 43 351 -14 q 130 203 178 100 q 81 444 81 306 l 81 543 q 130 784 81 681 q 267 944 178 887 q 478 1001 356 1001 q 667 959 590 1001 q 788 843 745 917 q 841 671 831 768 l 711 671 q 644 834 696 774 q 478 894 593 894 q 331 850 391 894 q 242 728 272 806 q 212 544 212 649 l 212 444 q 239 268 212 347 q 322 140 266 188 q 467 93 379 93 q 600 119 550 93 q 674 195 649 146 q 711 314 700 245 m 358 1274 l 460 1158 l 563 1274 l 671 1274 l 671 1267 l 499 1081 l 422 1081 l 252 1267 l 252 1274 l 358 1274 z "},"Ç":{"ha":904,"x_min":81,"x_max":841,"o":"m 711 314 l 841 314 q 787 146 831 220 q 665 30 744 73 q 467 -14 585 -14 q 264 43 351 -14 q 130 203 178 100 q 81 444 81 306 l 81 543 q 130 784 81 681 q 267 944 178 887 q 478 1001 356 1001 q 667 959 590 1001 q 788 843 745 917 q 841 671 831 768 l 711 671 q 644 834 696 774 q 478 894 593 894 q 331 850 391 894 q 242 728 272 806 q 212 544 212 649 l 212 444 q 239 268 212 347 q 322 140 266 188 q 467 93 379 93 q 600 119 550 93 q 674 195 649 146 q 711 314 700 245 m 420 -7 l 510 -7 l 502 -43 q 573 -75 541 -50 q 606 -160 606 -101 q 553 -263 606 -224 q 400 -302 501 -302 l 395 -229 q 452 -222 427 -229 q 493 -201 477 -216 q 508 -162 508 -186 q 482 -116 508 -128 q 399 -98 456 -103 l 420 -7 z "},"Ĉ":{"ha":904,"x_min":81,"x_max":841,"o":"m 711 314 l 841 314 q 787 146 831 220 q 665 30 744 73 q 467 -14 585 -14 q 264 43 351 -14 q 130 203 178 100 q 81 444 81 306 l 81 543 q 130 784 81 681 q 267 944 178 887 q 478 1001 356 1001 q 667 959 590 1001 q 788 843 745 917 q 841 671 831 768 l 711 671 q 644 834 696 774 q 478 894 593 894 q 331 850 391 894 q 242 728 272 806 q 212 544 212 649 l 212 444 q 239 268 212 347 q 322 140 266 188 q 467 93 379 93 q 600 119 550 93 q 674 195 649 146 q 711 314 700 245 m 499 1274 l 667 1089 l 667 1082 l 563 1082 l 461 1197 l 360 1082 l 257 1082 l 257 1090 l 423 1274 l 499 1274 z "},"D":{"ha":911,"x_min":115,"x_max":829,"o":"m 382 0 l 176 0 l 177 106 l 382 106 q 558 151 488 106 q 664 276 629 195 q 700 464 700 356 l 700 524 q 664 717 700 637 q 560 839 628 797 q 394 880 492 880 l 172 880 l 172 987 l 394 987 q 622 931 524 987 q 774 770 720 874 q 829 523 829 666 l 829 464 q 774 217 829 321 q 619 57 720 113 q 382 0 519 0 m 245 987 l 245 0 l 115 0 l 115 987 l 245 987 z "},"Ď":{"ha":911,"x_min":115,"x_max":829,"o":"m 382 0 l 176 0 l 177 106 l 382 106 q 558 151 488 106 q 664 276 629 195 q 700 464 700 356 l 700 524 q 664 717 700 637 q 560 839 628 797 q 394 880 492 880 l 172 880 l 172 987 l 394 987 q 622 931 524 987 q 774 770 720 874 q 829 523 829 666 l 829 464 q 774 217 829 321 q 619 57 720 113 q 382 0 519 0 m 245 987 l 245 0 l 115 0 l 115 987 l 245 987 m 310 1259 l 412 1144 l 515 1259 l 623 1259 l 623 1253 l 451 1067 l 374 1067 l 204 1253 l 204 1259 l 310 1259 z "},"Đ":{"ha":932,"x_min":25,"x_max":850,"o":"m 402 0 l 196 0 l 197 106 l 402 106 q 578 151 508 106 q 685 276 649 195 q 720 464 720 356 l 720 524 q 684 717 720 637 q 580 839 648 797 q 414 880 512 880 l 192 880 l 192 987 l 414 987 q 642 931 544 987 q 795 770 740 874 q 850 523 850 666 l 850 464 q 795 217 850 321 q 640 57 740 113 q 402 0 539 0 m 266 987 l 266 0 l 135 0 l 135 987 l 266 987 m 457 554 l 457 451 l 25 451 l 25 554 l 457 554 z "},"∆":{"ha":979,"x_min":22,"x_max":947,"o":"m 522 895 l 156 0 l 22 0 l 438 987 l 520 987 l 522 895 m 812 0 l 467 901 l 471 987 l 553 987 l 947 0 l 812 0 m 844 106 l 844 0 l 121 0 l 121 106 l 844 106 z "},"E":{"ha":789,"x_min":115,"x_max":742,"o":"m 742 106 l 742 0 l 219 0 l 219 106 l 742 106 m 245 987 l 245 0 l 115 0 l 115 987 l 245 987 m 673 563 l 673 456 l 219 456 l 219 563 l 673 563 m 735 987 l 735 880 l 219 880 l 219 987 l 735 987 z "},"É":{"ha":789,"x_min":115,"x_max":742,"o":"m 742 106 l 742 0 l 219 0 l 219 106 l 742 106 m 245 987 l 245 0 l 115 0 l 115 987 l 245 987 m 673 563 l 673 456 l 219 456 l 219 563 l 673 563 m 735 987 l 735 880 l 219 880 l 219 987 l 735 987 m 351 1061 l 482 1260 l 633 1260 l 452 1061 l 351 1061 z "},"Ĕ":{"ha":789,"x_min":115,"x_max":742,"o":"m 742 106 l 742 0 l 219 0 l 219 106 l 742 106 m 245 987 l 245 0 l 115 0 l 115 987 l 245 987 m 673 563 l 673 456 l 219 456 l 219 563 l 673 563 m 735 987 l 735 880 l 219 880 l 219 987 l 735 987 m 521 1232 l 623 1232 q 568 1102 623 1152 q 420 1051 514 1051 q 272 1102 326 1051 q 217 1232 217 1152 l 319 1232 q 342 1162 319 1192 q 420 1131 365 1131 q 498 1162 475 1131 q 521 1232 521 1192 z "},"Ě":{"ha":789,"x_min":115,"x_max":742,"o":"m 742 106 l 742 0 l 219 0 l 219 106 l 742 106 m 245 987 l 245 0 l 115 0 l 115 987 l 245 987 m 673 563 l 673 456 l 219 456 l 219 563 l 673 563 m 735 987 l 735 880 l 219 880 l 219 987 l 735 987 m 317 1259 l 419 1144 l 522 1259 l 630 1259 l 630 1253 l 458 1067 l 380 1067 l 211 1253 l 211 1259 l 317 1259 z "},"Ê":{"ha":789,"x_min":115,"x_max":742,"o":"m 742 106 l 742 0 l 219 0 l 219 106 l 742 106 m 245 987 l 245 0 l 115 0 l 115 987 l 245 987 m 673 563 l 673 456 l 219 456 l 219 563 l 673 563 m 735 987 l 735 880 l 219 880 l 219 987 l 735 987 m 458 1260 l 626 1075 l 626 1068 l 522 1068 l 420 1183 l 319 1068 l 216 1068 l 216 1076 l 382 1260 l 458 1260 z "},"Ë":{"ha":789,"x_min":115,"x_max":742,"o":"m 742 106 l 742 0 l 219 0 l 219 106 l 742 106 m 245 987 l 245 0 l 115 0 l 115 987 l 245 987 m 673 563 l 673 456 l 219 456 l 219 563 l 673 563 m 735 987 l 735 880 l 219 880 l 219 987 l 735 987 m 201 1148 q 220 1200 201 1179 q 275 1221 239 1221 q 331 1200 312 1221 q 350 1148 350 1179 q 331 1098 350 1119 q 275 1078 312 1078 q 220 1098 239 1078 q 201 1148 201 1119 m 494 1147 q 512 1198 494 1177 q 568 1219 531 1219 q 623 1198 604 1219 q 642 1147 642 1177 q 623 1097 642 1118 q 568 1076 604 1076 q 512 1097 531 1076 q 494 1147 494 1118 z "},"Ė":{"ha":789,"x_min":115,"x_max":742,"o":"m 742 106 l 742 0 l 219 0 l 219 106 l 742 106 m 245 987 l 245 0 l 115 0 l 115 987 l 245 987 m 673 563 l 673 456 l 219 456 l 219 563 l 673 563 m 735 987 l 735 880 l 219 880 l 219 987 l 735 987 m 346 1146 q 365 1197 346 1176 q 420 1218 383 1218 q 475 1197 456 1218 q 494 1146 494 1176 q 475 1096 494 1116 q 420 1075 456 1075 q 365 1096 383 1075 q 346 1146 346 1116 z "},"È":{"ha":789,"x_min":115,"x_max":742,"o":"m 742 106 l 742 0 l 219 0 l 219 106 l 742 106 m 245 987 l 245 0 l 115 0 l 115 987 l 245 987 m 673 563 l 673 456 l 219 456 l 219 563 l 673 563 m 735 987 l 735 880 l 219 880 l 219 987 l 735 987 m 360 1260 l 491 1061 l 383 1061 l 208 1260 l 360 1260 z "},"Ē":{"ha":789,"x_min":115,"x_max":742,"o":"m 742 106 l 742 0 l 219 0 l 219 106 l 742 106 m 245 987 l 245 0 l 115 0 l 115 987 l 245 987 m 673 563 l 673 456 l 219 456 l 219 563 l 673 563 m 735 987 l 735 880 l 219 880 l 219 987 l 735 987 m 651 1204 l 651 1107 l 196 1107 l 196 1204 l 651 1204 z "},"Ŋ":{"ha":962,"x_min":110,"x_max":858,"o":"m 110 987 l 241 987 l 241 0 l 110 0 l 110 987 m 149 910 l 241 987 l 819 77 l 727 0 l 149 910 m 727 987 l 858 987 l 858 -57 q 799 -235 858 -173 q 636 -296 740 -296 q 597 -294 615 -296 q 558 -285 578 -292 l 568 -180 q 602 -187 579 -184 q 634 -189 624 -189 q 703 -154 678 -189 q 727 -57 727 -119 l 727 987 z "},"Ę":{"ha":789,"x_min":115,"x_max":742,"o":"m 742 106 l 742 0 l 219 0 l 219 106 l 742 106 m 245 987 l 245 0 l 115 0 l 115 987 l 245 987 m 673 563 l 673 456 l 219 456 l 219 563 l 673 563 m 735 987 l 735 880 l 219 880 l 219 987 l 735 987 m 643 39 l 693 0 q 613 -70 650 -33 q 577 -151 577 -106 q 589 -186 577 -173 q 630 -200 601 -200 q 670 -194 652 -200 q 698 -182 688 -187 l 707 -264 q 664 -284 690 -275 q 598 -294 638 -294 q 506 -261 543 -294 q 468 -165 468 -229 q 486 -92 468 -128 q 543 -23 504 -56 q 643 39 581 10 z "},"Ð":{"ha":932,"x_min":25,"x_max":850,"o":"m 402 0 l 196 0 l 197 106 l 402 106 q 578 151 508 106 q 685 276 649 195 q 720 464 720 356 l 720 524 q 684 717 720 637 q 580 839 648 797 q 414 880 512 880 l 192 880 l 192 987 l 414 987 q 642 931 544 987 q 795 770 740 874 q 850 523 850 666 l 850 464 q 795 217 850 321 q 640 57 740 113 q 402 0 539 0 m 266 987 l 266 0 l 135 0 l 135 987 l 266 987 m 457 554 l 457 451 l 25 451 l 25 554 l 457 554 z "},"€":{"ha":781,"x_min":64,"x_max":714,"o":"m 553 92 q 629 98 592 92 q 701 115 667 104 l 714 7 q 635 -8 676 -3 q 551 -14 593 -14 q 361 30 444 -14 q 232 161 279 74 q 185 380 185 249 l 185 606 q 232 825 185 737 q 360 957 278 913 q 551 1001 443 1001 q 633 995 593 1001 q 714 980 673 989 l 701 871 q 629 888 667 882 q 552 895 591 895 q 380 824 444 895 q 316 607 316 753 l 316 380 q 345 218 316 282 q 428 123 374 155 q 553 92 481 92 m 576 629 l 576 544 l 64 544 l 64 629 l 576 629 m 576 452 l 576 368 l 64 368 l 64 452 l 576 452 z "},"F":{"ha":768,"x_min":115,"x_max":726,"o":"m 245 987 l 245 0 l 115 0 l 115 987 l 245 987 m 659 543 l 659 436 l 217 436 l 217 543 l 659 543 m 726 987 l 726 880 l 217 880 l 217 987 l 726 987 z "},"G":{"ha":946,"x_min":83,"x_max":844,"o":"m 844 492 l 844 130 q 786 70 826 103 q 676 11 746 36 q 495 -14 606 -14 q 282 42 375 -14 q 136 203 189 98 q 83 456 83 308 l 83 532 q 129 784 83 680 q 264 945 175 889 q 480 1001 353 1001 q 670 962 593 1001 q 789 854 746 923 q 844 699 832 786 l 713 699 q 679 796 705 752 q 604 867 652 840 q 480 894 556 894 q 330 850 389 894 q 243 726 271 806 q 214 534 214 645 l 214 456 q 250 261 214 342 q 348 136 285 180 q 496 93 412 93 q 609 105 566 93 q 677 133 652 117 q 714 165 701 150 l 714 386 l 486 386 l 486 492 l 844 492 z "},"Ğ":{"ha":946,"x_min":83,"x_max":844,"o":"m 844 492 l 844 130 q 786 70 826 103 q 676 11 746 36 q 495 -14 606 -14 q 282 42 375 -14 q 136 203 189 98 q 83 456 83 308 l 83 532 q 129 784 83 680 q 264 945 175 889 q 480 1001 353 1001 q 670 962 593 1001 q 789 854 746 923 q 844 699 832 786 l 713 699 q 679 796 705 752 q 604 867 652 840 q 480 894 556 894 q 330 850 389 894 q 243 726 271 806 q 214 534 214 645 l 214 456 q 250 261 214 342 q 348 136 285 180 q 496 93 412 93 q 609 105 566 93 q 677 133 652 117 q 714 165 701 150 l 714 386 l 486 386 l 486 492 l 844 492 m 557 1246 l 659 1246 q 604 1116 659 1166 q 456 1065 550 1065 q 308 1116 362 1065 q 253 1246 253 1166 l 355 1246 q 378 1176 355 1206 q 456 1145 401 1145 q 534 1176 511 1145 q 557 1246 557 1206 z "},"Ĝ":{"ha":946,"x_min":83,"x_max":844,"o":"m 844 492 l 844 130 q 786 70 826 103 q 676 11 746 36 q 495 -14 606 -14 q 282 42 375 -14 q 136 203 189 98 q 83 456 83 308 l 83 532 q 129 784 83 680 q 264 945 175 889 q 480 1001 353 1001 q 670 962 593 1001 q 789 854 746 923 q 844 699 832 786 l 713 699 q 679 796 705 752 q 604 867 652 840 q 480 894 556 894 q 330 850 389 894 q 243 726 271 806 q 214 534 214 645 l 214 456 q 250 261 214 342 q 348 136 285 180 q 496 93 412 93 q 609 105 566 93 q 677 133 652 117 q 714 165 701 150 l 714 386 l 486 386 l 486 492 l 844 492 m 494 1274 l 662 1089 l 662 1082 l 557 1082 l 456 1197 l 355 1082 l 252 1082 l 252 1090 l 418 1274 l 494 1274 z "},"Ģ":{"ha":946,"x_min":83,"x_max":844,"o":"m 844 492 l 844 130 q 786 70 826 103 q 676 11 746 36 q 495 -14 606 -14 q 282 42 375 -14 q 136 203 189 98 q 83 456 83 308 l 83 532 q 129 784 83 680 q 264 945 175 889 q 480 1001 353 1001 q 670 962 593 1001 q 789 854 746 923 q 844 699 832 786 l 713 699 q 679 796 705 752 q 604 867 652 840 q 480 894 556 894 q 330 850 389 894 q 243 726 271 806 q 214 534 214 645 l 214 456 q 250 261 214 342 q 348 136 285 180 q 496 93 412 93 q 609 105 566 93 q 677 133 652 117 q 714 165 701 150 l 714 386 l 486 386 l 486 492 l 844 492 m 554 -84 l 554 -138 q 530 -253 554 -191 q 456 -356 506 -315 l 385 -307 q 422 -227 410 -268 q 435 -139 435 -186 l 435 -84 l 554 -84 z "},"H":{"ha":991,"x_min":115,"x_max":873,"o":"m 760 563 l 760 456 l 225 456 l 225 563 l 760 563 m 245 987 l 245 0 l 115 0 l 115 987 l 245 987 m 873 987 l 873 0 l 743 0 l 743 987 l 873 987 z "},"Ħ":{"ha":973,"x_min":20,"x_max":961,"o":"m 961 791 l 961 694 l 20 694 l 20 791 l 961 791 m 755 563 l 755 456 l 221 456 l 221 563 l 755 563 m 241 987 l 241 0 l 111 0 l 111 987 l 241 987 m 870 987 l 870 0 l 739 0 l 739 987 l 870 987 z "},"Ĥ":{"ha":991,"x_min":115,"x_max":873,"o":"m 760 563 l 760 456 l 225 456 l 225 563 l 760 563 m 245 987 l 245 0 l 115 0 l 115 987 l 245 987 m 873 987 l 873 0 l 743 0 l 743 987 l 873 987 m 521 1260 l 689 1075 l 689 1068 l 585 1068 l 483 1183 l 382 1068 l 279 1068 l 279 1076 l 445 1260 l 521 1260 z "},"I":{"ha":378,"x_min":124,"x_max":255,"o":"m 255 987 l 255 0 l 124 0 l 124 987 l 255 987 z "},"Ĳ":{"ha":1144,"x_min":124,"x_max":1037,"o":"m 255 987 l 255 0 l 124 0 l 124 987 l 255 987 m 907 288 l 907 987 l 1037 987 l 1037 288 q 997 123 1037 191 q 887 21 957 56 q 726 -14 817 -14 q 564 18 635 -14 q 454 113 494 49 q 414 273 414 176 l 545 273 q 595 136 545 180 q 726 93 646 93 q 818 115 777 93 q 883 181 859 137 q 907 288 907 224 z "},"Í":{"ha":378,"x_min":120,"x_max":403,"o":"m 255 987 l 255 0 l 124 0 l 124 987 l 255 987 m 120 1061 l 252 1260 l 403 1260 l 221 1061 l 120 1061 z "},"Ĭ":{"ha":378,"x_min":-14,"x_max":392,"o":"m 255 987 l 255 0 l 124 0 l 124 987 l 255 987 m 290 1232 l 392 1232 q 338 1102 392 1152 q 190 1051 283 1051 q 41 1102 96 1051 q -14 1232 -14 1152 l 88 1232 q 111 1162 88 1192 q 190 1131 134 1131 q 267 1162 244 1131 q 290 1232 290 1192 z "},"Î":{"ha":378,"x_min":-15,"x_max":395,"o":"m 255 987 l 255 0 l 124 0 l 124 987 l 255 987 m 227 1260 l 395 1075 l 395 1068 l 291 1068 l 189 1183 l 88 1068 l -15 1068 l -15 1076 l 151 1260 l 227 1260 z "},"Ï":{"ha":378,"x_min":-29,"x_max":412,"o":"m 255 987 l 255 0 l 124 0 l 124 987 l 255 987 m -29 1148 q -10 1200 -29 1179 q 45 1221 9 1221 q 100 1200 81 1221 q 119 1148 119 1179 q 100 1098 119 1119 q 45 1078 81 1078 q -10 1098 9 1078 q -29 1148 -29 1119 m 263 1147 q 282 1198 263 1177 q 337 1219 300 1219 q 392 1198 373 1219 q 412 1147 412 1177 q 392 1097 412 1118 q 337 1076 373 1076 q 282 1097 300 1076 q 263 1147 263 1118 z "},"İ":{"ha":378,"x_min":115,"x_max":264,"o":"m 255 987 l 255 0 l 124 0 l 124 987 l 255 987 m 115 1146 q 134 1197 115 1176 q 189 1218 153 1218 q 244 1197 225 1218 q 264 1146 264 1176 q 244 1096 264 1116 q 189 1075 225 1075 q 134 1096 153 1075 q 115 1146 115 1116 z "},"Ì":{"ha":378,"x_min":-22,"x_max":260,"o":"m 255 987 l 255 0 l 124 0 l 124 987 l 255 987 m 130 1260 l 260 1061 l 153 1061 l -22 1260 l 130 1260 z "},"Ī":{"ha":378,"x_min":-35,"x_max":420,"o":"m 255 987 l 255 0 l 124 0 l 124 987 l 255 987 m 420 1204 l 420 1107 l -35 1107 l -35 1204 l 420 1204 z "},"Į":{"ha":378,"x_min":16,"x_max":255,"o":"m 255 987 l 255 0 l 124 0 l 124 987 l 255 987 m 191 45 l 241 6 q 161 -63 197 -26 q 125 -144 125 -100 q 137 -180 125 -167 q 178 -194 149 -194 q 218 -188 200 -194 q 245 -176 235 -181 l 255 -258 q 212 -278 238 -269 q 146 -288 186 -288 q 53 -255 91 -288 q 16 -159 16 -222 q 34 -86 16 -122 q 90 -17 52 -50 q 191 45 129 16 z "},"Ĩ":{"ha":378,"x_min":-50,"x_max":430,"o":"m 255 987 l 255 0 l 124 0 l 124 987 l 255 987 m 345 1246 l 430 1239 q 410 1152 430 1190 q 358 1095 391 1115 q 283 1074 325 1074 q 227 1084 249 1074 q 186 1106 204 1094 q 150 1129 169 1119 q 102 1139 130 1139 q 54 1117 73 1139 q 35 1063 35 1095 l -50 1067 q -31 1155 -50 1117 q 22 1214 -12 1192 q 96 1235 55 1235 q 147 1225 125 1235 q 189 1203 169 1215 q 229 1180 208 1190 q 277 1171 250 1171 q 326 1193 306 1171 q 345 1246 345 1215 z "},"J":{"ha":766,"x_min":36,"x_max":659,"o":"m 529 288 l 529 987 l 659 987 l 659 288 q 619 123 659 191 q 509 21 579 56 q 348 -14 439 -14 q 186 18 257 -14 q 76 113 116 49 q 36 273 36 176 l 167 273 q 217 136 167 180 q 348 93 268 93 q 440 115 399 93 q 505 181 481 137 q 529 288 529 224 z "},"Ĵ":{"ha":766,"x_min":36,"x_max":784,"o":"m 529 288 l 529 987 l 659 987 l 659 288 q 619 123 659 191 q 509 21 579 56 q 348 -14 439 -14 q 186 18 257 -14 q 76 113 116 49 q 36 273 36 176 l 167 273 q 217 136 167 180 q 348 93 268 93 q 440 115 399 93 q 505 181 481 137 q 529 288 529 224 m 616 1251 l 784 1066 l 784 1059 l 680 1059 l 578 1174 l 477 1059 l 374 1059 l 374 1067 l 540 1251 l 616 1251 z "},"K":{"ha":871,"x_min":115,"x_max":871,"o":"m 245 987 l 245 0 l 115 0 l 115 987 l 245 987 m 842 987 l 431 527 l 201 288 l 179 427 l 353 618 l 684 987 l 842 987 m 715 0 l 350 481 l 428 585 l 871 0 l 715 0 z "},"Ķ":{"ha":871,"x_min":115,"x_max":871,"o":"m 245 987 l 245 0 l 115 0 l 115 987 l 245 987 m 842 987 l 431 527 l 201 288 l 179 427 l 353 618 l 684 987 l 842 987 m 715 0 l 350 481 l 428 585 l 871 0 l 715 0 m 507 -17 l 507 -71 q 483 -186 507 -124 q 408 -289 458 -248 l 337 -239 q 375 -160 362 -201 q 387 -72 387 -119 l 387 -17 l 507 -17 z "},"L":{"ha":748,"x_min":115,"x_max":713,"o":"m 713 106 l 713 0 l 220 0 l 220 106 l 713 106 m 245 987 l 245 0 l 115 0 l 115 987 l 245 987 z "},"Ĺ":{"ha":748,"x_min":110,"x_max":713,"o":"m 713 106 l 713 0 l 220 0 l 220 106 l 713 106 m 245 987 l 245 0 l 115 0 l 115 987 l 245 987 m 110 1050 l 241 1249 l 393 1249 l 211 1050 l 110 1050 z "},"Ľ":{"ha":748,"x_min":115,"x_max":713,"o":"m 713 106 l 713 0 l 220 0 l 220 106 l 713 106 m 245 987 l 245 0 l 115 0 l 115 987 l 245 987 m 551 988 l 551 935 q 527 819 551 881 q 453 716 503 758 l 382 766 q 419 845 407 804 q 432 933 432 886 l 432 988 l 551 988 z "},"Ļ":{"ha":748,"x_min":115,"x_max":713,"o":"m 713 106 l 713 0 l 220 0 l 220 106 l 713 106 m 245 987 l 245 0 l 115 0 l 115 987 l 245 987 m 479 -71 l 479 -125 q 455 -240 479 -178 q 381 -343 431 -302 l 310 -294 q 348 -214 335 -255 q 360 -126 360 -174 l 360 -71 l 479 -71 z "},"Ŀ":{"ha":748,"x_min":115,"x_max":713,"o":"m 713 106 l 713 0 l 220 0 l 220 106 l 713 106 m 245 987 l 245 0 l 115 0 l 115 987 l 245 987 m 397 540 q 416 591 397 570 q 471 612 435 612 q 527 591 507 612 q 546 540 546 570 q 527 489 546 510 q 471 469 507 469 q 416 489 435 469 q 397 540 397 510 z "},"Ł":{"ha":748,"x_min":24,"x_max":713,"o":"m 423 629 l 423 545 l 24 418 l 24 503 l 423 629 m 713 106 l 713 0 l 219 0 l 219 106 l 713 106 m 245 987 l 245 0 l 115 0 l 115 987 l 245 987 z "},"M":{"ha":1213,"x_min":115,"x_max":1097,"o":"m 156 987 l 283 987 l 606 182 l 929 987 l 1057 987 l 655 0 l 556 0 l 156 987 m 115 987 l 227 987 l 245 385 l 245 0 l 115 0 l 115 987 m 985 987 l 1097 987 l 1097 0 l 967 0 l 967 385 l 985 987 z "},"N":{"ha":991,"x_min":115,"x_max":874,"o":"m 874 987 l 874 0 l 743 0 l 245 762 l 245 0 l 115 0 l 115 987 l 245 987 l 745 224 l 745 987 l 874 987 z "},"Ń":{"ha":991,"x_min":115,"x_max":874,"o":"m 874 987 l 874 0 l 743 0 l 245 762 l 245 0 l 115 0 l 115 987 l 245 987 l 745 224 l 745 987 l 874 987 m 423 1053 l 555 1253 l 706 1253 l 524 1053 l 423 1053 z "},"Ň":{"ha":991,"x_min":115,"x_max":874,"o":"m 874 987 l 874 0 l 743 0 l 245 762 l 245 0 l 115 0 l 115 987 l 245 987 l 745 224 l 745 987 l 874 987 m 389 1252 l 492 1137 l 594 1252 l 703 1252 l 703 1245 l 530 1059 l 453 1059 l 283 1245 l 283 1252 l 389 1252 z "},"Ņ":{"ha":991,"x_min":115,"x_max":874,"o":"m 874 987 l 874 0 l 743 0 l 245 762 l 245 0 l 115 0 l 115 987 l 245 987 l 745 224 l 745 987 l 874 987 m 547 -71 l 547 -125 q 523 -240 547 -178 q 449 -343 499 -302 l 378 -294 q 415 -214 403 -255 q 428 -126 428 -174 l 428 -71 l 547 -71 z "},"Ñ":{"ha":991,"x_min":115,"x_max":874,"o":"m 874 987 l 874 0 l 743 0 l 245 762 l 245 0 l 115 0 l 115 987 l 245 987 l 745 224 l 745 987 l 874 987 m 648 1239 l 733 1232 q 713 1145 733 1182 q 661 1087 694 1107 q 587 1067 628 1067 q 530 1077 552 1067 q 490 1099 507 1086 q 453 1121 472 1112 q 405 1131 433 1131 q 357 1109 376 1131 q 338 1056 338 1088 l 253 1060 q 272 1147 253 1109 q 325 1206 292 1185 q 399 1227 358 1227 q 450 1218 428 1227 q 492 1195 472 1208 q 532 1173 511 1183 q 581 1163 553 1163 q 629 1185 609 1163 q 648 1239 648 1207 z "},"O":{"ha":956,"x_min":81,"x_max":875,"o":"m 875 525 l 875 463 q 826 208 875 315 q 688 44 777 101 q 479 -14 599 -14 q 272 44 362 -14 q 132 208 182 101 q 81 463 81 315 l 81 525 q 131 780 81 673 q 271 944 182 886 q 477 1001 361 1001 q 687 944 597 1001 q 826 780 777 886 q 875 525 875 673 m 745 463 l 745 526 q 713 725 745 644 q 622 848 682 806 q 477 890 562 890 q 336 848 397 890 q 243 725 276 806 q 210 526 210 644 l 210 463 q 243 262 210 344 q 337 139 277 181 q 479 97 398 97 q 624 139 564 97 q 714 262 683 181 q 745 463 745 344 z "},"Œ":{"ha":1324,"x_min":71,"x_max":1221,"o":"m 448 1002 q 551 997 500 1002 q 647 987 602 993 l 647 880 q 552 893 602 888 q 448 899 501 899 q 314 864 371 899 q 227 763 258 830 q 197 598 197 696 l 197 391 q 228 225 197 292 q 315 123 258 157 q 449 89 372 89 q 552 94 502 89 q 647 107 603 99 l 647 0 q 551 -9 602 -5 q 449 -14 501 -14 q 252 37 336 -14 q 119 180 167 88 q 71 391 71 271 l 71 597 q 119 808 71 717 q 251 950 166 899 q 448 1002 335 1002 m 1221 106 l 1221 0 l 699 0 l 699 106 l 1221 106 m 725 987 l 725 0 l 594 0 l 594 987 l 725 987 m 1152 563 l 1152 456 l 699 456 l 699 563 l 1152 563 m 1215 987 l 1215 880 l 699 880 l 699 987 l 1215 987 z "},"Ó":{"ha":956,"x_min":81,"x_max":875,"o":"m 875 525 l 875 463 q 826 208 875 315 q 688 44 777 101 q 479 -14 599 -14 q 272 44 362 -14 q 132 208 182 101 q 81 463 81 315 l 81 525 q 131 780 81 673 q 271 944 182 886 q 477 1001 361 1001 q 687 944 597 1001 q 826 780 777 886 q 875 525 875 673 m 745 463 l 745 526 q 713 725 745 644 q 622 848 682 806 q 477 890 562 890 q 336 848 397 890 q 243 725 276 806 q 210 526 210 644 l 210 463 q 243 262 210 344 q 337 139 277 181 q 479 97 398 97 q 624 139 564 97 q 714 262 683 181 q 745 463 745 344 m 410 1055 l 542 1254 l 693 1254 l 511 1055 l 410 1055 z "},"Ŏ":{"ha":956,"x_min":81,"x_max":875,"o":"m 875 525 l 875 463 q 826 208 875 315 q 688 44 777 101 q 479 -14 599 -14 q 272 44 362 -14 q 132 208 182 101 q 81 463 81 315 l 81 525 q 131 780 81 673 q 271 944 182 886 q 477 1001 361 1001 q 687 944 597 1001 q 826 780 777 886 q 875 525 875 673 m 745 463 l 745 526 q 713 725 745 644 q 622 848 682 806 q 477 890 562 890 q 336 848 397 890 q 243 725 276 806 q 210 526 210 644 l 210 463 q 243 262 210 344 q 337 139 277 181 q 479 97 398 97 q 624 139 564 97 q 714 262 683 181 q 745 463 745 344 m 581 1226 l 682 1226 q 628 1096 682 1146 q 480 1045 574 1045 q 331 1096 386 1045 q 277 1226 277 1146 l 378 1226 q 401 1156 378 1186 q 480 1125 425 1125 q 557 1156 534 1125 q 581 1226 581 1186 z "},"Ô":{"ha":956,"x_min":81,"x_max":875,"o":"m 875 525 l 875 463 q 826 208 875 315 q 688 44 777 101 q 479 -14 599 -14 q 272 44 362 -14 q 132 208 182 101 q 81 463 81 315 l 81 525 q 131 780 81 673 q 271 944 182 886 q 477 1001 361 1001 q 687 944 597 1001 q 826 780 777 886 q 875 525 875 673 m 745 463 l 745 526 q 713 725 745 644 q 622 848 682 806 q 477 890 562 890 q 336 848 397 890 q 243 725 276 806 q 210 526 210 644 l 210 463 q 243 262 210 344 q 337 139 277 181 q 479 97 398 97 q 624 139 564 97 q 714 262 683 181 q 745 463 745 344 m 517 1254 l 686 1069 l 686 1062 l 581 1062 l 479 1177 l 378 1062 l 275 1062 l 275 1069 l 441 1254 l 517 1254 z "},"Ö":{"ha":956,"x_min":81,"x_max":875,"o":"m 875 525 l 875 463 q 826 208 875 315 q 688 44 777 101 q 479 -14 599 -14 q 272 44 362 -14 q 132 208 182 101 q 81 463 81 315 l 81 525 q 131 780 81 673 q 271 944 182 886 q 477 1001 361 1001 q 687 944 597 1001 q 826 780 777 886 q 875 525 875 673 m 745 463 l 745 526 q 713 725 745 644 q 622 848 682 806 q 477 890 562 890 q 336 848 397 890 q 243 725 276 806 q 210 526 210 644 l 210 463 q 243 262 210 344 q 337 139 277 181 q 479 97 398 97 q 624 139 564 97 q 714 262 683 181 q 745 463 745 344 m 261 1142 q 280 1194 261 1173 q 335 1215 299 1215 q 391 1194 372 1215 q 410 1142 410 1173 q 391 1092 410 1113 q 335 1072 372 1072 q 280 1092 299 1072 q 261 1142 261 1113 m 553 1141 q 572 1192 553 1171 q 627 1213 591 1213 q 683 1192 663 1213 q 702 1141 702 1171 q 683 1091 702 1112 q 627 1070 663 1070 q 572 1091 591 1070 q 553 1141 553 1112 z "},"Ò":{"ha":956,"x_min":81,"x_max":875,"o":"m 875 525 l 875 463 q 826 208 875 315 q 688 44 777 101 q 479 -14 599 -14 q 272 44 362 -14 q 132 208 182 101 q 81 463 81 315 l 81 525 q 131 780 81 673 q 271 944 182 886 q 477 1001 361 1001 q 687 944 597 1001 q 826 780 777 886 q 875 525 875 673 m 745 463 l 745 526 q 713 725 745 644 q 622 848 682 806 q 477 890 562 890 q 336 848 397 890 q 243 725 276 806 q 210 526 210 644 l 210 463 q 243 262 210 344 q 337 139 277 181 q 479 97 398 97 q 624 139 564 97 q 714 262 683 181 q 745 463 745 344 m 420 1254 l 551 1055 l 443 1055 l 268 1254 l 420 1254 z "},"Ơ":{"ha":954,"x_min":69,"x_max":975,"o":"m 861 1080 l 975 1080 q 910 876 975 948 q 717 804 846 804 l 717 896 q 802 918 770 896 q 847 981 833 939 q 861 1080 861 1022 m 863 525 l 863 463 q 814 208 863 315 q 677 44 766 101 q 467 -14 588 -14 q 261 44 351 -14 q 120 208 171 101 q 69 463 69 315 l 69 525 q 120 780 69 673 q 260 944 170 886 q 466 1001 349 1001 q 676 944 587 1001 q 814 780 765 886 q 863 525 863 673 m 734 463 l 734 526 q 702 725 734 644 q 610 848 670 806 q 466 890 551 890 q 325 848 385 890 q 232 725 265 806 q 199 526 199 644 l 199 463 q 232 262 199 344 q 326 139 266 181 q 467 97 387 97 q 612 139 553 97 q 703 262 671 181 q 734 463 734 344 z "},"Ő":{"ha":956,"x_min":81,"x_max":875,"o":"m 875 525 l 875 463 q 826 208 875 315 q 688 44 777 101 q 479 -14 599 -14 q 272 44 362 -14 q 132 208 182 101 q 81 463 81 315 l 81 525 q 131 780 81 673 q 271 944 182 886 q 477 1001 361 1001 q 687 944 597 1001 q 826 780 777 886 q 875 525 875 673 m 745 463 l 745 526 q 713 725 745 644 q 622 848 682 806 q 477 890 562 890 q 336 848 397 890 q 243 725 276 806 q 210 526 210 644 l 210 463 q 243 262 210 344 q 337 139 277 181 q 479 97 398 97 q 624 139 564 97 q 714 262 683 181 q 745 463 745 344 m 500 1048 l 656 1253 l 797 1253 l 615 1048 l 500 1048 m 311 1048 l 426 1253 l 560 1253 l 412 1048 l 311 1048 z "},"Ō":{"ha":956,"x_min":81,"x_max":875,"o":"m 875 525 l 875 463 q 826 208 875 315 q 688 44 777 101 q 479 -14 599 -14 q 272 44 362 -14 q 132 208 182 101 q 81 463 81 315 l 81 525 q 131 780 81 673 q 271 944 182 886 q 477 1001 361 1001 q 687 944 597 1001 q 826 780 777 886 q 875 525 875 673 m 745 463 l 745 526 q 713 725 745 644 q 622 848 682 806 q 477 890 562 890 q 336 848 397 890 q 243 725 276 806 q 210 526 210 644 l 210 463 q 243 262 210 344 q 337 139 277 181 q 479 97 398 97 q 624 139 564 97 q 714 262 683 181 q 745 463 745 344 m 711 1198 l 711 1101 l 256 1101 l 256 1198 l 711 1198 z "},"Ω":{"ha":924,"x_min":77,"x_max":833,"o":"m 701 492 l 701 571 q 670 749 701 677 q 585 858 640 821 q 454 895 530 895 q 324 858 379 895 q 239 749 269 821 q 210 571 210 677 l 210 492 q 224 338 210 406 q 266 223 239 271 q 331 148 293 176 q 414 111 368 119 l 414 15 q 279 67 340 24 q 173 177 218 110 q 102 325 127 243 q 77 492 77 406 l 77 570 q 125 795 77 698 q 257 947 172 892 q 454 1001 342 1001 q 652 947 566 1001 q 785 795 737 892 q 833 570 833 698 l 833 492 q 808 326 833 407 q 739 177 783 244 q 633 67 694 111 q 500 15 572 24 l 500 111 q 582 148 545 120 q 646 224 619 176 q 686 339 672 272 q 701 492 701 406 m 500 0 l 500 106 l 828 106 l 828 0 l 500 0 m 80 0 l 80 106 l 414 106 l 414 0 l 80 0 z "},"Ø":{"ha":956,"x_min":81,"x_max":888,"o":"m 888 1028 l 208 -63 l 111 -63 l 793 1028 l 888 1028 m 875 525 l 875 463 q 826 208 875 315 q 688 44 777 101 q 479 -14 599 -14 q 272 44 362 -14 q 132 208 182 101 q 81 463 81 315 l 81 525 q 131 780 81 673 q 271 944 182 886 q 477 1001 361 1001 q 687 944 597 1001 q 826 780 777 886 q 875 525 875 673 m 745 463 l 745 526 q 713 725 745 644 q 622 848 682 806 q 477 890 562 890 q 336 848 397 890 q 243 725 276 806 q 210 526 210 644 l 210 463 q 243 262 210 344 q 337 139 277 181 q 479 97 398 97 q 624 139 564 97 q 714 262 683 181 q 745 463 745 344 z "},"Ǿ":{"ha":956,"x_min":81,"x_max":888,"o":"m 888 1028 l 208 -63 l 111 -63 l 793 1028 l 888 1028 m 875 525 l 875 463 q 826 208 875 315 q 688 44 777 101 q 479 -14 599 -14 q 272 44 362 -14 q 132 208 182 101 q 81 463 81 315 l 81 525 q 131 780 81 673 q 271 944 182 886 q 477 1001 361 1001 q 687 944 597 1001 q 826 780 777 886 q 875 525 875 673 m 745 463 l 745 526 q 713 725 745 644 q 622 848 682 806 q 477 890 562 890 q 336 848 397 890 q 243 725 276 806 q 210 526 210 644 l 210 463 q 243 262 210 344 q 337 139 277 181 q 479 97 398 97 q 624 139 564 97 q 714 262 683 181 q 745 463 745 344 m 416 1103 l 547 1302 l 699 1302 l 517 1103 l 416 1103 z "},"Õ":{"ha":956,"x_min":81,"x_max":875,"o":"m 875 525 l 875 463 q 826 208 875 315 q 688 44 777 101 q 479 -14 599 -14 q 272 44 362 -14 q 132 208 182 101 q 81 463 81 315 l 81 525 q 131 780 81 673 q 271 944 182 886 q 477 1001 361 1001 q 687 944 597 1001 q 826 780 777 886 q 875 525 875 673 m 745 463 l 745 526 q 713 725 745 644 q 622 848 682 806 q 477 890 562 890 q 336 848 397 890 q 243 725 276 806 q 210 526 210 644 l 210 463 q 243 262 210 344 q 337 139 277 181 q 479 97 398 97 q 624 139 564 97 q 714 262 683 181 q 745 463 745 344 m 635 1240 l 720 1233 q 701 1146 720 1183 q 648 1088 681 1109 q 574 1068 615 1068 q 517 1078 539 1068 q 477 1100 494 1088 q 440 1123 459 1113 q 392 1133 420 1133 q 344 1111 363 1133 q 325 1057 325 1089 l 240 1061 q 259 1148 240 1111 q 312 1207 279 1186 q 386 1229 345 1229 q 437 1219 415 1229 q 479 1197 459 1209 q 519 1174 498 1184 q 568 1164 541 1164 q 616 1186 596 1164 q 635 1240 635 1208 z "},"P":{"ha":876,"x_min":115,"x_max":825,"o":"m 479 387 l 215 387 l 215 494 l 479 494 q 603 518 555 494 q 672 586 650 543 q 694 685 694 629 q 672 781 694 736 q 603 853 650 825 q 479 880 555 880 l 245 880 l 245 0 l 115 0 l 115 987 l 479 987 q 668 949 591 987 q 785 842 745 910 q 825 686 825 774 q 785 524 825 591 q 668 422 745 457 q 479 387 591 387 z "},"Q":{"ha":956,"x_min":75,"x_max":872,"o":"m 621 113 l 872 -85 l 784 -167 l 537 29 l 621 113 m 869 525 l 869 463 q 820 208 869 315 q 682 44 771 101 q 473 -14 593 -14 q 266 44 356 -14 q 125 208 176 101 q 75 463 75 315 l 75 525 q 125 780 75 673 q 265 944 176 886 q 471 1001 355 1001 q 681 944 592 1001 q 820 780 770 886 q 869 525 869 673 m 739 463 l 739 526 q 708 725 739 644 q 616 848 676 806 q 471 890 556 890 q 331 848 391 890 q 237 725 271 806 q 204 526 204 644 l 204 463 q 238 262 204 344 q 332 139 271 181 q 473 97 392 97 q 617 139 558 97 q 708 262 677 181 q 739 463 739 344 z "},"R":{"ha":856,"x_min":115,"x_max":831,"o":"m 115 987 l 441 987 q 630 954 553 987 q 747 853 707 920 q 787 691 787 787 q 760 567 787 623 q 681 472 732 511 q 559 414 630 433 l 522 400 l 215 400 l 214 507 l 446 507 q 563 531 516 507 q 633 598 610 556 q 657 691 657 640 q 606 828 657 777 q 441 880 555 880 l 245 880 l 245 0 l 115 0 l 115 987 m 692 0 l 452 448 l 588 448 l 831 8 l 831 0 l 692 0 z "},"Ŕ":{"ha":856,"x_min":115,"x_max":831,"o":"m 115 987 l 441 987 q 630 954 553 987 q 747 853 707 920 q 787 691 787 787 q 760 567 787 623 q 681 472 732 511 q 559 414 630 433 l 522 400 l 215 400 l 214 507 l 446 507 q 563 531 516 507 q 633 598 610 556 q 657 691 657 640 q 606 828 657 777 q 441 880 555 880 l 245 880 l 245 0 l 115 0 l 115 987 m 692 0 l 452 448 l 588 448 l 831 8 l 831 0 l 692 0 m 345 1053 l 476 1253 l 627 1253 l 446 1053 l 345 1053 z "},"Ř":{"ha":856,"x_min":115,"x_max":831,"o":"m 115 987 l 441 987 q 630 954 553 987 q 747 853 707 920 q 787 691 787 787 q 760 567 787 623 q 681 472 732 511 q 559 414 630 433 l 522 400 l 215 400 l 214 507 l 446 507 q 563 531 516 507 q 633 598 610 556 q 657 691 657 640 q 606 828 657 777 q 441 880 555 880 l 245 880 l 245 0 l 115 0 l 115 987 m 692 0 l 452 448 l 588 448 l 831 8 l 831 0 l 692 0 m 311 1252 l 413 1137 l 515 1252 l 624 1252 l 624 1245 l 452 1059 l 374 1059 l 205 1245 l 205 1252 l 311 1252 z "},"Ŗ":{"ha":856,"x_min":115,"x_max":831,"o":"m 115 987 l 441 987 q 630 954 553 987 q 747 853 707 920 q 787 691 787 787 q 760 567 787 623 q 681 472 732 511 q 559 414 630 433 l 522 400 l 215 400 l 214 507 l 446 507 q 563 531 516 507 q 633 598 610 556 q 657 691 657 640 q 606 828 657 777 q 441 880 555 880 l 245 880 l 245 0 l 115 0 l 115 987 m 692 0 l 452 448 l 588 448 l 831 8 l 831 0 l 692 0 m 473 -71 l 473 -125 q 449 -240 473 -178 q 375 -343 425 -302 l 304 -294 q 341 -214 329 -255 q 354 -126 354 -174 l 354 -71 l 473 -71 z "},"S":{"ha":825,"x_min":55,"x_max":772,"o":"m 641 250 q 621 328 641 296 q 551 387 602 361 q 406 441 500 414 q 237 508 309 469 q 125 601 165 547 q 86 732 86 656 q 128 870 86 809 q 245 966 170 930 q 422 1001 321 1001 q 611 959 533 1001 q 729 848 688 916 q 770 703 770 780 l 640 703 q 616 801 640 758 q 544 869 592 844 q 422 894 496 894 q 307 873 352 894 q 239 816 261 852 q 217 734 217 780 q 241 661 217 692 q 316 603 265 629 q 448 555 367 577 q 632 481 560 523 q 738 384 704 440 q 772 251 772 328 q 730 111 772 171 q 610 19 687 52 q 428 -14 532 -14 q 293 5 359 -14 q 173 62 227 24 q 87 156 119 100 q 55 286 55 212 l 185 286 q 205 199 185 235 q 259 139 224 163 q 337 104 293 115 q 428 93 380 93 q 544 112 496 93 q 616 166 591 131 q 641 250 641 201 z "},"Ś":{"ha":825,"x_min":55,"x_max":772,"o":"m 641 250 q 621 328 641 296 q 551 387 602 361 q 406 441 500 414 q 237 508 309 469 q 125 601 165 547 q 86 732 86 656 q 128 870 86 809 q 245 966 170 930 q 422 1001 321 1001 q 611 959 533 1001 q 729 848 688 916 q 770 703 770 780 l 640 703 q 616 801 640 758 q 544 869 592 844 q 422 894 496 894 q 307 873 352 894 q 239 816 261 852 q 217 734 217 780 q 241 661 217 692 q 316 603 265 629 q 448 555 367 577 q 632 481 560 523 q 738 384 704 440 q 772 251 772 328 q 730 111 772 171 q 610 19 687 52 q 428 -14 532 -14 q 293 5 359 -14 q 173 62 227 24 q 87 156 119 100 q 55 286 55 212 l 185 286 q 205 199 185 235 q 259 139 224 163 q 337 104 293 115 q 428 93 380 93 q 544 112 496 93 q 616 166 591 131 q 641 250 641 201 m 353 1055 l 484 1254 l 635 1254 l 454 1055 l 353 1055 z "},"Š":{"ha":825,"x_min":55,"x_max":772,"o":"m 641 250 q 621 328 641 296 q 551 387 602 361 q 406 441 500 414 q 237 508 309 469 q 125 601 165 547 q 86 732 86 656 q 128 870 86 809 q 245 966 170 930 q 422 1001 321 1001 q 611 959 533 1001 q 729 848 688 916 q 770 703 770 780 l 640 703 q 616 801 640 758 q 544 869 592 844 q 422 894 496 894 q 307 873 352 894 q 239 816 261 852 q 217 734 217 780 q 241 661 217 692 q 316 603 265 629 q 448 555 367 577 q 632 481 560 523 q 738 384 704 440 q 772 251 772 328 q 730 111 772 171 q 610 19 687 52 q 428 -14 532 -14 q 293 5 359 -14 q 173 62 227 24 q 87 156 119 100 q 55 286 55 212 l 185 286 q 205 199 185 235 q 259 139 224 163 q 337 104 293 115 q 428 93 380 93 q 544 112 496 93 q 616 166 591 131 q 641 250 641 201 m 319 1253 l 421 1138 l 524 1253 l 632 1253 l 632 1246 l 460 1061 l 382 1061 l 213 1246 l 213 1253 l 319 1253 z "},"Ş":{"ha":825,"x_min":55,"x_max":772,"o":"m 641 250 q 621 328 641 296 q 551 387 602 361 q 406 441 500 414 q 237 508 309 469 q 125 601 165 547 q 86 732 86 656 q 128 870 86 809 q 245 966 170 930 q 422 1001 321 1001 q 611 959 533 1001 q 729 848 688 916 q 770 703 770 780 l 640 703 q 616 801 640 758 q 544 869 592 844 q 422 894 496 894 q 307 873 352 894 q 239 816 261 852 q 217 734 217 780 q 241 661 217 692 q 316 603 265 629 q 448 555 367 577 q 632 481 560 523 q 738 384 704 440 q 772 251 772 328 q 730 111 772 171 q 610 19 687 52 q 428 -14 532 -14 q 293 5 359 -14 q 173 62 227 24 q 87 156 119 100 q 55 286 55 212 l 185 286 q 205 199 185 235 q 259 139 224 163 q 337 104 293 115 q 428 93 380 93 q 544 112 496 93 q 616 166 591 131 q 641 250 641 201 m 385 -1 l 475 -1 l 467 -37 q 538 -69 506 -43 q 570 -154 570 -95 q 518 -257 570 -218 q 365 -296 466 -296 l 360 -223 q 417 -216 391 -223 q 457 -195 442 -210 q 473 -156 473 -180 q 447 -110 473 -122 q 363 -92 420 -97 l 385 -1 z "},"Ə":{"ha":960,"x_min":64,"x_max":880,"o":"m 473 -14 q 247 41 338 -14 q 110 197 156 96 q 64 436 64 298 l 64 520 l 800 520 l 800 419 l 195 419 l 195 396 q 221 243 195 312 q 309 135 248 175 q 473 94 370 94 q 623 144 562 94 q 718 277 685 193 q 750 461 750 360 l 750 525 q 718 710 750 627 q 616 843 686 793 q 435 892 547 892 q 287 873 347 892 q 187 836 227 854 l 155 932 q 208 960 172 943 q 300 988 243 976 q 435 1001 357 1001 q 678 940 578 1001 q 829 772 777 880 q 880 525 880 665 l 880 461 q 826 214 880 321 q 679 47 771 107 q 473 -14 586 -14 z "},"Ŝ":{"ha":825,"x_min":55,"x_max":772,"o":"m 641 250 q 621 328 641 296 q 551 387 602 361 q 406 441 500 414 q 237 508 309 469 q 125 601 165 547 q 86 732 86 656 q 128 870 86 809 q 245 966 170 930 q 422 1001 321 1001 q 611 959 533 1001 q 729 848 688 916 q 770 703 770 780 l 640 703 q 616 801 640 758 q 544 869 592 844 q 422 894 496 894 q 307 873 352 894 q 239 816 261 852 q 217 734 217 780 q 241 661 217 692 q 316 603 265 629 q 448 555 367 577 q 632 481 560 523 q 738 384 704 440 q 772 251 772 328 q 730 111 772 171 q 610 19 687 52 q 428 -14 532 -14 q 293 5 359 -14 q 173 62 227 24 q 87 156 119 100 q 55 286 55 212 l 185 286 q 205 199 185 235 q 259 139 224 163 q 337 104 293 115 q 428 93 380 93 q 544 112 496 93 q 616 166 591 131 q 641 250 641 201 m 460 1254 l 628 1069 l 628 1062 l 524 1062 l 422 1177 l 321 1062 l 218 1062 l 218 1069 l 384 1254 l 460 1254 z "},"T":{"ha":829,"x_min":34,"x_max":797,"o":"m 479 987 l 479 0 l 351 0 l 351 987 l 479 987 m 797 987 l 797 880 l 34 880 l 34 987 l 797 987 z "},"Ŧ":{"ha":829,"x_min":34,"x_max":797,"o":"m 479 987 l 479 0 l 351 0 l 351 987 l 479 987 m 797 987 l 797 880 l 34 880 l 34 987 l 797 987 m 637 661 l 637 557 l 205 557 l 205 661 l 637 661 z "},"Ť":{"ha":829,"x_min":34,"x_max":797,"o":"m 479 987 l 479 0 l 351 0 l 351 987 l 479 987 m 797 987 l 797 880 l 34 880 l 34 987 l 797 987 m 312 1251 l 414 1136 l 517 1251 l 625 1251 l 625 1244 l 453 1059 l 376 1059 l 206 1244 l 206 1251 l 312 1251 z "},"Þ":{"ha":821,"x_min":113,"x_max":758,"o":"m 113 987 l 239 987 l 239 0 l 113 0 l 113 987 m 176 789 l 427 789 q 608 751 534 789 q 720 649 682 714 q 758 500 758 584 q 720 353 758 418 q 608 250 682 288 q 427 213 534 213 l 211 213 l 211 315 l 427 315 q 546 342 500 315 q 611 411 591 369 q 632 499 632 453 q 611 589 632 547 q 546 659 591 632 q 427 686 500 686 l 237 686 l 176 789 z "},"U":{"ha":901,"x_min":95,"x_max":810,"o":"m 680 987 l 810 987 l 810 319 q 760 134 810 208 q 629 23 711 60 q 452 -14 547 -14 q 270 23 351 -14 q 142 134 189 60 q 95 319 95 208 l 95 987 l 224 987 l 224 319 q 253 192 224 242 q 333 117 281 142 q 452 93 384 93 q 571 117 520 93 q 651 192 623 142 q 680 319 680 242 l 680 987 z "},"Ú":{"ha":901,"x_min":95,"x_max":810,"o":"m 680 987 l 810 987 l 810 319 q 760 134 810 208 q 629 23 711 60 q 452 -14 547 -14 q 270 23 351 -14 q 142 134 189 60 q 95 319 95 208 l 95 987 l 224 987 l 224 319 q 253 192 224 242 q 333 117 281 142 q 452 93 384 93 q 571 117 520 93 q 651 192 623 142 q 680 319 680 242 l 680 987 m 383 1053 l 515 1253 l 666 1253 l 484 1053 l 383 1053 z "},"Ŭ":{"ha":901,"x_min":95,"x_max":810,"o":"m 680 987 l 810 987 l 810 319 q 760 134 810 208 q 629 23 711 60 q 452 -14 547 -14 q 270 23 351 -14 q 142 134 189 60 q 95 319 95 208 l 95 987 l 224 987 l 224 319 q 253 192 224 242 q 333 117 281 142 q 452 93 384 93 q 571 117 520 93 q 651 192 623 142 q 680 319 680 242 l 680 987 m 553 1225 l 655 1225 q 601 1094 655 1145 q 453 1044 547 1044 q 304 1094 359 1044 q 250 1225 250 1145 l 351 1225 q 374 1154 351 1185 q 453 1124 397 1124 q 530 1154 507 1124 q 553 1225 553 1185 z "},"Û":{"ha":901,"x_min":95,"x_max":810,"o":"m 680 987 l 810 987 l 810 319 q 760 134 810 208 q 629 23 711 60 q 452 -14 547 -14 q 270 23 351 -14 q 142 134 189 60 q 95 319 95 208 l 95 987 l 224 987 l 224 319 q 253 192 224 242 q 333 117 281 142 q 452 93 384 93 q 571 117 520 93 q 651 192 623 142 q 680 319 680 242 l 680 987 m 490 1253 l 659 1067 l 659 1061 l 554 1061 l 452 1175 l 351 1061 l 248 1061 l 248 1068 l 414 1253 l 490 1253 z "},"Ü":{"ha":901,"x_min":95,"x_max":810,"o":"m 680 987 l 810 987 l 810 319 q 760 134 810 208 q 629 23 711 60 q 452 -14 547 -14 q 270 23 351 -14 q 142 134 189 60 q 95 319 95 208 l 95 987 l 224 987 l 224 319 q 253 192 224 242 q 333 117 281 142 q 452 93 384 93 q 571 117 520 93 q 651 192 623 142 q 680 319 680 242 l 680 987 m 234 1141 q 253 1192 234 1171 q 308 1213 272 1213 q 363 1192 345 1213 q 382 1141 382 1171 q 363 1091 382 1112 q 308 1070 345 1070 q 253 1091 272 1070 q 234 1141 234 1112 m 526 1139 q 545 1191 526 1170 q 600 1212 564 1212 q 655 1191 636 1212 q 675 1139 675 1170 q 655 1089 675 1110 q 600 1069 636 1069 q 545 1089 564 1069 q 526 1139 526 1110 z "},"Ù":{"ha":901,"x_min":95,"x_max":810,"o":"m 680 987 l 810 987 l 810 319 q 760 134 810 208 q 629 23 711 60 q 452 -14 547 -14 q 270 23 351 -14 q 142 134 189 60 q 95 319 95 208 l 95 987 l 224 987 l 224 319 q 253 192 224 242 q 333 117 281 142 q 452 93 384 93 q 571 117 520 93 q 651 192 623 142 q 680 319 680 242 l 680 987 m 393 1253 l 524 1053 l 416 1053 l 241 1253 l 393 1253 z "},"Ư":{"ha":966,"x_min":95,"x_max":1061,"o":"m 954 1043 l 1061 1043 q 1033 882 1061 947 q 943 784 1005 817 q 779 751 881 751 l 779 842 q 886 865 848 842 q 939 932 924 888 q 954 1043 954 977 m 680 987 l 810 987 l 810 319 q 760 134 810 208 q 629 23 711 60 q 452 -14 547 -14 q 270 23 351 -14 q 142 134 189 60 q 95 319 95 208 l 95 987 l 224 987 l 224 319 q 253 192 224 242 q 333 117 281 142 q 452 93 384 93 q 571 117 520 93 q 651 192 623 142 q 680 319 680 242 l 680 987 z "},"Ű":{"ha":901,"x_min":95,"x_max":810,"o":"m 680 987 l 810 987 l 810 319 q 760 134 810 208 q 629 23 711 60 q 452 -14 547 -14 q 270 23 351 -14 q 142 134 189 60 q 95 319 95 208 l 95 987 l 224 987 l 224 319 q 253 192 224 242 q 333 117 281 142 q 452 93 384 93 q 571 117 520 93 q 651 192 623 142 q 680 319 680 242 l 680 987 m 473 1046 l 629 1252 l 770 1252 l 588 1046 l 473 1046 m 283 1046 l 399 1252 l 533 1252 l 385 1046 l 283 1046 z "},"Ū":{"ha":901,"x_min":95,"x_max":810,"o":"m 680 987 l 810 987 l 810 319 q 760 134 810 208 q 629 23 711 60 q 452 -14 547 -14 q 270 23 351 -14 q 142 134 189 60 q 95 319 95 208 l 95 987 l 224 987 l 224 319 q 253 192 224 242 q 333 117 281 142 q 452 93 384 93 q 571 117 520 93 q 651 192 623 142 q 680 319 680 242 l 680 987 m 684 1196 l 684 1100 l 229 1100 l 229 1196 l 684 1196 z "},"Ų":{"ha":901,"x_min":95,"x_max":810,"o":"m 680 987 l 810 987 l 810 319 q 760 134 810 208 q 629 23 711 60 q 452 -14 547 -14 q 270 23 351 -14 q 142 134 189 60 q 95 319 95 208 l 95 987 l 224 987 l 224 319 q 253 192 224 242 q 333 117 281 142 q 452 93 384 93 q 571 117 520 93 q 651 192 623 142 q 680 319 680 242 l 680 987 m 588 68 l 638 30 q 558 -40 595 -3 q 522 -121 522 -77 q 534 -157 522 -143 q 575 -170 546 -170 q 615 -164 597 -170 q 643 -152 633 -157 l 652 -235 q 609 -255 635 -245 q 543 -264 583 -264 q 451 -232 488 -264 q 413 -135 413 -199 q 431 -62 413 -98 q 488 7 449 -26 q 588 68 526 40 z "},"Ů":{"ha":901,"x_min":95,"x_max":810,"o":"m 680 987 l 810 987 l 810 319 q 760 134 810 208 q 629 23 711 60 q 452 -14 547 -14 q 270 23 351 -14 q 142 134 189 60 q 95 319 95 208 l 95 987 l 224 987 l 224 319 q 253 192 224 242 q 333 117 281 142 q 452 93 384 93 q 571 117 520 93 q 651 192 623 142 q 680 319 680 242 l 680 987 m 307 1174 q 349 1274 307 1232 q 452 1315 391 1315 q 556 1274 514 1315 q 598 1174 598 1232 q 556 1075 598 1114 q 452 1036 514 1036 q 349 1075 391 1036 q 307 1174 307 1114 m 374 1174 q 396 1120 374 1144 q 452 1096 418 1096 q 509 1119 487 1096 q 531 1174 531 1143 q 509 1230 531 1206 q 452 1254 487 1254 q 396 1230 418 1254 q 374 1174 374 1206 z "},"Ũ":{"ha":901,"x_min":95,"x_max":810,"o":"m 680 987 l 810 987 l 810 319 q 760 134 810 208 q 629 23 711 60 q 452 -14 547 -14 q 270 23 351 -14 q 142 134 189 60 q 95 319 95 208 l 95 987 l 224 987 l 224 319 q 253 192 224 242 q 333 117 281 142 q 452 93 384 93 q 571 117 520 93 q 651 192 623 142 q 680 319 680 242 l 680 987 m 608 1239 l 693 1232 q 673 1145 693 1182 q 621 1087 654 1107 q 547 1067 588 1067 q 490 1077 512 1067 q 450 1099 467 1086 q 413 1121 432 1112 q 365 1131 393 1131 q 317 1109 336 1131 q 298 1056 298 1088 l 213 1060 q 232 1147 213 1109 q 285 1206 252 1185 q 359 1227 318 1227 q 410 1218 388 1227 q 452 1195 432 1208 q 492 1173 471 1183 q 541 1163 513 1163 q 589 1185 569 1163 q 608 1239 608 1207 z "},"V":{"ha":884,"x_min":20,"x_max":866,"o":"m 433 150 l 724 987 l 866 987 l 500 0 l 399 0 l 433 150 m 161 987 l 450 150 l 486 0 l 385 0 l 20 987 l 161 987 z "},"W":{"ha":1232,"x_min":41,"x_max":1202,"o":"m 374 298 l 570 987 l 665 987 l 610 720 l 399 0 l 305 0 l 374 298 m 172 987 l 328 312 l 374 0 l 281 0 l 41 987 l 172 987 m 919 313 l 1072 987 l 1202 987 l 964 0 l 870 0 l 919 313 m 680 987 l 870 298 l 939 0 l 845 0 l 642 720 l 586 987 l 680 987 z "},"Ŵ":{"ha":1232,"x_min":41,"x_max":1202,"o":"m 374 298 l 570 987 l 665 987 l 610 720 l 399 0 l 305 0 l 374 298 m 172 987 l 328 312 l 374 0 l 281 0 l 41 987 l 172 987 m 919 313 l 1072 987 l 1202 987 l 964 0 l 870 0 l 919 313 m 680 987 l 870 298 l 939 0 l 845 0 l 642 720 l 586 987 l 680 987 m 665 1253 l 833 1067 l 833 1061 l 728 1061 l 627 1175 l 526 1061 l 422 1061 l 422 1068 l 589 1253 l 665 1253 z "},"X":{"ha":871,"x_min":39,"x_max":834,"o":"m 199 987 l 437 609 l 674 987 l 827 987 l 515 498 l 834 0 l 680 0 l 437 386 l 193 0 l 39 0 l 359 498 l 47 987 l 199 987 z "},"Y":{"ha":834,"x_min":10,"x_max":822,"o":"m 160 987 l 416 492 l 673 987 l 822 987 l 481 369 l 481 0 l 351 0 l 351 369 l 10 987 l 160 987 z "},"Ý":{"ha":834,"x_min":10,"x_max":822,"o":"m 160 987 l 416 492 l 673 987 l 822 987 l 481 369 l 481 0 l 351 0 l 351 369 l 10 987 l 160 987 m 350 1053 l 481 1252 l 633 1252 l 451 1053 l 350 1053 z "},"Ŷ":{"ha":834,"x_min":10,"x_max":822,"o":"m 160 987 l 416 492 l 673 987 l 822 987 l 481 369 l 481 0 l 351 0 l 351 369 l 10 987 l 160 987 m 457 1252 l 625 1067 l 625 1060 l 521 1060 l 419 1175 l 318 1060 l 215 1060 l 215 1067 l 381 1252 l 457 1252 z "},"Ÿ":{"ha":834,"x_min":10,"x_max":822,"o":"m 160 987 l 416 492 l 673 987 l 822 987 l 481 369 l 481 0 l 351 0 l 351 369 l 10 987 l 160 987 m 201 1140 q 220 1192 201 1171 q 275 1213 239 1213 q 330 1192 311 1213 q 349 1140 349 1171 q 330 1090 349 1111 q 275 1069 311 1069 q 220 1090 239 1069 q 201 1140 201 1111 m 493 1139 q 512 1190 493 1169 q 567 1211 530 1211 q 622 1190 603 1211 q 642 1139 642 1169 q 622 1089 642 1109 q 567 1068 603 1068 q 512 1089 530 1068 q 493 1139 493 1109 z "},"Z":{"ha":832,"x_min":59,"x_max":777,"o":"m 777 106 l 777 0 l 109 0 l 109 106 l 777 106 m 755 892 l 140 0 l 59 0 l 59 98 l 674 987 l 755 987 l 755 892 m 700 987 l 700 880 l 68 880 l 68 987 l 700 987 z "},"Ź":{"ha":832,"x_min":59,"x_max":777,"o":"m 777 106 l 777 0 l 109 0 l 109 106 l 777 106 m 755 892 l 140 0 l 59 0 l 59 98 l 674 987 l 755 987 l 755 892 m 700 987 l 700 880 l 68 880 l 68 987 l 700 987 m 349 1053 l 480 1253 l 631 1253 l 450 1053 l 349 1053 z "},"Ž":{"ha":832,"x_min":59,"x_max":777,"o":"m 777 106 l 777 0 l 109 0 l 109 106 l 777 106 m 755 892 l 140 0 l 59 0 l 59 98 l 674 987 l 755 987 l 755 892 m 700 987 l 700 880 l 68 880 l 68 987 l 700 987 m 315 1252 l 417 1137 l 519 1252 l 628 1252 l 628 1245 l 456 1059 l 378 1059 l 209 1245 l 209 1252 l 315 1252 z "},"Ż":{"ha":832,"x_min":59,"x_max":777,"o":"m 777 106 l 777 0 l 109 0 l 109 106 l 777 106 m 755 892 l 140 0 l 59 0 l 59 98 l 674 987 l 755 987 l 755 892 m 700 987 l 700 880 l 68 880 l 68 987 l 700 987 m 344 1139 q 362 1190 344 1168 q 418 1211 381 1211 q 473 1190 454 1211 q 492 1139 492 1168 q 473 1088 492 1109 q 418 1067 454 1067 q 362 1088 381 1067 q 344 1139 344 1109 z "},"a":{"ha":755,"x_min":74,"x_max":680,"o":"m 528 125 l 528 503 q 489 607 528 568 q 374 646 450 646 q 291 630 326 646 q 235 587 255 614 q 215 530 215 561 l 90 530 q 125 633 90 583 q 227 715 161 683 q 381 747 292 747 q 523 720 461 747 q 619 638 584 693 q 654 502 654 584 l 654 160 q 660 82 654 123 q 680 11 667 41 l 680 0 l 549 0 q 534 58 539 22 q 528 125 528 94 m 550 445 l 551 357 l 425 357 q 258 323 317 357 q 200 221 200 290 q 235 133 200 169 q 340 96 271 96 q 442 121 398 96 q 512 180 486 145 q 541 249 538 216 l 594 189 q 568 125 589 160 q 512 59 547 91 q 430 7 477 28 q 322 -14 382 -14 q 192 16 248 -14 q 105 94 136 45 q 74 204 74 143 q 163 384 74 322 q 404 445 253 445 l 550 445 z "},"á":{"ha":755,"x_min":74,"x_max":680,"o":"m 528 125 l 528 503 q 489 607 528 568 q 374 646 450 646 q 291 630 326 646 q 235 587 255 614 q 215 530 215 561 l 90 530 q 125 633 90 583 q 227 715 161 683 q 381 747 292 747 q 523 720 461 747 q 619 638 584 693 q 654 502 654 584 l 654 160 q 660 82 654 123 q 680 11 667 41 l 680 0 l 549 0 q 534 58 539 22 q 528 125 528 94 m 550 445 l 551 357 l 425 357 q 258 323 317 357 q 200 221 200 290 q 235 133 200 169 q 340 96 271 96 q 442 121 398 96 q 512 180 486 145 q 541 249 538 216 l 594 189 q 568 125 589 160 q 512 59 547 91 q 430 7 477 28 q 322 -14 382 -14 q 192 16 248 -14 q 105 94 136 45 q 74 204 74 143 q 163 384 74 322 q 404 445 253 445 l 550 445 m 326 842 l 457 1042 l 608 1042 l 427 842 l 326 842 z "},"ă":{"ha":755,"x_min":74,"x_max":680,"o":"m 528 125 l 528 503 q 489 607 528 568 q 374 646 450 646 q 291 630 326 646 q 235 587 255 614 q 215 530 215 561 l 90 530 q 125 633 90 583 q 227 715 161 683 q 381 747 292 747 q 523 720 461 747 q 619 638 584 693 q 654 502 654 584 l 654 160 q 660 82 654 123 q 680 11 667 41 l 680 0 l 549 0 q 534 58 539 22 q 528 125 528 94 m 550 445 l 551 357 l 425 357 q 258 323 317 357 q 200 221 200 290 q 235 133 200 169 q 340 96 271 96 q 442 121 398 96 q 512 180 486 145 q 541 249 538 216 l 594 189 q 568 125 589 160 q 512 59 547 91 q 430 7 477 28 q 322 -14 382 -14 q 192 16 248 -14 q 105 94 136 45 q 74 204 74 143 q 163 384 74 322 q 404 445 253 445 l 550 445 m 496 1014 l 597 1014 q 543 883 597 934 q 395 833 489 833 q 247 883 301 833 q 192 1014 192 934 l 294 1014 q 317 943 294 974 q 395 913 340 913 q 473 943 450 913 q 496 1014 496 974 z "},"â":{"ha":755,"x_min":74,"x_max":680,"o":"m 528 125 l 528 503 q 489 607 528 568 q 374 646 450 646 q 291 630 326 646 q 235 587 255 614 q 215 530 215 561 l 90 530 q 125 633 90 583 q 227 715 161 683 q 381 747 292 747 q 523 720 461 747 q 619 638 584 693 q 654 502 654 584 l 654 160 q 660 82 654 123 q 680 11 667 41 l 680 0 l 549 0 q 534 58 539 22 q 528 125 528 94 m 550 445 l 551 357 l 425 357 q 258 323 317 357 q 200 221 200 290 q 235 133 200 169 q 340 96 271 96 q 442 121 398 96 q 512 180 486 145 q 541 249 538 216 l 594 189 q 568 125 589 160 q 512 59 547 91 q 430 7 477 28 q 322 -14 382 -14 q 192 16 248 -14 q 105 94 136 45 q 74 204 74 143 q 163 384 74 322 q 404 445 253 445 l 550 445 m 433 1042 l 601 857 l 601 850 l 496 850 l 395 964 l 294 850 l 191 850 l 191 857 l 357 1042 l 433 1042 z "},"´":{"ha":435,"x_min":83,"x_max":366,"o":"m 83 842 l 215 1042 l 366 1042 l 184 842 l 83 842 z "},"́":{"ha":0,"x_min":-446,"x_max":-163,"o":"m -446 842 l -315 1042 l -163 1042 l -345 842 l -446 842 z "},"ä":{"ha":755,"x_min":74,"x_max":680,"o":"m 528 125 l 528 503 q 489 607 528 568 q 374 646 450 646 q 291 630 326 646 q 235 587 255 614 q 215 530 215 561 l 90 530 q 125 633 90 583 q 227 715 161 683 q 381 747 292 747 q 523 720 461 747 q 619 638 584 693 q 654 502 654 584 l 654 160 q 660 82 654 123 q 680 11 667 41 l 680 0 l 549 0 q 534 58 539 22 q 528 125 528 94 m 550 445 l 551 357 l 425 357 q 258 323 317 357 q 200 221 200 290 q 235 133 200 169 q 340 96 271 96 q 442 121 398 96 q 512 180 486 145 q 541 249 538 216 l 594 189 q 568 125 589 160 q 512 59 547 91 q 430 7 477 28 q 322 -14 382 -14 q 192 16 248 -14 q 105 94 136 45 q 74 204 74 143 q 163 384 74 322 q 404 445 253 445 l 550 445 m 176 930 q 195 981 176 960 q 250 1002 214 1002 q 306 981 287 1002 q 325 930 325 960 q 306 880 325 901 q 250 859 287 859 q 195 880 214 859 q 176 930 176 901 m 469 928 q 487 980 469 959 q 543 1001 506 1001 q 598 980 578 1001 q 617 928 617 959 q 598 879 617 899 q 543 858 578 858 q 487 879 506 858 q 469 928 469 899 z "},"æ":{"ha":1173,"x_min":54,"x_max":1126,"o":"m 508 124 l 508 488 q 471 603 508 561 q 363 644 433 644 q 242 606 287 644 q 197 515 197 568 l 73 528 q 109 641 73 591 q 211 719 146 690 q 363 747 277 747 q 556 682 482 747 q 630 487 630 616 l 630 148 l 508 124 m 536 431 l 536 336 l 359 336 q 260 318 300 336 q 199 269 220 299 q 179 203 179 239 q 213 122 179 155 q 319 88 248 88 q 394 102 355 88 q 464 138 432 116 q 516 184 496 160 q 537 230 536 209 l 602 132 q 544 65 584 99 q 443 8 505 31 q 294 -14 380 -14 q 116 46 178 -14 q 54 206 54 106 q 131 372 54 313 q 357 431 208 431 l 536 431 m 857 -14 q 669 33 746 -14 q 553 163 593 80 q 514 353 514 246 l 514 382 q 555 572 514 490 q 667 702 596 655 q 827 747 737 748 q 1049 659 972 747 q 1126 418 1126 570 l 1126 338 l 581 338 l 581 434 l 1000 434 l 1000 455 q 983 549 1000 507 q 928 618 966 592 q 827 644 890 644 q 722 609 765 644 q 655 514 678 574 q 633 382 633 455 l 633 353 q 656 220 633 280 q 729 124 680 160 q 857 89 779 89 q 987 114 937 89 q 1070 161 1036 138 l 1114 69 q 1066 38 1099 58 q 981 2 1034 18 q 857 -14 929 -14 z "},"ǽ":{"ha":1173,"x_min":54,"x_max":1126,"o":"m 508 124 l 508 488 q 471 603 508 561 q 363 644 433 644 q 242 606 287 644 q 197 515 197 568 l 73 528 q 109 641 73 591 q 211 719 146 690 q 363 747 277 747 q 556 682 482 747 q 630 487 630 616 l 630 148 l 508 124 m 536 431 l 536 336 l 359 336 q 260 318 300 336 q 199 269 220 299 q 179 203 179 239 q 213 122 179 155 q 319 88 248 88 q 394 102 355 88 q 464 138 432 116 q 516 184 496 160 q 537 230 536 209 l 602 132 q 544 65 584 99 q 443 8 505 31 q 294 -14 380 -14 q 116 46 178 -14 q 54 206 54 106 q 131 372 54 313 q 357 431 208 431 l 536 431 m 857 -14 q 669 33 746 -14 q 553 163 593 80 q 514 353 514 246 l 514 382 q 555 572 514 490 q 667 702 596 655 q 827 747 737 748 q 1049 659 972 747 q 1126 418 1126 570 l 1126 338 l 581 338 l 581 434 l 1000 434 l 1000 455 q 983 549 1000 507 q 928 618 966 592 q 827 644 890 644 q 722 609 765 644 q 655 514 678 574 q 633 382 633 455 l 633 353 q 656 220 633 280 q 729 124 680 160 q 857 89 779 89 q 987 114 937 89 q 1070 161 1036 138 l 1114 69 q 1066 38 1099 58 q 981 2 1034 18 q 857 -14 929 -14 m 513 843 l 645 1042 l 796 1042 l 614 843 l 513 843 z "},"‏":{"ha":0,"x_min":0,"x_max":0,"o":""},"‎":{"ha":0,"x_min":0,"x_max":0,"o":""},"‍":{"ha":0,"x_min":0,"x_max":0,"o":""},"₪":{"ha":1071,"x_min":95,"x_max":976,"o":"m 95 734 l 474 734 q 599 708 547 734 q 681 622 652 682 q 709 460 709 562 l 709 237 l 583 237 l 583 461 q 566 561 583 524 q 517 614 549 598 q 437 631 484 631 l 221 631 l 221 0 l 95 0 l 95 734 m 741 0 l 362 0 l 362 498 l 488 498 l 488 103 l 703 103 q 784 119 751 103 q 833 173 817 136 q 850 273 850 210 l 850 734 l 976 734 l 976 274 q 960 145 976 198 q 912 61 943 93 q 838 15 882 29 q 741 0 795 0 z "},"‌":{"ha":0,"x_min":0,"x_max":0,"o":""},"à":{"ha":755,"x_min":74,"x_max":680,"o":"m 528 125 l 528 503 q 489 607 528 568 q 374 646 450 646 q 291 630 326 646 q 235 587 255 614 q 215 530 215 561 l 90 530 q 125 633 90 583 q 227 715 161 683 q 381 747 292 747 q 523 720 461 747 q 619 638 584 693 q 654 502 654 584 l 654 160 q 660 82 654 123 q 680 11 667 41 l 680 0 l 549 0 q 534 58 539 22 q 528 125 528 94 m 550 445 l 551 357 l 425 357 q 258 323 317 357 q 200 221 200 290 q 235 133 200 169 q 340 96 271 96 q 442 121 398 96 q 512 180 486 145 q 541 249 538 216 l 594 189 q 568 125 589 160 q 512 59 547 91 q 430 7 477 28 q 322 -14 382 -14 q 192 16 248 -14 q 105 94 136 45 q 74 204 74 143 q 163 384 74 322 q 404 445 253 445 l 550 445 m 335 1042 l 466 842 l 358 842 l 183 1042 l 335 1042 z "},"ā":{"ha":755,"x_min":74,"x_max":680,"o":"m 528 125 l 528 503 q 489 607 528 568 q 374 646 450 646 q 291 630 326 646 q 235 587 255 614 q 215 530 215 561 l 90 530 q 125 633 90 583 q 227 715 161 683 q 381 747 292 747 q 523 720 461 747 q 619 638 584 693 q 654 502 654 584 l 654 160 q 660 82 654 123 q 680 11 667 41 l 680 0 l 549 0 q 534 58 539 22 q 528 125 528 94 m 550 445 l 551 357 l 425 357 q 258 323 317 357 q 200 221 200 290 q 235 133 200 169 q 340 96 271 96 q 442 121 398 96 q 512 180 486 145 q 541 249 538 216 l 594 189 q 568 125 589 160 q 512 59 547 91 q 430 7 477 28 q 322 -14 382 -14 q 192 16 248 -14 q 105 94 136 45 q 74 204 74 143 q 163 384 74 322 q 404 445 253 445 l 550 445 m 626 985 l 626 889 l 171 889 l 171 985 l 626 985 z "},"&":{"ha":864,"x_min":69,"x_max":859,"o":"m 278 548 l 426 653 q 492 712 469 682 q 515 793 515 741 q 484 866 515 833 q 396 899 453 899 q 306 859 336 899 q 275 766 275 819 q 308 669 275 720 q 392 560 340 618 l 859 0 l 709 0 l 326 458 q 199 617 249 548 q 149 762 149 686 q 180 892 149 839 q 267 973 211 945 q 397 1001 322 1001 q 522 972 469 1001 q 603 896 574 943 q 631 793 631 849 q 614 708 631 745 q 567 639 597 670 q 497 578 537 608 l 301 432 q 230 363 252 396 q 201 306 208 331 q 195 266 195 281 q 216 178 195 218 q 280 114 237 138 q 388 90 323 90 q 499 116 445 90 q 595 190 553 142 q 664 306 638 239 q 689 456 689 374 l 802 456 q 772 271 802 355 q 681 125 743 187 q 671 111 675 119 q 662 96 668 102 q 537 14 611 41 q 388 -14 463 -14 q 218 22 290 -14 q 108 121 146 58 q 69 266 69 184 q 96 376 69 328 q 170 465 123 423 q 278 548 217 506 z "},"ą":{"ha":755,"x_min":74,"x_max":680,"o":"m 528 125 l 528 503 q 489 607 528 568 q 374 646 450 646 q 291 630 326 646 q 235 587 255 614 q 215 530 215 561 l 90 530 q 125 633 90 583 q 227 715 161 683 q 381 747 292 747 q 523 720 461 747 q 619 638 584 693 q 654 502 654 584 l 654 160 q 660 82 654 123 q 680 11 667 41 l 680 0 l 549 0 q 534 58 539 22 q 528 125 528 94 m 550 445 l 551 357 l 425 357 q 258 323 317 357 q 200 221 200 290 q 235 133 200 169 q 340 96 271 96 q 442 121 398 96 q 512 180 486 145 q 541 249 538 216 l 594 189 q 568 125 589 160 q 512 59 547 91 q 430 7 477 28 q 322 -14 382 -14 q 192 16 248 -14 q 105 94 136 45 q 74 204 74 143 q 163 384 74 322 q 404 445 253 445 l 550 445 m 608 39 l 658 0 q 578 -70 614 -33 q 542 -151 542 -106 q 554 -186 542 -173 q 595 -200 566 -200 q 635 -194 617 -200 q 663 -182 652 -187 l 672 -264 q 629 -284 655 -275 q 563 -294 603 -294 q 470 -261 508 -294 q 433 -165 433 -229 q 451 -92 433 -128 q 507 -23 469 -56 q 608 39 546 10 z "},"≈":{"ha":783,"x_min":68,"x_max":703,"o":"m 70 483 l 69 611 q 146 666 101 646 q 235 686 191 686 q 320 672 290 687 q 394 636 351 658 q 463 602 434 616 q 542 589 492 589 q 628 612 586 589 q 702 675 670 635 l 703 547 q 629 493 671 513 q 543 473 587 473 q 464 487 492 473 q 395 520 435 500 q 321 556 352 542 q 235 570 290 571 q 146 547 191 570 q 70 483 102 524 m 69 200 l 68 328 q 145 382 100 363 q 235 402 191 402 q 320 389 289 404 q 393 353 351 374 q 462 319 433 332 q 541 306 491 306 q 627 329 585 306 q 701 393 669 352 l 702 264 q 628 210 670 229 q 542 190 586 190 q 463 203 492 190 q 394 237 434 216 q 320 273 351 258 q 235 287 289 288 q 146 264 191 287 q 69 200 101 241 z "},"å":{"ha":755,"x_min":74,"x_max":680,"o":"m 528 125 l 528 503 q 489 607 528 568 q 374 646 450 646 q 291 630 326 646 q 235 587 255 614 q 215 530 215 561 l 90 530 q 125 633 90 583 q 227 715 161 683 q 381 747 292 747 q 523 720 461 747 q 619 638 584 693 q 654 502 654 584 l 654 160 q 660 82 654 123 q 680 11 667 41 l 680 0 l 549 0 q 534 58 539 22 q 528 125 528 94 m 550 445 l 551 357 l 425 357 q 258 323 317 357 q 200 221 200 290 q 235 133 200 169 q 340 96 271 96 q 442 121 398 96 q 512 180 486 145 q 541 249 538 216 l 594 189 q 568 125 589 160 q 512 59 547 91 q 430 7 477 28 q 322 -14 382 -14 q 192 16 248 -14 q 105 94 136 45 q 74 204 74 143 q 163 384 74 322 q 404 445 253 445 l 550 445 m 249 963 q 291 1063 249 1021 q 395 1104 333 1104 q 498 1063 456 1104 q 541 963 541 1021 q 498 864 541 903 q 395 825 456 825 q 291 864 333 825 q 249 963 249 903 m 316 963 q 338 909 316 933 q 395 885 360 885 q 451 908 429 885 q 473 963 473 932 q 451 1019 473 995 q 395 1043 429 1043 q 338 1019 360 1043 q 316 963 316 995 z "},"ǻ":{"ha":755,"x_min":74,"x_max":680,"o":"m 528 125 l 528 503 q 489 607 528 568 q 374 646 450 646 q 291 630 326 646 q 235 587 255 614 q 215 530 215 561 l 90 530 q 125 633 90 583 q 227 715 161 683 q 381 747 292 747 q 523 720 461 747 q 619 638 584 693 q 654 502 654 584 l 654 160 q 660 82 654 123 q 680 11 667 41 l 680 0 l 549 0 q 534 58 539 22 q 528 125 528 94 m 550 445 l 551 357 l 425 357 q 258 323 317 357 q 200 221 200 290 q 235 133 200 169 q 340 96 271 96 q 442 121 398 96 q 512 180 486 145 q 541 249 538 216 l 594 189 q 568 125 589 160 q 512 59 547 91 q 430 7 477 28 q 322 -14 382 -14 q 192 16 248 -14 q 105 94 136 45 q 74 204 74 143 q 163 384 74 322 q 404 445 253 445 l 550 445 m 368 981 l 467 1105 l 595 1105 l 446 981 l 368 981 m 281 834 q 315 916 281 884 q 397 947 349 947 q 477 916 444 947 q 511 834 511 884 q 477 754 511 785 q 397 724 444 724 q 315 754 349 724 q 281 834 281 785 m 338 834 q 355 794 338 810 q 397 777 373 777 q 437 794 420 777 q 454 834 454 810 q 437 877 454 860 q 397 894 420 894 q 355 877 373 894 q 338 834 338 860 z "},"^":{"ha":581,"x_min":43,"x_max":535,"o":"m 298 842 l 160 494 l 43 494 l 246 987 l 322 987 l 298 842 m 418 494 l 281 842 l 256 987 l 333 987 l 535 494 l 418 494 z "},"~":{"ha":945,"x_min":89,"x_max":857,"o":"m 753 527 l 857 528 q 828 400 857 458 q 751 308 800 342 q 637 273 701 273 q 533 297 578 273 q 435 367 488 321 q 371 416 400 399 q 308 434 342 434 q 227 397 256 434 q 198 297 198 361 l 89 296 q 117 423 89 367 q 194 512 144 479 q 308 545 243 545 q 414 519 368 545 q 510 450 460 494 q 575 400 547 416 q 637 383 604 383 q 721 423 689 383 q 753 527 753 463 z "},"*":{"ha":598,"x_min":19,"x_max":579,"o":"m 87 480 l 224 667 l 19 728 l 51 830 l 256 755 l 250 988 l 353 988 l 346 751 l 548 826 l 579 722 l 371 661 l 505 477 l 420 414 l 295 609 l 172 418 l 87 480 z "},"@":{"ha":1247,"x_min":71,"x_max":1185,"o":"m 1177 341 q 1158 216 1175 279 q 1109 101 1142 153 q 1025 17 1077 49 q 900 -14 973 -14 q 761 51 806 -14 q 728 224 717 115 l 762 600 l 862 600 l 827 224 q 830 143 823 174 q 850 95 836 112 q 881 73 863 79 q 914 66 898 66 q 1007 103 969 66 q 1065 203 1044 140 q 1090 341 1086 265 q 1054 631 1097 510 q 911 817 1010 752 q 654 882 812 882 q 407 811 512 882 q 243 615 302 741 q 177 324 184 490 q 197 96 171 197 q 278 -76 222 -5 q 417 -185 334 -147 q 608 -222 500 -222 q 729 -208 668 -222 q 832 -170 791 -194 l 858 -247 q 740 -292 810 -277 q 606 -307 669 -307 q 313 -231 434 -307 q 131 -12 192 -154 q 79 324 71 130 q 128 582 85 464 q 246 787 171 699 q 425 922 321 874 q 657 970 529 970 q 950 893 831 970 q 1127 675 1069 817 q 1177 341 1185 534 m 481 283 q 485 175 475 220 q 522 107 496 130 q 587 83 547 83 q 643 101 613 83 q 698 158 672 119 q 741 260 724 197 l 785 212 q 690 43 754 101 q 555 -14 626 -14 q 446 23 489 -14 q 384 127 402 60 q 373 283 365 195 q 427 490 384 403 q 534 624 471 576 q 667 671 597 671 q 782 650 740 671 q 862 600 824 629 l 804 532 q 753 568 785 551 q 677 584 721 584 q 587 550 628 584 q 518 449 545 516 q 481 283 490 382 z "},"ã":{"ha":755,"x_min":74,"x_max":680,"o":"m 528 125 l 528 503 q 489 607 528 568 q 374 646 450 646 q 291 630 326 646 q 235 587 255 614 q 215 530 215 561 l 90 530 q 125 633 90 583 q 227 715 161 683 q 381 747 292 747 q 523 720 461 747 q 619 638 584 693 q 654 502 654 584 l 654 160 q 660 82 654 123 q 680 11 667 41 l 680 0 l 549 0 q 534 58 539 22 q 528 125 528 94 m 550 445 l 551 357 l 425 357 q 258 323 317 357 q 200 221 200 290 q 235 133 200 169 q 340 96 271 96 q 442 121 398 96 q 512 180 486 145 q 541 249 538 216 l 594 189 q 568 125 589 160 q 512 59 547 91 q 430 7 477 28 q 322 -14 382 -14 q 192 16 248 -14 q 105 94 136 45 q 74 204 74 143 q 163 384 74 322 q 404 445 253 445 l 550 445 m 551 1028 l 635 1021 q 616 934 635 971 q 563 876 596 897 q 489 856 530 856 q 432 866 454 856 q 392 888 410 876 q 355 910 374 901 q 307 920 336 920 q 259 899 279 920 q 240 845 240 877 l 155 849 q 175 936 155 899 q 227 995 194 974 q 301 1017 260 1017 q 352 1007 330 1017 q 394 984 374 997 q 435 962 414 972 q 483 952 456 952 q 531 974 511 952 q 551 1028 551 996 z "},"b":{"ha":780,"x_min":95,"x_max":717,"o":"m 95 1042 l 221 1042 l 221 142 l 210 0 l 95 0 l 95 1042 m 717 373 l 717 359 q 683 168 717 252 q 586 35 650 83 q 431 -14 522 -14 q 276 29 338 -14 q 179 150 214 71 q 134 335 144 228 l 134 397 q 179 584 144 506 q 276 705 214 663 q 430 747 338 747 q 586 701 522 747 q 684 569 650 654 q 717 373 717 485 m 591 359 l 591 373 q 572 507 591 446 q 512 605 554 568 q 399 642 470 642 q 316 625 351 642 q 257 582 281 609 q 217 519 233 554 q 195 447 202 484 l 195 283 q 230 192 205 236 q 297 121 255 149 q 400 93 338 93 q 510 129 468 93 q 571 225 552 165 q 591 359 591 286 z "},"\\":{"ha":570,"x_min":28,"x_max":559,"o":"m 440 -85 l 28 987 l 147 987 l 559 -85 l 440 -85 z "},"|":{"ha":339,"x_min":119,"x_max":220,"o":"m 220 987 l 220 -183 l 119 -183 l 119 987 l 220 987 z "},"{":{"ha":470,"x_min":43,"x_max":455,"o":"m 429 1083 l 455 1006 q 344 916 374 981 q 313 768 313 851 l 313 627 q 286 504 313 559 q 199 416 258 449 q 43 384 140 384 l 43 467 q 154 510 120 467 q 187 627 187 553 l 187 768 q 209 901 187 839 q 284 1010 231 963 q 429 1083 336 1057 m 455 -170 l 429 -248 q 284 -175 336 -222 q 209 -66 231 -128 q 187 67 187 -4 l 187 207 q 154 325 187 281 q 43 368 120 368 l 43 451 q 199 418 140 451 q 286 331 258 386 q 313 207 313 275 l 313 67 q 344 -80 313 -16 q 455 -170 375 -144 z "},"}":{"ha":470,"x_min":14,"x_max":425,"o":"m 14 1006 l 40 1083 q 185 1010 133 1057 q 260 901 238 963 q 281 768 281 839 l 281 627 q 315 510 281 553 q 425 467 349 467 l 425 390 q 270 421 330 390 q 183 506 210 452 q 155 627 155 559 l 155 768 q 125 916 155 851 q 14 1006 94 981 m 40 -248 l 14 -170 q 125 -80 94 -144 q 155 67 155 -16 l 155 207 q 183 329 155 275 q 270 413 210 382 q 425 444 330 444 l 425 368 q 315 325 349 368 q 281 207 281 281 l 281 67 q 260 -66 281 -4 q 185 -175 238 -128 q 40 -248 133 -222 z "},"[":{"ha":368,"x_min":106,"x_max":355,"o":"m 355 1025 l 355 1128 l 106 1128 l 106 -212 l 355 -212 l 355 -109 l 225 -109 l 225 1025 l 355 1025 z "},"]":{"ha":368,"x_min":6,"x_max":256,"o":"m 6 1128 l 6 1025 l 137 1025 l 137 -109 l 6 -109 l 6 -212 l 256 -212 l 256 1128 l 6 1128 z "},"˘":{"ha":593,"x_min":88,"x_max":494,"o":"m 392 1014 l 494 1014 q 439 883 494 934 q 292 833 385 833 q 143 883 197 833 q 88 1014 88 934 l 190 1014 q 213 943 190 974 q 292 913 236 913 q 369 943 346 913 q 392 1014 392 974 z "},"¦":{"ha":334,"x_min":100,"x_max":226,"o":"m 226 -183 l 100 -183 l 100 354 l 226 354 l 226 -183 m 226 987 l 226 473 l 100 473 l 100 987 l 226 987 z "},"•":{"ha":469,"x_min":94,"x_max":371,"o":"m 94 496 l 94 524 q 131 621 94 583 q 232 659 168 659 q 334 621 296 659 q 371 524 371 583 l 371 496 q 334 401 371 439 q 233 363 297 363 q 132 401 169 363 q 94 496 94 439 z "},"c":{"ha":727,"x_min":63,"x_max":682,"o":"m 389 90 q 472 108 434 90 q 534 158 510 126 q 562 232 559 191 l 682 232 q 638 111 678 167 q 532 21 597 55 q 389 -14 467 -14 q 207 37 279 -14 q 99 171 134 87 q 63 353 63 254 l 63 381 q 99 563 63 479 q 207 697 134 646 q 389 747 279 747 q 540 712 475 747 q 641 617 604 677 q 682 481 678 557 l 562 481 q 537 564 559 527 q 477 622 515 600 q 389 644 439 644 q 268 605 312 644 q 207 505 224 566 q 189 381 189 445 l 189 353 q 206 228 189 288 q 268 129 224 168 q 389 90 311 90 z "},"ć":{"ha":727,"x_min":63,"x_max":682,"o":"m 389 90 q 472 108 434 90 q 534 158 510 126 q 562 232 559 191 l 682 232 q 638 111 678 167 q 532 21 597 55 q 389 -14 467 -14 q 207 37 279 -14 q 99 171 134 87 q 63 353 63 254 l 63 381 q 99 563 63 479 q 207 697 134 646 q 389 747 279 747 q 540 712 475 747 q 641 617 604 677 q 682 481 678 557 l 562 481 q 537 564 559 527 q 477 622 515 600 q 389 644 439 644 q 268 605 312 644 q 207 505 224 566 q 189 381 189 445 l 189 353 q 206 228 189 288 q 268 129 224 168 q 389 90 311 90 m 292 842 l 424 1042 l 575 1042 l 393 842 l 292 842 z "},"ˇ":{"ha":617,"x_min":96,"x_max":515,"o":"m 202 1041 l 304 926 l 407 1041 l 515 1041 l 515 1034 l 343 848 l 266 848 l 96 1034 l 96 1041 l 202 1041 z "},"č":{"ha":727,"x_min":63,"x_max":682,"o":"m 389 90 q 472 108 434 90 q 534 158 510 126 q 562 232 559 191 l 682 232 q 638 111 678 167 q 532 21 597 55 q 389 -14 467 -14 q 207 37 279 -14 q 99 171 134 87 q 63 353 63 254 l 63 381 q 99 563 63 479 q 207 697 134 646 q 389 747 279 747 q 540 712 475 747 q 641 617 604 677 q 682 481 678 557 l 562 481 q 537 564 559 527 q 477 622 515 600 q 389 644 439 644 q 268 605 312 644 q 207 505 224 566 q 189 381 189 445 l 189 353 q 206 228 189 288 q 268 129 224 168 q 389 90 311 90 m 258 1041 l 361 926 l 463 1041 l 572 1041 l 572 1034 l 399 848 l 322 848 l 153 1034 l 153 1041 l 258 1041 z "},"ç":{"ha":727,"x_min":63,"x_max":682,"o":"m 389 90 q 472 108 434 90 q 534 158 510 126 q 562 232 559 191 l 682 232 q 638 111 678 167 q 532 21 597 55 q 389 -14 467 -14 q 207 37 279 -14 q 99 171 134 87 q 63 353 63 254 l 63 381 q 99 563 63 479 q 207 697 134 646 q 389 747 279 747 q 540 712 475 747 q 641 617 604 677 q 682 481 678 557 l 562 481 q 537 564 559 527 q 477 622 515 600 q 389 644 439 644 q 268 605 312 644 q 207 505 224 566 q 189 381 189 445 l 189 353 q 206 228 189 288 q 268 129 224 168 q 389 90 311 90 m 320 -7 l 410 -7 l 402 -43 q 474 -75 441 -50 q 506 -160 506 -101 q 454 -263 506 -224 q 300 -302 401 -302 l 296 -229 q 352 -222 327 -229 q 393 -201 378 -216 q 408 -162 408 -186 q 382 -116 408 -128 q 299 -98 356 -103 l 320 -7 z "},"ĉ":{"ha":727,"x_min":63,"x_max":682,"o":"m 389 90 q 472 108 434 90 q 534 158 510 126 q 562 232 559 191 l 682 232 q 638 111 678 167 q 532 21 597 55 q 389 -14 467 -14 q 207 37 279 -14 q 99 171 134 87 q 63 353 63 254 l 63 381 q 99 563 63 479 q 207 697 134 646 q 389 747 279 747 q 540 712 475 747 q 641 617 604 677 q 682 481 678 557 l 562 481 q 537 564 559 527 q 477 622 515 600 q 389 644 439 644 q 268 605 312 644 q 207 505 224 566 q 189 381 189 445 l 189 353 q 206 228 189 288 q 268 129 224 168 q 389 90 311 90 m 399 1042 l 568 857 l 568 850 l 463 850 l 361 964 l 260 850 l 157 850 l 157 857 l 323 1042 l 399 1042 z "},"¸":{"ha":345,"x_min":79,"x_max":289,"o":"m 103 0 l 193 0 l 185 -36 q 257 -68 224 -43 q 289 -153 289 -94 q 237 -256 289 -217 q 83 -295 184 -295 l 79 -222 q 135 -216 110 -222 q 176 -194 161 -209 q 191 -155 191 -179 q 165 -109 191 -121 q 82 -92 139 -96 l 103 0 z "},"¢":{"ha":760,"x_min":71,"x_max":690,"o":"m 454 894 l 454 699 l 328 699 l 328 894 l 454 894 m 454 28 l 454 -166 l 328 -166 l 328 28 l 454 28 m 398 90 q 481 108 443 90 q 543 158 519 126 q 571 232 568 191 l 690 232 q 646 111 687 167 q 541 21 606 55 q 398 -14 476 -14 q 215 37 288 -14 q 107 171 142 87 q 71 353 71 254 l 71 381 q 107 563 71 479 q 216 697 143 646 q 398 747 288 747 q 549 712 484 747 q 650 617 613 677 q 690 481 687 557 l 571 481 q 546 564 568 527 q 486 622 524 600 q 398 644 448 644 q 277 605 321 644 q 215 505 233 566 q 197 381 197 445 l 197 353 q 215 228 197 288 q 276 129 233 168 q 398 90 320 90 z "},"ˆ":{"ha":654,"x_min":115,"x_max":526,"o":"m 357 1042 l 526 857 l 526 850 l 421 850 l 319 964 l 218 850 l 115 850 l 115 857 l 281 1042 l 357 1042 z "},":":{"ha":377,"x_min":98,"x_max":279,"o":"m 98 490 q 125 425 98 451 q 189 399 151 399 q 252 426 226 399 q 279 490 279 452 q 252 554 279 527 q 189 581 226 581 q 125 554 151 581 q 98 490 98 527 m 98 91 q 125 26 98 52 q 189 1 151 1 q 252 27 226 1 q 279 91 279 54 q 252 155 279 128 q 189 182 226 182 q 125 155 151 182 q 98 91 98 128 z "},",":{"ha":273,"x_min":20,"x_max":210,"o":"m 210 149 l 210 48 q 178 -82 210 -14 q 91 -197 147 -151 l 20 -148 q 56 -87 41 -118 q 79 -23 71 -56 q 87 46 87 9 l 87 149 l 210 149 z "},"©":{"ha":1091,"x_min":62,"x_max":1025,"o":"m 661 406 l 760 406 q 699 246 760 299 q 534 193 638 193 q 363 266 427 193 q 300 455 300 338 l 300 533 q 363 723 300 650 q 534 795 427 795 q 699 743 638 795 q 760 583 760 690 l 661 583 q 629 680 661 650 q 534 709 597 709 q 459 686 490 709 q 413 624 429 664 q 397 534 397 585 l 397 455 q 432 329 397 378 q 534 279 467 279 q 629 309 597 279 q 661 406 661 338 m 140 494 q 172 326 140 404 q 258 190 203 248 q 387 99 314 132 q 544 66 460 66 q 700 99 627 66 q 828 190 773 132 q 915 326 884 248 q 946 494 946 404 q 915 663 946 585 q 828 798 884 740 q 700 888 773 856 q 544 920 627 920 q 387 888 460 920 q 258 798 314 856 q 172 663 203 740 q 140 494 140 585 m 62 494 q 100 694 62 602 q 203 856 137 787 q 357 963 270 924 q 544 1001 444 1001 q 731 963 644 1001 q 884 856 818 924 q 987 694 950 787 q 1025 494 1025 602 q 987 294 1025 387 q 884 133 950 202 q 731 24 818 63 q 544 -14 644 -14 q 357 24 444 -14 q 203 133 270 63 q 100 294 137 202 q 62 494 62 387 z "},"¤":{"ha":991,"x_min":71,"x_max":930,"o":"m 212 412 q 234 292 212 349 q 296 194 256 236 q 387 127 335 151 q 498 103 439 103 q 610 127 558 103 q 701 194 662 151 q 763 292 741 236 q 785 412 785 349 q 763 532 785 477 q 701 630 741 588 q 610 696 662 673 q 498 720 558 720 q 387 696 439 720 q 296 630 335 673 q 234 532 256 588 q 212 412 212 477 m 95 412 q 126 580 95 503 q 213 715 158 657 q 342 805 269 772 q 498 837 415 837 q 655 805 582 837 q 784 715 728 772 q 871 580 840 657 q 902 412 902 503 q 871 245 902 322 q 784 110 840 168 q 655 19 728 52 q 498 -14 582 -14 q 342 19 415 -14 q 213 110 269 52 q 126 245 158 168 q 95 412 95 322 m 930 765 l 793 625 l 703 718 l 840 858 l 930 765 m 297 122 l 160 -18 l 71 75 l 208 214 l 297 122 m 840 -18 l 703 121 l 793 214 l 930 75 l 840 -18 m 208 625 l 71 765 l 160 857 l 297 718 l 208 625 z "},"d":{"ha":783,"x_min":64,"x_max":684,"o":"m 558 142 l 558 1042 l 684 1042 l 684 0 l 569 0 l 558 142 m 64 359 l 64 373 q 101 569 64 485 q 202 701 137 654 q 355 747 267 747 q 509 705 447 747 q 605 584 570 663 q 650 397 640 506 l 650 335 q 606 150 640 228 q 509 29 571 71 q 353 -14 446 -14 q 202 35 267 -14 q 101 168 137 83 q 64 359 64 252 m 191 373 l 191 359 q 211 225 191 286 q 274 129 231 165 q 385 93 317 93 q 487 119 447 93 q 552 189 528 146 q 590 283 576 233 l 590 447 q 567 519 582 484 q 527 582 551 554 q 468 625 503 609 q 386 642 433 642 q 274 605 317 642 q 211 507 231 568 q 191 373 191 446 z "},"†":{"ha":766,"x_min":47,"x_max":719,"o":"m 445 987 l 445 0 l 319 0 l 319 987 l 445 987 m 719 734 l 719 630 l 47 630 l 47 734 l 719 734 z "},"‡":{"ha":792,"x_min":59,"x_max":730,"o":"m 454 987 l 454 -282 l 329 -282 l 329 987 l 454 987 m 730 734 l 730 630 l 59 630 l 59 734 l 730 734 m 730 103 l 730 0 l 59 0 l 59 103 l 730 103 z "},"ď":{"ha":885,"x_min":64,"x_max":898,"o":"m 558 142 l 558 1042 l 684 1042 l 684 0 l 569 0 l 558 142 m 64 359 l 64 373 q 101 569 64 485 q 202 701 137 654 q 355 747 267 747 q 509 705 447 747 q 605 584 570 663 q 650 397 640 506 l 650 335 q 606 150 640 228 q 509 29 571 71 q 353 -14 446 -14 q 202 35 267 -14 q 101 168 137 83 q 64 359 64 252 m 191 373 l 191 359 q 211 225 191 286 q 274 129 231 165 q 385 93 317 93 q 487 119 447 93 q 552 189 528 146 q 590 283 576 233 l 590 447 q 567 519 582 484 q 527 582 551 554 q 468 625 503 609 q 386 642 433 642 q 274 605 317 642 q 211 507 231 568 q 191 373 191 446 m 898 1043 l 898 989 q 874 874 898 936 q 800 771 850 812 l 728 821 q 766 900 753 859 q 779 988 779 941 l 779 1043 l 898 1043 z "},"đ":{"ha":830,"x_min":64,"x_max":812,"o":"m 558 142 l 558 1042 l 684 1042 l 684 0 l 569 0 l 558 142 m 64 359 l 64 373 q 101 569 64 485 q 202 701 137 654 q 355 747 267 747 q 509 705 447 747 q 605 584 570 663 q 650 397 640 506 l 650 335 q 606 150 640 228 q 509 29 571 71 q 353 -14 446 -14 q 202 35 267 -14 q 101 168 137 83 q 64 359 64 252 m 191 373 l 191 359 q 211 225 191 286 q 274 129 231 165 q 385 93 317 93 q 487 119 447 93 q 552 189 528 146 q 590 283 576 233 l 590 447 q 567 519 582 484 q 527 582 551 554 q 468 625 503 609 q 386 642 433 642 q 274 605 317 642 q 211 507 231 568 q 191 373 191 446 m 812 939 l 812 836 l 380 836 l 380 939 l 812 939 z "},"°":{"ha":519,"x_min":89,"x_max":432,"o":"m 89 825 q 113 913 89 873 q 176 978 136 954 q 262 1002 215 1002 q 347 978 309 1002 q 409 913 386 954 q 432 825 432 873 q 409 738 432 777 q 347 674 386 698 q 262 651 309 651 q 176 674 215 651 q 113 738 136 698 q 89 825 89 777 m 173 825 q 199 763 173 788 q 262 738 225 738 q 323 763 298 738 q 348 825 348 788 q 323 889 348 863 q 262 915 298 915 q 199 889 225 915 q 173 825 173 863 z "},"¨":{"ha":581,"x_min":68,"x_max":509,"o":"m 68 930 q 87 981 68 960 q 142 1002 106 1002 q 198 981 179 1002 q 217 930 217 960 q 198 880 217 901 q 142 859 179 859 q 87 880 106 859 q 68 930 68 901 m 361 928 q 379 980 361 959 q 435 1001 398 1001 q 490 980 471 1001 q 509 928 509 959 q 490 879 509 899 q 435 858 471 858 q 379 879 398 858 q 361 928 361 899 z "},"÷":{"ha":789,"x_min":95,"x_max":694,"o":"m 318 128 q 341 72 318 95 q 397 49 365 49 q 453 72 430 49 q 477 128 477 96 q 453 184 477 161 q 397 208 430 208 q 341 184 365 208 q 318 128 318 161 m 318 577 q 341 521 318 544 q 397 498 365 498 q 453 521 430 498 q 477 577 477 545 q 453 633 477 610 q 397 657 430 657 q 341 633 365 657 q 318 577 318 610 m 95 303 l 694 303 l 694 406 l 95 406 l 95 303 z "},"$":{"ha":781,"x_min":75,"x_max":707,"o":"m 457 1147 l 457 941 l 355 941 l 355 1147 l 457 1147 m 445 40 l 445 -141 l 344 -141 l 344 40 l 445 40 m 581 254 q 562 328 581 295 q 502 387 544 360 q 389 437 460 414 q 242 502 304 464 q 146 596 180 540 q 113 732 113 652 q 149 876 113 816 q 250 969 184 937 q 405 1002 316 1002 q 563 965 497 1002 q 663 858 628 928 q 698 684 698 787 l 573 684 q 530 833 573 774 q 405 892 486 892 q 311 872 348 892 q 256 817 274 852 q 239 734 239 781 q 256 659 239 691 q 316 600 274 626 q 433 549 359 574 q 582 483 521 521 q 675 391 643 446 q 707 256 707 336 q 667 108 707 168 q 557 17 628 48 q 390 -14 486 -14 q 276 1 332 -14 q 174 53 220 17 q 102 147 129 88 q 75 291 75 205 l 201 291 q 217 196 201 233 q 262 136 234 158 q 323 105 290 114 q 390 96 357 96 q 493 115 451 96 q 558 170 536 134 q 581 254 581 206 z "},"˙":{"ha":338,"x_min":96,"x_max":245,"o":"m 96 928 q 115 979 96 958 q 170 1000 134 1000 q 225 979 206 1000 q 245 928 245 958 q 225 877 245 898 q 170 857 206 857 q 115 877 134 857 q 96 928 96 898 z "},"̣":{"ha":0,"x_min":-483,"x_max":-334,"o":"m -483 -167 q -464 -115 -483 -136 q -409 -94 -446 -94 q -354 -115 -373 -94 q -334 -167 -334 -136 q -354 -217 -334 -196 q -409 -237 -373 -237 q -464 -217 -446 -237 q -483 -167 -483 -196 z "},"ı":{"ha":344,"x_min":106,"x_max":231,"o":"m 231 734 l 231 0 l 106 0 l 106 734 l 231 734 z "},"e":{"ha":736,"x_min":63,"x_max":686,"o":"m 400 -14 q 222 32 298 -14 q 105 158 146 77 q 63 341 63 238 l 63 370 q 109 574 63 490 q 228 703 155 659 q 384 747 302 747 q 556 700 489 747 q 654 572 623 653 q 686 388 686 491 l 686 332 l 138 332 l 138 434 l 560 434 l 560 444 q 540 538 557 492 q 486 614 523 585 q 384 644 448 644 q 283 612 327 644 q 214 519 239 581 q 189 370 189 458 l 189 341 q 215 215 189 272 q 290 123 241 157 q 407 89 338 89 q 519 116 473 89 q 600 189 566 143 l 676 128 q 575 30 641 74 q 400 -14 509 -14 z "},"é":{"ha":736,"x_min":63,"x_max":686,"o":"m 400 -14 q 222 32 298 -14 q 105 158 146 77 q 63 341 63 238 l 63 370 q 109 574 63 490 q 228 703 155 659 q 384 747 302 747 q 556 700 489 747 q 654 572 623 653 q 686 388 686 491 l 686 332 l 138 332 l 138 434 l 560 434 l 560 444 q 540 538 557 492 q 486 614 523 585 q 384 644 448 644 q 283 612 327 644 q 214 519 239 581 q 189 370 189 458 l 189 341 q 215 215 189 272 q 290 123 241 157 q 407 89 338 89 q 519 116 473 89 q 600 189 566 143 l 676 128 q 575 30 641 74 q 400 -14 509 -14 m 314 842 l 446 1042 l 597 1042 l 415 842 l 314 842 z "},"ĕ":{"ha":736,"x_min":63,"x_max":686,"o":"m 400 -14 q 222 32 298 -14 q 105 158 146 77 q 63 341 63 238 l 63 370 q 109 574 63 490 q 228 703 155 659 q 384 747 302 747 q 556 700 489 747 q 654 572 623 653 q 686 388 686 491 l 686 332 l 138 332 l 138 434 l 560 434 l 560 444 q 540 538 557 492 q 486 614 523 585 q 384 644 448 644 q 283 612 327 644 q 214 519 239 581 q 189 370 189 458 l 189 341 q 215 215 189 272 q 290 123 241 157 q 407 89 338 89 q 519 116 473 89 q 600 189 566 143 l 676 128 q 575 30 641 74 q 400 -14 509 -14 m 484 1014 l 586 1014 q 532 883 586 934 q 384 833 477 833 q 235 883 290 833 q 180 1014 180 934 l 282 1014 q 305 943 282 974 q 384 913 328 913 q 461 943 438 913 q 484 1014 484 974 z "},"ě":{"ha":736,"x_min":63,"x_max":686,"o":"m 400 -14 q 222 32 298 -14 q 105 158 146 77 q 63 341 63 238 l 63 370 q 109 574 63 490 q 228 703 155 659 q 384 747 302 747 q 556 700 489 747 q 654 572 623 653 q 686 388 686 491 l 686 332 l 138 332 l 138 434 l 560 434 l 560 444 q 540 538 557 492 q 486 614 523 585 q 384 644 448 644 q 283 612 327 644 q 214 519 239 581 q 189 370 189 458 l 189 341 q 215 215 189 272 q 290 123 241 157 q 407 89 338 89 q 519 116 473 89 q 600 189 566 143 l 676 128 q 575 30 641 74 q 400 -14 509 -14 m 280 1041 l 382 926 l 485 1041 l 593 1041 l 593 1034 l 421 848 l 344 848 l 174 1034 l 174 1041 l 280 1041 z "},"ê":{"ha":736,"x_min":63,"x_max":686,"o":"m 400 -14 q 222 32 298 -14 q 105 158 146 77 q 63 341 63 238 l 63 370 q 109 574 63 490 q 228 703 155 659 q 384 747 302 747 q 556 700 489 747 q 654 572 623 653 q 686 388 686 491 l 686 332 l 138 332 l 138 434 l 560 434 l 560 444 q 540 538 557 492 q 486 614 523 585 q 384 644 448 644 q 283 612 327 644 q 214 519 239 581 q 189 370 189 458 l 189 341 q 215 215 189 272 q 290 123 241 157 q 407 89 338 89 q 519 116 473 89 q 600 189 566 143 l 676 128 q 575 30 641 74 q 400 -14 509 -14 m 421 1042 l 589 857 l 589 850 l 485 850 l 383 964 l 282 850 l 179 850 l 179 857 l 345 1042 l 421 1042 z "},"ë":{"ha":736,"x_min":63,"x_max":686,"o":"m 400 -14 q 222 32 298 -14 q 105 158 146 77 q 63 341 63 238 l 63 370 q 109 574 63 490 q 228 703 155 659 q 384 747 302 747 q 556 700 489 747 q 654 572 623 653 q 686 388 686 491 l 686 332 l 138 332 l 138 434 l 560 434 l 560 444 q 540 538 557 492 q 486 614 523 585 q 384 644 448 644 q 283 612 327 644 q 214 519 239 581 q 189 370 189 458 l 189 341 q 215 215 189 272 q 290 123 241 157 q 407 89 338 89 q 519 116 473 89 q 600 189 566 143 l 676 128 q 575 30 641 74 q 400 -14 509 -14 m 165 930 q 184 981 165 960 q 239 1002 203 1002 q 294 981 275 1002 q 313 930 313 960 q 294 880 313 901 q 239 859 275 859 q 184 880 203 859 q 165 930 165 901 m 457 928 q 476 980 457 959 q 531 1001 494 1001 q 586 980 567 1001 q 606 928 606 959 q 586 879 606 899 q 531 858 567 858 q 476 879 494 858 q 457 928 457 899 z "},"ė":{"ha":736,"x_min":63,"x_max":686,"o":"m 400 -14 q 222 32 298 -14 q 105 158 146 77 q 63 341 63 238 l 63 370 q 109 574 63 490 q 228 703 155 659 q 384 747 302 747 q 556 700 489 747 q 654 572 623 653 q 686 388 686 491 l 686 332 l 138 332 l 138 434 l 560 434 l 560 444 q 540 538 557 492 q 486 614 523 585 q 384 644 448 644 q 283 612 327 644 q 214 519 239 581 q 189 370 189 458 l 189 341 q 215 215 189 272 q 290 123 241 157 q 407 89 338 89 q 519 116 473 89 q 600 189 566 143 l 676 128 q 575 30 641 74 q 400 -14 509 -14 m 309 928 q 328 979 309 958 q 383 1000 347 1000 q 438 979 419 1000 q 458 928 458 958 q 438 877 458 898 q 383 857 419 857 q 328 877 347 857 q 309 928 309 898 z "},"è":{"ha":736,"x_min":63,"x_max":686,"o":"m 400 -14 q 222 32 298 -14 q 105 158 146 77 q 63 341 63 238 l 63 370 q 109 574 63 490 q 228 703 155 659 q 384 747 302 747 q 556 700 489 747 q 654 572 623 653 q 686 388 686 491 l 686 332 l 138 332 l 138 434 l 560 434 l 560 444 q 540 538 557 492 q 486 614 523 585 q 384 644 448 644 q 283 612 327 644 q 214 519 239 581 q 189 370 189 458 l 189 341 q 215 215 189 272 q 290 123 241 157 q 407 89 338 89 q 519 116 473 89 q 600 189 566 143 l 676 128 q 575 30 641 74 q 400 -14 509 -14 m 323 1042 l 454 842 l 347 842 l 172 1042 l 323 1042 z "},"…":{"ha":929,"x_min":101,"x_max":859,"o":"m 101 90 q 127 26 101 52 q 191 0 154 0 q 255 26 229 0 q 281 90 281 53 q 255 154 281 127 q 191 181 229 181 q 127 154 154 181 q 101 90 101 127 m 397 90 q 424 26 397 52 q 488 0 450 0 q 551 26 525 0 q 578 90 578 53 q 551 154 578 127 q 488 181 525 181 q 424 154 450 181 q 397 90 397 127 m 679 90 q 705 26 679 52 q 769 0 732 0 q 833 26 806 0 q 859 90 859 53 q 833 154 859 127 q 769 181 806 181 q 705 154 732 181 q 679 90 679 127 z "},"ē":{"ha":736,"x_min":63,"x_max":686,"o":"m 400 -14 q 222 32 298 -14 q 105 158 146 77 q 63 341 63 238 l 63 370 q 109 574 63 490 q 228 703 155 659 q 384 747 302 747 q 556 700 489 747 q 654 572 623 653 q 686 388 686 491 l 686 332 l 138 332 l 138 434 l 560 434 l 560 444 q 540 538 557 492 q 486 614 523 585 q 384 644 448 644 q 283 612 327 644 q 214 519 239 581 q 189 370 189 458 l 189 341 q 215 215 189 272 q 290 123 241 157 q 407 89 338 89 q 519 116 473 89 q 600 189 566 143 l 676 128 q 575 30 641 74 q 400 -14 509 -14 m 614 985 l 614 889 l 159 889 l 159 985 l 614 985 z "},"—":{"ha":1085,"x_min":95,"x_max":990,"o":"m 990 300 l 990 403 l 95 403 l 95 300 l 990 300 z "},"–":{"ha":912,"x_min":95,"x_max":817,"o":"m 817 300 l 817 403 l 95 403 l 95 300 l 817 300 z "},"ŋ":{"ha":787,"x_min":99,"x_max":684,"o":"m 224 577 l 224 0 l 99 0 l 99 734 l 212 734 l 224 577 m 186 391 l 157 389 q 191 574 157 493 q 287 701 224 655 q 436 747 349 747 q 568 718 513 747 q 654 626 624 689 q 684 463 684 564 l 684 -60 q 626 -236 684 -175 q 465 -296 568 -296 q 426 -294 444 -296 q 388 -285 408 -292 l 397 -178 q 432 -184 408 -182 q 465 -186 456 -186 q 534 -155 509 -186 q 559 -60 559 -123 l 559 460 q 540 568 559 528 q 486 625 522 608 q 399 642 450 642 q 302 622 342 642 q 236 568 262 602 q 198 488 210 533 q 186 391 186 442 z "},"ę":{"ha":736,"x_min":63,"x_max":686,"o":"m 400 -14 q 222 32 298 -14 q 105 158 146 77 q 63 341 63 238 l 63 370 q 109 574 63 490 q 228 703 155 659 q 384 747 302 747 q 556 700 489 747 q 654 572 623 653 q 686 388 686 491 l 686 332 l 138 332 l 138 434 l 560 434 l 560 444 q 540 538 557 492 q 486 614 523 585 q 384 644 448 644 q 283 612 327 644 q 214 519 239 581 q 189 370 189 458 l 189 341 q 215 215 189 272 q 290 123 241 157 q 407 89 338 89 q 519 116 473 89 q 600 189 566 143 l 676 128 q 575 30 641 74 q 400 -14 509 -14 m 500 56 l 551 18 q 471 -52 507 -15 q 435 -133 435 -89 q 447 -169 435 -155 q 488 -182 458 -182 q 528 -176 510 -182 q 555 -164 545 -170 l 565 -247 q 522 -267 548 -257 q 456 -277 496 -277 q 363 -244 401 -277 q 326 -147 326 -211 q 343 -75 326 -111 q 400 -5 361 -39 q 500 56 439 28 z "},"=":{"ha":762,"x_min":103,"x_max":669,"o":"m 669 169 l 669 271 l 103 271 l 103 169 l 669 169 m 669 430 l 669 532 l 103 532 l 103 430 l 669 430 z "},"℮":{"ha":884,"x_min":103,"x_max":794,"o":"m 708 134 l 709 64 q 589 7 652 28 q 458 -14 525 -14 q 320 16 385 -14 q 207 98 256 46 q 131 220 158 151 q 103 367 103 289 q 133 514 103 446 q 214 635 163 583 q 329 718 265 688 q 458 747 392 747 q 628 700 551 747 q 749 569 704 652 q 794 380 794 486 q 794 372 794 378 q 794 349 794 366 l 273 349 l 273 126 q 358 72 311 92 q 458 52 406 52 q 585 72 522 52 q 708 134 648 92 m 458 684 q 360 661 408 684 q 273 601 312 639 l 273 413 l 640 413 l 640 607 q 557 663 604 642 q 458 684 511 684 z "},"ð":{"ha":814,"x_min":85,"x_max":726,"o":"m 173 964 l 212 1072 q 480 951 365 1038 q 661 732 596 865 q 726 429 726 600 l 726 363 q 685 166 726 252 q 572 34 644 81 q 408 -14 500 -14 q 240 31 313 -14 q 126 150 168 75 q 85 317 85 225 q 125 499 85 422 q 233 620 164 577 q 389 663 302 663 q 527 627 466 663 q 625 534 589 591 q 661 416 661 477 l 614 416 q 602 464 614 439 q 565 511 589 489 q 505 547 541 533 q 419 560 468 560 q 307 531 353 560 q 236 447 260 501 q 212 317 212 392 q 235 209 212 262 q 302 123 258 157 q 411 90 347 90 q 512 125 469 90 q 577 223 554 161 q 600 363 600 285 l 600 431 q 566 640 600 550 q 473 793 532 729 q 337 900 414 858 q 173 964 260 941 m 670 961 l 306 713 l 256 781 l 621 1028 l 670 961 z "},"!":{"ha":377,"x_min":98,"x_max":279,"o":"m 98 91 q 125 26 98 52 q 189 1 151 1 q 252 27 226 1 q 279 91 279 54 q 252 155 279 128 q 189 182 226 182 q 125 155 151 182 q 98 91 98 128 m 123 937 l 141 297 l 239 297 l 257 937 l 123 937 z "},"‼":{"ha":716,"x_min":98,"x_max":637,"o":"m 98 91 q 125 26 98 52 q 189 1 151 1 q 252 27 226 1 q 279 91 279 54 q 252 155 279 128 q 189 182 226 182 q 125 155 151 182 q 98 91 98 128 m 123 937 l 141 297 l 239 297 l 257 937 l 123 937 m 456 91 q 483 26 456 52 q 547 1 509 1 q 610 27 584 1 q 637 91 637 54 q 610 155 637 128 q 547 182 584 182 q 483 155 509 182 q 456 91 456 128 m 481 937 l 499 297 l 597 297 l 615 937 l 481 937 z "},"¡":{"ha":339,"x_min":94,"x_max":243,"o":"m 106 -245 l 116 464 l 229 464 l 239 -245 l 106 -245 m 243 675 q 224 625 243 646 q 169 604 205 604 q 114 625 133 604 q 94 675 94 646 q 114 726 94 705 q 169 747 133 747 q 224 726 205 747 q 243 675 243 705 z "},"f":{"ha":483,"x_min":41,"x_max":485,"o":"m 283 0 l 157 0 l 157 811 q 221 993 157 930 q 398 1056 286 1056 q 442 1053 420 1056 q 485 1045 464 1050 l 478 943 q 446 947 464 946 q 410 949 428 949 q 316 913 350 949 q 283 811 283 878 l 283 0 m 439 734 l 439 637 l 41 637 l 41 734 l 439 734 z "},"ﬃ":{"ha":1185,"x_min":41,"x_max":1076,"o":"m 283 0 l 157 0 l 157 811 q 221 993 157 930 q 398 1056 286 1056 q 442 1053 420 1056 q 485 1045 464 1050 l 478 943 q 446 947 464 946 q 410 949 428 949 q 316 913 350 949 q 283 811 283 878 l 283 0 m 446 734 l 446 637 l 41 637 l 41 734 l 446 734 m 680 0 l 554 0 l 554 798 q 626 989 554 923 q 822 1056 697 1056 q 918 1044 871 1056 q 1015 1015 965 1032 l 993 909 q 921 932 962 921 q 831 943 880 943 q 715 907 751 943 q 680 798 680 871 l 680 0 m 829 734 l 829 637 l 438 637 l 438 734 l 829 734 m 1076 734 l 1076 0 l 951 0 l 951 734 l 1076 734 z "},"ﬄ":{"ha":1185,"x_min":41,"x_max":1076,"o":"m 283 0 l 157 0 l 157 811 q 221 993 157 930 q 398 1056 286 1056 q 442 1053 420 1056 q 485 1045 464 1050 l 478 943 q 446 947 464 946 q 410 949 428 949 q 316 913 350 949 q 283 811 283 878 l 283 0 m 446 734 l 446 637 l 41 637 l 41 734 l 446 734 m 680 0 l 554 0 l 554 811 q 620 993 554 930 q 805 1056 685 1056 q 880 1050 835 1056 q 976 1034 925 1044 q 1076 1015 1027 1025 l 1018 924 q 902 942 954 936 q 814 949 850 949 q 714 913 749 949 q 680 811 680 878 l 680 0 m 951 0 l 951 1015 l 1076 1015 l 1076 0 l 951 0 m 836 734 l 836 637 l 438 637 l 438 734 l 836 734 z "},"ﬂ":{"ha":789,"x_min":41,"x_max":680,"o":"m 283 0 l 157 0 l 157 811 q 223 993 157 930 q 408 1056 288 1056 q 483 1050 438 1056 q 579 1034 528 1044 q 680 1015 631 1025 l 621 924 q 505 942 557 936 q 418 949 454 949 q 317 913 352 949 q 283 811 283 878 l 283 0 m 554 0 l 554 1015 l 680 1015 l 680 0 l 554 0 m 439 734 l 439 637 l 41 637 l 41 734 l 439 734 z "},"ﬁ":{"ha":770,"x_min":22,"x_max":660,"o":"m 263 0 l 138 0 l 138 798 q 210 989 138 923 q 406 1056 281 1056 q 502 1044 455 1056 q 598 1015 549 1032 l 577 909 q 505 932 546 921 q 415 943 464 943 q 299 907 334 943 q 263 798 263 871 l 263 0 m 413 734 l 413 637 l 22 637 l 22 734 l 413 734 m 660 734 l 660 0 l 534 0 l 534 734 l 660 734 z "},"‒":{"ha":695,"x_min":95,"x_max":600,"o":"m 600 300 l 600 403 l 95 403 l 95 300 l 600 300 z "},"⅝":{"ha":1182,"x_min":68,"x_max":1091,"o":"m 167 686 l 82 707 l 115 979 l 440 979 l 440 890 l 203 890 l 188 774 q 226 787 201 780 q 283 795 252 795 q 418 748 369 795 q 467 619 467 702 q 445 529 467 571 q 379 462 423 488 q 267 437 335 437 q 172 455 217 437 q 99 507 127 473 q 68 591 71 542 l 173 591 q 202 540 176 556 q 267 524 228 524 q 338 551 317 524 q 359 621 359 579 q 333 689 359 663 q 257 715 307 715 q 201 706 220 715 q 167 686 182 696 m 856 847 l 374 75 l 303 120 l 785 892 l 856 847 m 1091 146 q 1034 32 1091 71 q 891 -7 977 -7 q 748 32 806 -7 q 690 146 690 71 q 747 255 690 215 q 890 296 804 296 q 1034 255 977 296 q 1091 146 1091 215 m 985 155 q 959 210 985 190 q 890 230 932 230 q 822 210 848 230 q 797 155 797 190 q 822 99 797 119 q 891 79 848 79 q 959 99 933 79 q 985 155 985 119 m 1078 393 q 1026 292 1078 330 q 891 254 973 254 q 756 292 809 254 q 703 393 703 330 q 756 504 703 466 q 890 543 808 543 q 1025 504 972 543 q 1078 393 1078 466 m 971 387 q 949 437 971 418 q 890 456 928 456 q 831 437 853 456 q 810 387 810 419 q 832 336 810 355 q 891 317 854 317 q 950 336 928 317 q 971 387 971 355 z "},"ƒ":{"ha":473,"x_min":-20,"x_max":475,"o":"m 412 734 l 412 637 l 275 637 l 275 -60 q 217 -236 275 -175 q 56 -296 159 -296 q 18 -294 35 -296 q -20 -285 0 -292 l -10 -184 q 23 -191 0 -189 q 56 -193 47 -193 q 125 -158 100 -193 q 149 -60 149 -123 l 149 637 l 33 637 l 33 734 l 149 734 l 149 811 q 210 993 149 930 q 378 1056 271 1056 q 427 1052 403 1056 q 475 1042 451 1048 l 460 943 q 430 948 448 946 q 393 949 413 949 q 304 913 334 949 q 275 811 275 878 l 275 734 l 412 734 z "},"⁄":{"ha":631,"x_min":41,"x_max":593,"o":"m 593 847 l 111 75 l 41 120 l 523 892 l 593 847 z "},"₣":{"ha":768,"x_min":12,"x_max":726,"o":"m 245 987 l 245 0 l 115 0 l 115 987 l 245 987 m 659 543 l 659 436 l 217 436 l 217 543 l 659 543 m 726 987 l 726 880 l 217 880 l 217 987 l 726 987 m 444 282 l 444 179 l 12 179 l 12 282 l 444 282 z "},"g":{"ha":780,"x_min":66,"x_max":685,"o":"m 571 734 l 685 734 l 685 16 q 646 -150 685 -81 q 536 -254 606 -218 q 374 -290 466 -290 q 285 -278 336 -290 q 185 -238 234 -266 q 102 -162 136 -210 l 168 -87 q 265 -165 214 -143 q 365 -186 315 -186 q 507 -137 454 -186 q 559 9 559 -87 l 559 572 l 571 734 m 66 359 l 66 373 q 101 569 66 485 q 201 701 136 654 q 355 747 266 747 q 476 723 425 747 q 565 653 528 699 q 622 543 601 608 q 651 397 643 479 l 651 335 q 606 150 641 228 q 509 29 572 71 q 354 -14 447 -14 q 201 35 266 -14 q 101 168 136 83 q 66 359 66 252 m 191 373 l 191 359 q 211 225 191 286 q 274 129 231 165 q 385 93 317 93 q 488 119 447 93 q 552 189 528 146 q 590 283 576 233 l 590 447 q 567 519 583 484 q 528 582 552 554 q 469 625 504 609 q 386 642 433 642 q 274 605 317 642 q 211 507 231 568 q 191 373 191 446 z "},"ğ":{"ha":780,"x_min":66,"x_max":685,"o":"m 571 734 l 685 734 l 685 16 q 646 -150 685 -81 q 536 -254 606 -218 q 374 -290 466 -290 q 285 -278 336 -290 q 185 -238 234 -266 q 102 -162 136 -210 l 168 -87 q 265 -165 214 -143 q 365 -186 315 -186 q 507 -137 454 -186 q 559 9 559 -87 l 559 572 l 571 734 m 66 359 l 66 373 q 101 569 66 485 q 201 701 136 654 q 355 747 266 747 q 476 723 425 747 q 565 653 528 699 q 622 543 601 608 q 651 397 643 479 l 651 335 q 606 150 641 228 q 509 29 572 71 q 354 -14 447 -14 q 201 35 266 -14 q 101 168 136 83 q 66 359 66 252 m 191 373 l 191 359 q 211 225 191 286 q 274 129 231 165 q 385 93 317 93 q 488 119 447 93 q 552 189 528 146 q 590 283 576 233 l 590 447 q 567 519 583 484 q 528 582 552 554 q 469 625 504 609 q 386 642 433 642 q 274 605 317 642 q 211 507 231 568 q 191 373 191 446 m 478 1014 l 580 1014 q 526 883 580 934 q 378 833 471 833 q 229 883 283 833 q 174 1014 174 934 l 276 1014 q 299 943 276 974 q 378 913 322 913 q 455 943 432 913 q 478 1014 478 974 z "},"ĝ":{"ha":780,"x_min":66,"x_max":685,"o":"m 571 734 l 685 734 l 685 16 q 646 -150 685 -81 q 536 -254 606 -218 q 374 -290 466 -290 q 285 -278 336 -290 q 185 -238 234 -266 q 102 -162 136 -210 l 168 -87 q 265 -165 214 -143 q 365 -186 315 -186 q 507 -137 454 -186 q 559 9 559 -87 l 559 572 l 571 734 m 66 359 l 66 373 q 101 569 66 485 q 201 701 136 654 q 355 747 266 747 q 476 723 425 747 q 565 653 528 699 q 622 543 601 608 q 651 397 643 479 l 651 335 q 606 150 641 228 q 509 29 572 71 q 354 -14 447 -14 q 201 35 266 -14 q 101 168 136 83 q 66 359 66 252 m 191 373 l 191 359 q 211 225 191 286 q 274 129 231 165 q 385 93 317 93 q 488 119 447 93 q 552 189 528 146 q 590 283 576 233 l 590 447 q 567 519 583 484 q 528 582 552 554 q 469 625 504 609 q 386 642 433 642 q 274 605 317 642 q 211 507 231 568 q 191 373 191 446 m 415 1042 l 583 857 l 583 850 l 479 850 l 377 964 l 276 850 l 173 850 l 173 857 l 339 1042 l 415 1042 z "},"ģ":{"ha":780,"x_min":66,"x_max":685,"o":"m 571 734 l 685 734 l 685 16 q 646 -150 685 -81 q 536 -254 606 -218 q 374 -290 466 -290 q 285 -278 336 -290 q 185 -238 234 -266 q 102 -162 136 -210 l 168 -87 q 265 -165 214 -143 q 365 -186 315 -186 q 507 -137 454 -186 q 559 9 559 -87 l 559 572 l 571 734 m 66 359 l 66 373 q 101 569 66 485 q 201 701 136 654 q 355 747 266 747 q 476 723 425 747 q 565 653 528 699 q 622 543 601 608 q 651 397 643 479 l 651 335 q 606 150 641 228 q 509 29 572 71 q 354 -14 447 -14 q 201 35 266 -14 q 101 168 136 83 q 66 359 66 252 m 191 373 l 191 359 q 211 225 191 286 q 274 129 231 165 q 385 93 317 93 q 488 119 447 93 q 552 189 528 146 q 590 283 576 233 l 590 447 q 567 519 583 484 q 528 582 552 554 q 469 625 504 609 q 386 642 433 642 q 274 605 317 642 q 211 507 231 568 q 191 373 191 446 m 311 850 l 311 938 q 326 1018 311 978 q 362 1090 340 1057 q 406 1141 385 1122 l 478 1085 q 446 1009 455 1044 q 437 932 437 974 l 437 850 l 311 850 z "},"ß":{"ha":826,"x_min":95,"x_max":766,"o":"m 220 754 l 220 0 l 95 0 l 95 754 q 169 978 95 903 q 361 1054 243 1054 q 493 1029 435 1054 q 583 955 550 1005 q 616 825 616 904 q 603 735 616 771 q 573 671 590 699 q 543 617 556 644 q 530 556 530 591 q 553 489 530 519 q 612 433 577 460 q 683 375 648 406 q 743 306 719 345 q 766 215 766 267 q 733 87 766 138 q 640 11 699 36 q 505 -14 581 -14 q 428 -6 469 -14 q 354 12 387 1 q 302 35 320 23 l 331 140 q 400 107 355 125 q 492 89 445 89 q 578 105 545 89 q 626 149 611 121 q 641 209 641 176 q 617 277 641 248 q 558 334 593 307 q 487 392 523 361 q 428 463 452 422 q 404 557 404 503 q 418 629 404 598 q 451 688 433 661 q 484 746 469 715 q 498 814 498 776 q 481 890 498 860 q 435 936 464 920 q 368 951 406 951 q 259 904 298 951 q 220 754 220 856 z "},"`":{"ha":429,"x_min":39,"x_max":321,"o":"m 191 1042 l 321 842 l 214 842 l 39 1042 l 191 1042 z "},"̀":{"ha":0,"x_min":-581,"x_max":-299,"o":"m -430 1042 l -299 842 l -406 842 l -581 1042 l -430 1042 z "},">":{"ha":726,"x_min":92,"x_max":671,"o":"m 574 429 l 92 616 l 92 746 l 671 490 l 671 410 l 574 429 m 92 263 l 575 455 l 671 469 l 671 391 l 92 134 l 92 263 z "},"≥":{"ha":726,"x_min":90,"x_max":671,"o":"m 574 467 l 92 638 l 92 755 l 671 523 l 671 451 l 574 467 m 92 317 l 575 491 l 671 505 l 671 433 l 92 199 l 92 317 m 656 103 l 656 0 l 90 0 l 90 103 l 656 103 z "},"«":{"ha":623,"x_min":69,"x_max":542,"o":"m 302 41 q 206 190 239 128 q 174 307 174 251 q 206 423 174 362 q 302 570 238 484 l 238 633 q 112 456 154 534 q 69 307 69 379 q 112 157 69 234 q 238 -20 154 79 l 302 41 m 542 41 q 446 190 478 128 q 413 307 413 251 q 445 423 413 362 q 542 570 477 484 l 477 633 q 351 457 393 534 q 309 307 309 379 q 351 156 309 234 q 477 -20 393 79 l 542 41 z "},"»":{"ha":623,"x_min":81,"x_max":553,"o":"m 320 41 l 385 -20 q 511 157 469 79 q 553 307 553 234 q 511 456 553 379 q 385 633 469 534 l 320 570 q 416 423 385 484 q 448 307 448 362 q 416 190 448 251 q 320 41 385 128 m 81 41 l 145 -20 q 271 156 229 79 q 313 307 313 234 q 272 457 313 379 q 145 633 230 534 l 81 570 q 177 423 145 484 q 209 307 209 362 q 177 190 209 251 q 81 41 145 128 z "},"‹":{"ha":417,"x_min":73,"x_max":370,"o":"m 370 644 l 193 371 l 73 372 l 73 380 l 273 644 l 370 644 m 193 377 l 370 104 l 273 104 l 73 368 l 73 376 l 193 377 z "},"›":{"ha":417,"x_min":61,"x_max":357,"o":"m 61 104 l 238 376 l 357 376 l 357 367 l 157 104 l 61 104 m 61 644 l 157 644 l 357 380 l 357 371 l 238 370 l 61 644 z "},"h":{"ha":765,"x_min":96,"x_max":673,"o":"m 221 1042 l 221 0 l 96 0 l 96 1042 l 221 1042 m 191 395 l 139 397 q 178 577 140 498 q 282 702 215 656 q 437 747 349 747 q 563 721 510 747 q 644 636 615 694 q 673 481 673 577 l 673 0 l 547 0 l 547 482 q 530 575 547 540 q 480 626 513 610 q 400 642 448 642 q 315 622 353 642 q 249 568 277 602 q 207 489 222 533 q 191 395 191 444 z "},"ħ":{"ha":785,"x_min":1,"x_max":693,"o":"m 241 1042 l 241 0 l 116 0 l 116 1042 l 241 1042 m 212 395 l 159 397 q 198 577 161 498 q 302 702 235 656 q 458 747 369 747 q 583 721 530 747 q 664 636 635 694 q 693 481 693 577 l 693 0 l 567 0 l 567 482 q 550 575 567 540 q 500 626 533 610 q 420 642 468 642 q 335 622 374 642 q 270 568 297 602 q 227 489 242 533 q 212 395 212 444 m 433 939 l 433 836 l 1 836 l 1 939 l 433 939 z "},"ĥ":{"ha":765,"x_min":96,"x_max":673,"o":"m 221 1042 l 221 0 l 96 0 l 96 1042 l 221 1042 m 191 395 l 139 397 q 178 577 140 498 q 282 702 215 656 q 437 747 349 747 q 563 721 510 747 q 644 636 615 694 q 673 481 673 577 l 673 0 l 547 0 l 547 482 q 530 575 547 540 q 480 626 513 610 q 400 642 448 642 q 315 622 353 642 q 249 568 277 602 q 207 489 222 533 q 191 395 191 444 m 378 1259 l 546 1074 l 546 1067 l 441 1067 l 340 1182 l 239 1067 l 136 1067 l 136 1075 l 302 1259 l 378 1259 z "},"̉":{"ha":0,"x_min":-458,"x_max":-248,"o":"m -353 842 l -443 842 l -444 945 q -369 959 -392 949 q -345 996 -345 970 q -360 1027 -345 1015 q -401 1043 -376 1038 q -458 1048 -427 1048 l -453 1120 q -300 1086 -352 1120 q -248 994 -248 1051 q -280 919 -248 942 q -352 890 -313 895 l -353 842 z "},"˝":{"ha":518,"x_min":64,"x_max":551,"o":"m 254 836 l 410 1041 l 551 1041 l 369 836 l 254 836 m 64 836 l 180 1041 l 314 1041 l 166 836 l 64 836 z "},"-":{"ha":648,"x_min":95,"x_max":553,"o":"m 553 300 l 553 403 l 95 403 l 95 300 l 553 300 z "},"‐":{"ha":382,"x_min":95,"x_max":553,"o":"m 553 300 l 553 403 l 95 403 l 95 300 l 553 300 z "},"‧":{"ha":260,"x_min":56,"x_max":204,"o":"m 56 420 q 75 471 56 450 q 130 492 94 492 q 185 471 166 492 q 204 420 204 450 q 185 369 204 390 q 130 349 166 349 q 75 369 94 349 q 56 420 56 390 z "},"‑":{"ha":382,"x_min":95,"x_max":553,"o":"m 553 300 l 553 403 l 95 403 l 95 300 l 553 300 z "},"i":{"ha":338,"x_min":96,"x_max":245,"o":"m 232 734 l 232 0 l 106 0 l 106 734 l 232 734 m 96 928 q 115 980 96 959 q 170 1001 134 1001 q 225 980 206 1001 q 245 928 245 959 q 225 879 245 899 q 170 858 206 858 q 115 879 134 858 q 96 928 96 899 z "},"í":{"ha":344,"x_min":102,"x_max":385,"o":"m 231 734 l 231 0 l 106 0 l 106 734 l 231 734 m 102 841 l 233 1040 l 385 1040 l 203 841 l 102 841 z "},"ĭ":{"ha":344,"x_min":-32,"x_max":374,"o":"m 231 734 l 231 0 l 106 0 l 106 734 l 231 734 m 272 1013 l 374 1013 q 319 882 374 932 q 172 831 265 831 q 23 882 77 831 q -32 1013 -32 932 l 70 1013 q 93 942 70 972 q 172 911 116 911 q 249 942 226 911 q 272 1013 272 972 z "},"î":{"ha":344,"x_min":-33,"x_max":377,"o":"m 231 734 l 231 0 l 106 0 l 106 734 l 231 734 m 209 1040 l 377 855 l 377 848 l 273 848 l 171 963 l 70 848 l -33 848 l -33 856 l 133 1040 l 209 1040 z "},"ï":{"ha":344,"x_min":-47,"x_max":393,"o":"m 231 734 l 231 0 l 106 0 l 106 734 l 231 734 m -47 928 q -28 980 -47 959 q 26 1001 -9 1001 q 82 980 63 1001 q 101 928 101 959 q 82 879 101 899 q 26 858 63 858 q -28 879 -9 858 q -47 928 -47 899 m 245 927 q 263 979 245 958 q 319 1000 282 1000 q 374 979 355 1000 q 393 927 393 958 q 374 877 393 898 q 319 857 355 857 q 263 877 282 857 q 245 927 245 898 z "},"ì":{"ha":344,"x_min":-41,"x_max":242,"o":"m 231 734 l 231 0 l 106 0 l 106 734 l 231 734 m 111 1040 l 242 841 l 134 841 l -41 1040 l 111 1040 z "},"ĳ":{"ha":670,"x_min":96,"x_max":572,"o":"m 232 734 l 232 0 l 106 0 l 106 734 l 232 734 m 96 928 q 115 980 96 959 q 170 1001 134 1001 q 225 980 206 1001 q 245 928 245 959 q 225 879 245 899 q 170 858 206 858 q 115 879 134 858 q 96 928 96 899 m 437 734 l 563 734 l 563 -87 q 515 -242 563 -189 q 371 -296 467 -296 q 331 -293 354 -296 q 293 -285 309 -290 l 294 -184 q 323 -188 307 -186 q 351 -190 339 -190 q 415 -166 393 -190 q 437 -87 437 -143 l 437 734 m 424 928 q 443 980 424 959 q 498 1001 462 1001 q 553 980 534 1001 q 572 928 572 959 q 553 879 572 899 q 498 858 534 858 q 443 879 462 858 q 424 928 424 899 z "},"ī":{"ha":344,"x_min":-53,"x_max":402,"o":"m 231 734 l 231 0 l 106 0 l 106 734 l 231 734 m 402 984 l 402 888 l -53 888 l -53 984 l 402 984 z "},"∞":{"ha":1428,"x_min":67,"x_max":1354,"o":"m 67 357 l 67 376 q 108 559 67 475 q 223 695 149 644 q 395 747 297 747 q 524 719 469 747 q 620 644 579 690 q 687 548 660 599 q 731 453 714 498 q 756 381 747 408 l 756 353 q 731 281 747 326 q 687 185 714 236 q 620 89 660 134 q 525 15 580 43 q 397 -14 469 -14 q 223 38 298 -14 q 108 174 149 90 q 67 357 67 259 m 193 376 l 193 357 q 206 254 193 302 q 245 168 219 205 q 309 110 271 131 q 397 89 347 89 q 483 110 445 89 q 549 165 520 132 q 596 235 577 198 q 627 303 616 271 q 643 353 639 335 l 643 381 q 627 430 639 398 q 596 498 616 461 q 549 568 577 534 q 482 623 520 602 q 395 644 444 644 q 309 623 347 644 q 245 564 271 602 q 206 478 219 527 q 193 376 193 430 m 1354 376 l 1354 357 q 1312 174 1354 259 q 1197 38 1271 90 q 1024 -14 1123 -14 q 896 15 951 -14 q 801 89 841 43 q 733 185 760 134 q 689 281 706 236 q 665 353 673 326 l 665 381 q 690 453 673 408 q 734 548 707 498 q 801 644 761 599 q 897 719 842 690 q 1025 747 952 747 q 1197 695 1124 747 q 1312 559 1271 644 q 1354 376 1354 475 m 1228 357 l 1228 376 q 1215 478 1228 430 q 1175 564 1201 527 q 1112 623 1149 602 q 1025 644 1074 644 q 939 623 977 644 q 872 568 901 602 q 824 498 844 534 q 793 430 804 461 q 777 381 781 398 l 777 353 q 793 303 781 335 q 824 235 804 271 q 872 165 844 198 q 938 110 900 132 q 1024 89 976 89 q 1111 110 1073 89 q 1175 168 1149 131 q 1215 254 1201 205 q 1228 357 1228 302 z "},"∫":{"ha":356,"x_min":-55,"x_max":444,"o":"m 243 -73 q 185 -242 243 -187 q 24 -296 127 -296 q -16 -293 3 -296 q -55 -283 -35 -290 l -42 -184 q -16 -190 -33 -187 q 12 -193 1 -193 q 89 -164 62 -193 q 117 -73 117 -135 l 117 812 q 178 994 117 931 q 347 1056 240 1056 q 395 1052 371 1056 q 444 1042 419 1048 l 428 945 q 401 951 416 949 q 366 953 386 953 q 274 916 306 953 q 243 812 243 879 l 243 -73 z "},"į":{"ha":338,"x_min":-4,"x_max":245,"o":"m 232 734 l 232 0 l 106 0 l 106 734 l 232 734 m 96 928 q 115 980 96 959 q 170 1001 134 1001 q 225 980 206 1001 q 245 928 245 959 q 225 879 245 899 q 170 858 206 858 q 115 879 134 858 q 96 928 96 899 m 171 39 l 221 0 q 141 -70 178 -33 q 105 -151 105 -106 q 117 -186 105 -173 q 158 -200 129 -200 q 198 -194 180 -200 q 226 -182 216 -187 l 235 -264 q 192 -284 218 -275 q 126 -294 166 -294 q 34 -261 71 -294 q -4 -165 -4 -229 q 14 -92 -4 -128 q 71 -23 32 -56 q 171 39 109 10 z "},"ĩ":{"ha":344,"x_min":-68,"x_max":412,"o":"m 231 734 l 231 0 l 106 0 l 106 734 l 231 734 m 327 1027 l 412 1019 q 392 932 412 970 q 339 875 372 895 q 265 854 307 854 q 208 864 231 854 q 168 887 186 874 q 131 909 151 899 q 83 919 112 919 q 36 897 55 919 q 16 844 16 876 l -68 848 q -49 935 -68 897 q 3 994 -30 972 q 77 1015 37 1015 q 129 1005 106 1015 q 170 983 151 996 q 211 961 190 970 q 259 951 232 951 q 307 973 288 951 q 327 1027 327 995 z "},"j":{"ha":332,"x_min":-45,"x_max":235,"o":"m 99 734 l 225 734 l 225 -87 q 177 -242 225 -189 q 33 -296 130 -296 q -6 -293 16 -296 q -45 -285 -29 -290 l -44 -184 q -15 -188 -31 -186 q 14 -190 1 -190 q 77 -166 55 -190 q 99 -87 99 -143 l 99 734 m 86 928 q 105 980 86 959 q 160 1001 124 1001 q 216 980 197 1001 q 235 928 235 959 q 216 879 235 899 q 160 858 197 858 q 105 879 124 858 q 86 928 86 899 z "},"ĵ":{"ha":350,"x_min":-52,"x_max":387,"o":"m 117 734 l 243 734 l 243 -60 q 185 -236 243 -175 q 24 -296 127 -296 q -14 -294 3 -296 q -52 -285 -32 -292 l -42 -184 q -8 -191 -32 -189 q 24 -193 15 -193 q 93 -158 68 -193 q 117 -60 117 -123 l 117 734 m 218 1014 l 387 829 l 387 822 l 282 822 l 180 937 l 79 822 l -24 822 l -24 829 l 142 1014 l 218 1014 z "},"k":{"ha":704,"x_min":96,"x_max":703,"o":"m 222 1042 l 222 0 l 96 0 l 96 1042 l 222 1042 m 670 734 l 350 391 l 171 205 l 161 339 l 289 492 l 517 734 l 670 734 m 555 0 l 294 350 l 359 462 l 703 0 l 555 0 z "},"ķ":{"ha":704,"x_min":96,"x_max":703,"o":"m 222 1042 l 222 0 l 96 0 l 96 1042 l 222 1042 m 670 734 l 350 391 l 171 205 l 161 339 l 289 492 l 517 734 l 670 734 m 555 0 l 294 350 l 359 462 l 703 0 l 555 0 m 418 -30 l 418 -83 q 394 -199 418 -137 q 319 -302 370 -260 l 248 -252 q 286 -173 273 -214 q 298 -85 298 -132 l 298 -30 l 418 -30 z "},"ĸ":{"ha":773,"x_min":105,"x_max":738,"o":"m 231 734 l 231 0 l 105 0 l 105 734 l 231 734 m 713 734 l 351 313 l 189 313 l 170 423 l 293 423 l 562 734 l 713 734 m 579 0 l 287 332 l 368 423 l 738 0 l 579 0 z "},"l":{"ha":338,"x_min":106,"x_max":232,"o":"m 232 1042 l 232 0 l 106 0 l 106 1042 l 232 1042 z "},"ĺ":{"ha":338,"x_min":100,"x_max":382,"o":"m 232 1042 l 232 0 l 106 0 l 106 1042 l 232 1042 m 100 1118 l 231 1318 l 382 1318 l 201 1118 l 100 1118 z "},"ľ":{"ha":439,"x_min":106,"x_max":465,"o":"m 232 1042 l 232 0 l 106 0 l 106 1042 l 232 1042 m 465 1043 l 465 989 q 440 874 465 936 q 366 771 416 812 l 295 821 q 333 900 320 859 q 345 988 345 941 l 345 1043 l 465 1043 z "},"ļ":{"ha":338,"x_min":58,"x_max":232,"o":"m 232 1042 l 232 0 l 106 0 l 106 1042 l 232 1042 m 228 -71 l 228 -125 q 204 -240 228 -178 q 130 -343 180 -302 l 58 -294 q 96 -214 83 -255 q 109 -126 109 -174 l 109 -71 l 228 -71 z "},"ŀ":{"ha":487,"x_min":106,"x_max":457,"o":"m 232 1042 l 232 0 l 106 0 l 106 1042 l 232 1042 m 309 530 q 327 581 309 559 q 382 602 346 602 q 438 581 418 602 q 457 530 457 559 q 438 479 457 500 q 382 458 418 458 q 327 479 346 458 q 309 530 309 500 z "},"<":{"ha":706,"x_min":49,"x_max":604,"o":"m 135 456 l 604 266 l 604 133 l 49 390 l 49 468 l 135 456 m 604 612 l 136 419 l 49 410 l 49 488 l 604 745 l 604 612 z "},"≤":{"ha":706,"x_min":41,"x_max":608,"o":"m 135 479 l 604 307 l 604 186 l 49 420 l 49 491 l 135 479 m 604 621 l 136 446 l 49 438 l 49 509 l 604 742 l 604 621 m 608 104 l 608 1 l 41 1 l 41 104 l 608 104 z "},"₤":{"ha":808,"x_min":62,"x_max":765,"o":"m 765 0 l 64 0 l 64 106 l 765 106 l 765 0 m 295 705 l 310 273 q 292 154 311 209 q 235 71 273 98 l 117 106 q 154 141 140 113 q 174 205 168 169 q 180 272 180 242 l 165 705 q 204 864 165 798 q 312 966 243 930 q 466 1001 380 1001 q 672 928 599 1001 q 746 737 746 855 l 616 737 q 593 829 616 794 q 534 879 570 863 q 455 895 497 895 q 341 845 388 895 q 295 705 295 796 m 536 581 l 536 496 l 62 496 l 62 581 l 536 581 m 536 404 l 536 319 l 62 319 l 62 404 l 536 404 z "},"¬":{"ha":769,"x_min":86,"x_max":650,"o":"m 650 543 l 650 433 l 86 433 l 86 543 l 650 543 m 650 492 l 650 255 l 524 255 l 524 492 l 650 492 z "},"ſ":{"ha":345,"x_min":109,"x_max":436,"o":"m 235 0 l 109 0 l 109 811 q 171 993 109 930 q 338 1056 232 1056 q 387 1052 363 1056 q 436 1042 411 1048 l 420 945 q 393 951 408 949 q 358 953 378 953 q 267 915 298 953 q 235 811 235 878 l 235 0 z "},"◊":{"ha":700,"x_min":30,"x_max":671,"o":"m 30 493 l 301 987 l 385 987 l 373 897 l 159 493 l 377 90 l 387 0 l 304 0 l 30 493 m 327 90 l 541 493 l 323 897 l 314 987 l 397 987 l 671 493 l 399 0 l 316 0 l 327 90 z "},"ł":{"ha":376,"x_min":24,"x_max":355,"o":"m 355 631 l 355 548 l 24 421 l 24 504 l 355 631 m 247 1042 l 247 0 l 121 0 l 121 1042 l 247 1042 z "},"m":{"ha":1218,"x_min":94,"x_max":1124,"o":"m 220 588 l 220 0 l 94 0 l 94 734 l 214 734 l 220 588 m 195 395 l 136 397 q 171 577 137 498 q 270 702 204 656 q 434 747 336 747 q 604 687 537 747 q 671 489 671 627 l 671 0 l 546 0 l 546 483 q 527 575 546 541 q 472 626 507 610 q 389 642 437 642 q 296 622 334 642 q 237 568 259 602 q 204 489 214 533 q 195 395 195 444 m 670 464 l 586 438 q 621 589 587 519 q 719 704 654 660 q 878 747 784 747 q 1011 720 956 747 q 1095 633 1066 692 q 1124 482 1124 575 l 1124 0 l 998 0 l 998 484 q 978 579 998 545 q 924 628 959 614 q 841 642 889 642 q 768 627 800 642 q 714 588 736 613 q 681 532 692 564 q 670 464 670 500 z "},"¯":{"ha":637,"x_min":97,"x_max":552,"o":"m 552 980 l 552 884 l 97 884 l 97 980 l 552 980 z "},"−":{"ha":648,"x_min":95,"x_max":553,"o":"m 553 300 l 553 403 l 95 403 l 95 300 l 553 300 z "},"′":{"ha":243,"x_min":71,"x_max":172,"o":"m 172 1042 l 172 967 l 158 718 l 71 718 l 71 956 l 71 1042 l 172 1042 z "},"µ":{"ha":787,"x_min":105,"x_max":682,"o":"m 557 734 l 682 734 l 682 0 l 569 0 l 557 170 l 557 734 m 579 341 l 626 342 q 601 159 626 240 q 523 32 576 79 q 385 -14 470 -14 q 293 -1 334 -14 q 224 41 253 12 q 176 116 195 70 l 151 312 l 230 312 q 250 171 230 219 q 304 106 271 123 q 380 89 338 89 q 504 121 460 89 q 563 211 547 154 q 579 341 579 268 m 105 734 l 230 734 l 230 -282 l 105 -282 l 105 734 z "},"×":{"ha":697,"x_min":95,"x_max":602,"o":"m 276 349 l 95 165 l 167 90 l 349 275 l 530 90 l 602 165 l 421 349 l 601 533 l 530 608 l 349 423 l 168 608 l 96 533 l 276 349 z "},"n":{"ha":767,"x_min":96,"x_max":673,"o":"m 221 577 l 221 0 l 96 0 l 96 734 l 214 734 l 221 577 m 191 395 l 139 397 q 178 577 140 498 q 282 702 215 656 q 437 747 349 747 q 563 721 510 747 q 644 636 615 694 q 673 481 673 577 l 673 0 l 547 0 l 547 482 q 530 575 547 540 q 480 626 513 610 q 400 642 448 642 q 315 622 353 642 q 249 568 277 602 q 207 489 222 533 q 191 395 191 444 z "},"ń":{"ha":767,"x_min":96,"x_max":673,"o":"m 221 577 l 221 0 l 96 0 l 96 734 l 214 734 l 221 577 m 191 395 l 139 397 q 178 577 140 498 q 282 702 215 656 q 437 747 349 747 q 563 721 510 747 q 644 636 615 694 q 673 481 673 577 l 673 0 l 547 0 l 547 482 q 530 575 547 540 q 480 626 513 610 q 400 642 448 642 q 315 622 353 642 q 249 568 277 602 q 207 489 222 533 q 191 395 191 444 m 319 842 l 451 1042 l 602 1042 l 420 842 l 319 842 z "},"₦":{"ha":1100,"x_min":21,"x_max":1079,"o":"m 1079 638 l 1079 535 l 21 535 l 21 638 l 1079 638 m 1079 435 l 1079 332 l 21 332 l 21 435 l 1079 435 m 927 987 l 927 0 l 796 0 l 299 762 l 299 0 l 168 0 l 168 987 l 299 987 l 798 224 l 798 987 l 927 987 z "},"ŉ":{"ha":767,"x_min":-47,"x_max":673,"o":"m 221 577 l 221 0 l 96 0 l 96 734 l 214 734 l 221 577 m 191 395 l 139 397 q 178 577 140 498 q 282 702 215 656 q 437 747 349 747 q 563 721 510 747 q 644 636 615 694 q 673 481 673 577 l 673 0 l 547 0 l 547 482 q 530 575 547 540 q 480 626 513 610 q 400 642 448 642 q 315 622 353 642 q 249 568 277 602 q 207 489 222 533 q 191 395 191 444 m 123 1045 l 123 991 q 99 876 123 938 q 24 773 75 814 l -47 823 q -9 902 -22 861 q 3 990 3 943 l 3 1045 l 123 1045 z "}," ":{"ha":373,"x_min":0,"x_max":0,"o":""},"ň":{"ha":767,"x_min":96,"x_max":673,"o":"m 221 577 l 221 0 l 96 0 l 96 734 l 214 734 l 221 577 m 191 395 l 139 397 q 178 577 140 498 q 282 702 215 656 q 437 747 349 747 q 563 721 510 747 q 644 636 615 694 q 673 481 673 577 l 673 0 l 547 0 l 547 482 q 530 575 547 540 q 480 626 513 610 q 400 642 448 642 q 315 622 353 642 q 249 568 277 602 q 207 489 222 533 q 191 395 191 444 m 286 1041 l 388 926 l 490 1041 l 599 1041 l 599 1034 l 427 848 l 349 848 l 180 1034 l 180 1041 l 286 1041 z "},"ņ":{"ha":767,"x_min":96,"x_max":673,"o":"m 221 577 l 221 0 l 96 0 l 96 734 l 214 734 l 221 577 m 191 395 l 139 397 q 178 577 140 498 q 282 702 215 656 q 437 747 349 747 q 563 721 510 747 q 644 636 615 694 q 673 481 673 577 l 673 0 l 547 0 l 547 482 q 530 575 547 540 q 480 626 513 610 q 400 642 448 642 q 315 622 353 642 q 249 568 277 602 q 207 489 222 533 q 191 395 191 444 m 441 -71 l 441 -125 q 417 -240 441 -178 q 342 -343 393 -302 l 271 -294 q 309 -214 296 -255 q 321 -126 321 -174 l 321 -71 l 441 -71 z "},"≠":{"ha":762,"x_min":103,"x_max":669,"o":"m 618 799 l 213 106 l 149 146 l 553 839 l 618 799 m 669 661 l 669 552 l 103 552 l 103 661 l 669 661 m 669 380 l 669 271 l 103 271 l 103 380 l 669 380 z "},"ⁿ":{"ha":587,"x_min":83,"x_max":516,"o":"m 198 868 l 198 441 l 83 441 l 83 984 l 170 984 l 198 868 m 182 731 l 151 730 q 174 866 151 807 q 239 960 197 926 q 340 994 281 994 q 468 945 420 994 q 516 786 516 896 l 516 441 l 401 441 l 401 764 q 374 867 401 838 q 302 897 347 897 q 211 849 240 897 q 182 731 182 801 z "},"ñ":{"ha":767,"x_min":96,"x_max":673,"o":"m 221 577 l 221 0 l 96 0 l 96 734 l 214 734 l 221 577 m 191 395 l 139 397 q 178 577 140 498 q 282 702 215 656 q 437 747 349 747 q 563 721 510 747 q 644 636 615 694 q 673 481 673 577 l 673 0 l 547 0 l 547 482 q 530 575 547 540 q 480 626 513 610 q 400 642 448 642 q 315 622 353 642 q 249 568 277 602 q 207 489 222 533 q 191 395 191 444 m 545 1028 l 629 1021 q 610 934 629 971 q 557 876 590 897 q 483 856 524 856 q 426 866 448 856 q 386 888 404 876 q 349 910 368 901 q 301 920 330 920 q 253 899 273 920 q 234 845 234 877 l 149 849 q 169 936 149 899 q 221 995 188 974 q 295 1017 254 1017 q 346 1007 324 1017 q 388 984 368 997 q 429 962 408 972 q 477 952 450 952 q 525 974 505 952 q 545 1028 545 996 z "},"#":{"ha":855,"x_min":81,"x_max":838,"o":"m 189 0 l 381 987 l 479 987 l 286 0 l 189 0 m 465 0 l 658 987 l 755 987 l 562 0 l 465 0 m 838 611 l 132 611 l 132 705 l 838 705 l 838 611 m 787 278 l 81 278 l 81 372 l 787 372 l 787 278 z "},"o":{"ha":792,"x_min":62,"x_max":730,"o":"m 62 359 l 62 374 q 103 565 62 481 q 218 698 144 649 q 395 747 293 747 q 574 698 499 747 q 690 565 649 649 q 730 374 730 481 l 730 359 q 690 169 730 253 q 574 35 649 84 q 397 -14 500 -14 q 219 35 294 -14 q 103 169 144 84 q 62 359 62 253 m 188 374 l 188 359 q 211 225 188 286 q 280 126 234 163 q 397 90 327 90 q 512 126 466 90 q 581 225 558 163 q 604 359 604 286 l 604 374 q 581 508 604 446 q 511 607 557 569 q 395 644 465 644 q 280 607 326 644 q 211 508 234 569 q 188 374 188 446 z "},"ó":{"ha":792,"x_min":62,"x_max":730,"o":"m 62 359 l 62 374 q 103 565 62 481 q 218 698 144 649 q 395 747 293 747 q 574 698 499 747 q 690 565 649 649 q 730 374 730 481 l 730 359 q 690 169 730 253 q 574 35 649 84 q 397 -14 500 -14 q 219 35 294 -14 q 103 169 144 84 q 62 359 62 253 m 188 374 l 188 359 q 211 225 188 286 q 280 126 234 163 q 397 90 327 90 q 512 126 466 90 q 581 225 558 163 q 604 359 604 286 l 604 374 q 581 508 604 446 q 511 607 557 569 q 395 644 465 644 q 280 607 326 644 q 211 508 234 569 q 188 374 188 446 m 321 842 l 452 1042 l 604 1042 l 422 842 l 321 842 z "},"ŏ":{"ha":792,"x_min":62,"x_max":730,"o":"m 62 359 l 62 374 q 103 565 62 481 q 218 698 144 649 q 395 747 293 747 q 574 698 499 747 q 690 565 649 649 q 730 374 730 481 l 730 359 q 690 169 730 253 q 574 35 649 84 q 397 -14 500 -14 q 219 35 294 -14 q 103 169 144 84 q 62 359 62 253 m 188 374 l 188 359 q 211 225 188 286 q 280 126 234 163 q 397 90 327 90 q 512 126 466 90 q 581 225 558 163 q 604 359 604 286 l 604 374 q 581 508 604 446 q 511 607 557 569 q 395 644 465 644 q 280 607 326 644 q 211 508 234 569 q 188 374 188 446 m 491 1014 l 593 1014 q 538 883 593 934 q 391 833 484 833 q 242 883 296 833 q 187 1014 187 934 l 289 1014 q 312 943 289 974 q 391 913 335 913 q 468 943 445 913 q 491 1014 491 974 z "},"ô":{"ha":792,"x_min":62,"x_max":730,"o":"m 62 359 l 62 374 q 103 565 62 481 q 218 698 144 649 q 395 747 293 747 q 574 698 499 747 q 690 565 649 649 q 730 374 730 481 l 730 359 q 690 169 730 253 q 574 35 649 84 q 397 -14 500 -14 q 219 35 294 -14 q 103 169 144 84 q 62 359 62 253 m 188 374 l 188 359 q 211 225 188 286 q 280 126 234 163 q 397 90 327 90 q 512 126 466 90 q 581 225 558 163 q 604 359 604 286 l 604 374 q 581 508 604 446 q 511 607 557 569 q 395 644 465 644 q 280 607 326 644 q 211 508 234 569 q 188 374 188 446 m 428 1042 l 596 857 l 596 850 l 492 850 l 390 964 l 289 850 l 186 850 l 186 857 l 352 1042 l 428 1042 z "},"ö":{"ha":792,"x_min":62,"x_max":730,"o":"m 62 359 l 62 374 q 103 565 62 481 q 218 698 144 649 q 395 747 293 747 q 574 698 499 747 q 690 565 649 649 q 730 374 730 481 l 730 359 q 690 169 730 253 q 574 35 649 84 q 397 -14 500 -14 q 219 35 294 -14 q 103 169 144 84 q 62 359 62 253 m 188 374 l 188 359 q 211 225 188 286 q 280 126 234 163 q 397 90 327 90 q 512 126 466 90 q 581 225 558 163 q 604 359 604 286 l 604 374 q 581 508 604 446 q 511 607 557 569 q 395 644 465 644 q 280 607 326 644 q 211 508 234 569 q 188 374 188 446 m 172 930 q 191 981 172 960 q 245 1002 210 1002 q 301 981 282 1002 q 320 930 320 960 q 301 880 320 901 q 245 859 282 859 q 191 880 210 859 q 172 930 172 901 m 464 928 q 483 980 464 959 q 538 1001 501 1001 q 593 980 574 1001 q 612 928 612 959 q 593 879 612 899 q 538 858 574 858 q 483 879 501 858 q 464 928 464 899 z "},"œ":{"ha":1261,"x_min":66,"x_max":1215,"o":"m 935 -14 q 759 33 834 -14 q 644 163 684 80 q 603 353 603 246 l 603 382 q 647 572 603 490 q 762 702 690 655 q 916 747 833 748 q 1084 706 1017 747 q 1183 590 1150 664 q 1215 420 1215 516 l 1215 338 l 677 338 l 677 440 l 1090 440 l 1090 458 q 1072 550 1090 507 q 1015 618 1053 592 q 916 644 977 644 q 819 609 861 644 q 753 514 777 574 q 729 382 729 455 l 729 353 q 752 220 729 280 q 821 124 775 160 q 935 89 867 89 q 1060 110 1010 89 q 1145 162 1111 132 l 1194 77 q 1098 15 1161 44 q 935 -14 1035 -14 m 66 359 l 66 374 q 105 565 66 481 q 218 698 144 649 q 393 747 291 747 q 570 698 496 747 q 683 565 644 649 q 722 374 722 481 l 722 359 q 683 169 722 253 q 570 35 644 84 q 394 -14 497 -14 q 218 35 292 -14 q 105 169 144 84 q 66 359 66 253 m 192 374 l 192 359 q 214 224 192 286 q 280 126 235 163 q 394 89 324 89 q 508 126 463 89 q 574 224 553 163 q 596 359 596 286 l 596 374 q 574 508 596 446 q 508 607 553 569 q 393 644 463 644 q 279 607 324 644 q 213 508 235 569 q 192 374 192 446 z "},"˛":{"ha":376,"x_min":34,"x_max":273,"o":"m 209 39 l 259 0 q 179 -70 216 -33 q 143 -151 143 -106 q 155 -186 143 -173 q 196 -200 167 -200 q 236 -194 218 -200 q 264 -182 254 -187 l 273 -264 q 230 -284 256 -275 q 164 -294 204 -294 q 72 -261 109 -294 q 34 -165 34 -229 q 52 -92 34 -128 q 109 -23 70 -56 q 209 39 147 10 z "},"ò":{"ha":792,"x_min":62,"x_max":730,"o":"m 62 359 l 62 374 q 103 565 62 481 q 218 698 144 649 q 395 747 293 747 q 574 698 499 747 q 690 565 649 649 q 730 374 730 481 l 730 359 q 690 169 730 253 q 574 35 649 84 q 397 -14 500 -14 q 219 35 294 -14 q 103 169 144 84 q 62 359 62 253 m 188 374 l 188 359 q 211 225 188 286 q 280 126 234 163 q 397 90 327 90 q 512 126 466 90 q 581 225 558 163 q 604 359 604 286 l 604 374 q 581 508 604 446 q 511 607 557 569 q 395 644 465 644 q 280 607 326 644 q 211 508 234 569 q 188 374 188 446 m 330 1042 l 461 842 l 353 842 l 178 1042 l 330 1042 z "},"ơ":{"ha":794,"x_min":62,"x_max":821,"o":"m 720 814 l 821 814 q 773 638 821 703 q 604 574 725 574 l 604 652 q 679 673 654 652 q 712 730 704 693 q 720 814 720 766 m 62 359 l 62 374 q 103 565 62 481 q 218 698 144 649 q 395 747 293 747 q 574 698 499 747 q 689 565 649 649 q 730 374 730 481 l 730 359 q 689 169 730 253 q 574 35 649 84 q 397 -14 500 -14 q 219 35 294 -14 q 103 169 144 84 q 62 359 62 253 m 188 374 l 188 359 q 211 225 188 286 q 280 126 234 163 q 397 90 327 90 q 512 126 466 90 q 581 225 558 163 q 604 359 604 286 l 604 374 q 581 508 604 446 q 511 607 557 569 q 395 644 465 644 q 280 607 326 644 q 211 508 234 569 q 188 374 188 446 z "},"ő":{"ha":792,"x_min":62,"x_max":730,"o":"m 62 359 l 62 374 q 103 565 62 481 q 218 698 144 649 q 395 747 293 747 q 574 698 499 747 q 690 565 649 649 q 730 374 730 481 l 730 359 q 690 169 730 253 q 574 35 649 84 q 397 -14 500 -14 q 219 35 294 -14 q 103 169 144 84 q 62 359 62 253 m 188 374 l 188 359 q 211 225 188 286 q 280 126 234 163 q 397 90 327 90 q 512 126 466 90 q 581 225 558 163 q 604 359 604 286 l 604 374 q 581 508 604 446 q 511 607 557 569 q 395 644 465 644 q 280 607 326 644 q 211 508 234 569 q 188 374 188 446 m 411 836 l 567 1041 l 707 1041 l 526 836 l 411 836 m 221 836 l 336 1041 l 471 1041 l 323 836 l 221 836 z "},"ō":{"ha":792,"x_min":62,"x_max":730,"o":"m 62 359 l 62 374 q 103 565 62 481 q 218 698 144 649 q 395 747 293 747 q 574 698 499 747 q 690 565 649 649 q 730 374 730 481 l 730 359 q 690 169 730 253 q 574 35 649 84 q 397 -14 500 -14 q 219 35 294 -14 q 103 169 144 84 q 62 359 62 253 m 188 374 l 188 359 q 211 225 188 286 q 280 126 234 163 q 397 90 327 90 q 512 126 466 90 q 581 225 558 163 q 604 359 604 286 l 604 374 q 581 508 604 446 q 511 607 557 569 q 395 644 465 644 q 280 607 326 644 q 211 508 234 569 q 188 374 188 446 m 621 985 l 621 889 l 166 889 l 166 985 l 621 985 z "},"⅛":{"ha":1067,"x_min":57,"x_max":989,"o":"m 309 973 l 309 438 l 203 438 l 203 846 l 57 807 l 57 895 l 297 973 l 309 973 m 749 847 l 267 75 l 197 120 l 679 892 l 749 847 m 989 146 q 932 32 989 71 q 789 -7 875 -7 q 646 32 704 -7 q 588 146 588 71 q 645 255 588 215 q 789 296 703 296 q 932 255 876 296 q 989 146 989 215 m 884 155 q 857 210 884 190 q 789 230 831 230 q 721 210 746 230 q 695 155 695 190 q 721 99 695 119 q 789 79 746 79 q 858 99 831 79 q 884 155 884 119 m 977 393 q 924 292 977 330 q 789 254 871 254 q 654 292 707 254 q 602 393 602 330 q 654 504 602 466 q 789 543 707 543 q 923 504 870 543 q 977 393 977 466 m 869 387 q 848 437 869 418 q 789 456 826 456 q 730 437 751 456 q 708 387 708 419 q 730 336 708 355 q 789 317 752 317 q 848 336 827 317 q 869 387 869 355 z "},"½":{"ha":1078,"x_min":54,"x_max":1004,"o":"m 753 852 l 271 81 l 201 125 l 683 897 l 753 852 m 307 985 l 307 450 l 201 450 l 201 858 l 54 819 l 54 907 l 294 985 l 307 985 m 1004 87 l 1004 0 l 599 0 l 599 73 l 794 257 q 858 329 840 299 q 876 381 876 359 q 854 435 876 414 q 792 456 832 456 q 717 430 741 456 q 693 366 693 404 l 586 366 q 610 454 586 414 q 680 518 635 494 q 789 543 726 543 q 932 499 880 543 q 983 382 983 456 q 948 284 983 328 q 853 186 913 240 l 734 87 l 1004 87 z "},"¼":{"ha":1017,"x_min":58,"x_max":967,"o":"m 310 985 l 310 450 l 204 450 l 204 858 l 58 819 l 58 907 l 298 985 l 310 985 m 783 852 l 301 81 l 231 125 l 713 897 l 783 852 m 967 203 l 967 115 l 534 115 l 529 184 l 785 535 l 869 535 l 777 380 l 636 203 l 967 203 m 894 535 l 894 0 l 787 0 l 787 535 l 894 535 z "},"¹":{"ha":509,"x_min":83,"x_max":336,"o":"m 336 987 l 336 452 l 230 452 l 230 860 l 83 821 l 83 909 l 323 987 l 336 987 z "},"ª":{"ha":621,"x_min":100,"x_max":532,"o":"m 404 585 l 404 815 q 382 883 404 859 q 319 906 361 906 q 246 888 273 906 q 219 835 219 870 l 110 844 q 167 957 110 912 q 319 1002 224 1002 q 460 955 407 1002 q 514 814 514 907 l 514 602 q 518 538 514 568 q 532 479 522 509 l 420 479 q 404 585 404 530 m 431 779 l 431 704 l 330 704 q 239 681 269 704 q 210 625 210 657 q 231 579 210 596 q 295 562 252 562 q 354 575 324 562 q 403 608 383 589 q 422 644 422 627 l 435 568 q 403 523 425 546 q 348 485 382 500 q 269 469 315 469 q 143 511 187 469 q 100 623 100 553 q 157 738 100 697 q 330 779 214 779 l 431 779 z "},"º":{"ha":632,"x_min":83,"x_max":547,"o":"m 83 707 l 83 762 q 146 935 83 867 q 315 1002 209 1002 q 485 935 423 1002 q 547 762 547 867 l 547 707 q 486 536 547 603 q 317 469 424 469 q 146 536 209 469 q 83 707 83 603 m 194 762 l 194 707 q 224 604 194 646 q 317 563 254 563 q 407 604 377 563 q 437 707 437 646 l 437 762 q 407 864 437 823 q 315 906 377 906 q 224 864 254 906 q 194 762 194 823 z "},"ø":{"ha":787,"x_min":62,"x_max":730,"o":"m 667 820 l 217 -92 l 134 -92 l 583 820 l 667 820 m 62 359 l 62 374 q 103 565 62 481 q 218 698 144 649 q 395 747 293 747 q 574 698 499 747 q 689 565 649 649 q 730 374 730 481 l 730 359 q 689 169 730 253 q 574 35 649 84 q 397 -14 500 -14 q 219 35 294 -14 q 103 169 144 84 q 62 359 62 253 m 188 374 l 188 359 q 211 225 188 286 q 280 126 234 163 q 397 90 327 90 q 512 126 466 90 q 581 225 558 163 q 604 359 604 286 l 604 374 q 581 508 604 446 q 511 607 557 569 q 395 644 465 644 q 280 607 326 644 q 211 508 234 569 q 188 374 188 446 z "},"ǿ":{"ha":787,"x_min":62,"x_max":730,"o":"m 667 820 l 217 -92 l 134 -92 l 583 820 l 667 820 m 62 359 l 62 374 q 103 565 62 481 q 218 698 144 649 q 395 747 293 747 q 574 698 499 747 q 689 565 649 649 q 730 374 730 481 l 730 359 q 689 169 730 253 q 574 35 649 84 q 397 -14 500 -14 q 219 35 294 -14 q 103 169 144 84 q 62 359 62 253 m 188 374 l 188 359 q 211 225 188 286 q 280 126 234 163 q 397 90 327 90 q 512 126 466 90 q 581 225 558 163 q 604 359 604 286 l 604 374 q 581 508 604 446 q 511 607 557 569 q 395 644 465 644 q 280 607 326 644 q 211 508 234 569 q 188 374 188 446 m 295 842 l 427 1041 l 578 1041 l 396 842 l 295 842 z "},"õ":{"ha":792,"x_min":62,"x_max":730,"o":"m 62 359 l 62 374 q 103 565 62 481 q 218 698 144 649 q 395 747 293 747 q 574 698 499 747 q 690 565 649 649 q 730 374 730 481 l 730 359 q 690 169 730 253 q 574 35 649 84 q 397 -14 500 -14 q 219 35 294 -14 q 103 169 144 84 q 62 359 62 253 m 188 374 l 188 359 q 211 225 188 286 q 280 126 234 163 q 397 90 327 90 q 512 126 466 90 q 581 225 558 163 q 604 359 604 286 l 604 374 q 581 508 604 446 q 511 607 557 569 q 395 644 465 644 q 280 607 326 644 q 211 508 234 569 q 188 374 188 446 m 546 1028 l 631 1021 q 611 934 631 971 q 558 876 591 897 q 484 856 526 856 q 427 866 450 856 q 387 888 405 876 q 350 910 370 901 q 302 920 331 920 q 255 899 274 920 q 235 845 235 877 l 151 849 q 170 936 151 899 q 222 995 189 974 q 296 1017 256 1017 q 348 1007 326 1017 q 389 984 370 997 q 430 962 409 972 q 478 952 451 952 q 526 974 507 952 q 546 1028 546 996 z "},"p":{"ha":780,"x_min":95,"x_max":715,"o":"m 221 593 l 221 -282 l 95 -282 l 95 734 l 210 734 l 221 593 m 715 373 l 715 359 q 682 168 715 252 q 585 35 649 83 q 431 -14 522 -14 q 273 27 337 -14 q 174 143 210 68 q 127 321 138 218 l 127 397 q 174 584 138 506 q 273 705 210 663 q 429 747 336 747 q 585 701 522 747 q 682 569 649 654 q 715 373 715 485 m 589 359 l 589 373 q 569 507 589 446 q 504 605 548 568 q 392 642 460 642 q 310 625 345 642 q 250 582 275 609 q 211 519 226 554 q 188 447 195 484 l 188 271 q 226 182 201 224 q 291 115 250 140 q 393 90 332 90 q 505 126 461 90 q 569 225 548 163 q 589 359 589 286 z "},"¶":{"ha":680,"x_min":46,"x_max":565,"o":"m 565 0 l 439 0 l 439 353 l 380 353 q 197 394 272 353 q 84 507 123 435 q 46 670 46 578 q 84 833 46 761 q 197 946 123 905 q 380 987 272 987 l 565 987 l 565 0 z "},"(":{"ha":475,"x_min":90,"x_max":448,"o":"m 212 401 q 239 651 212 528 q 318 873 266 773 q 448 1031 371 972 l 422 1114 q 286 1001 347 1074 q 181 833 225 928 q 114 627 138 738 q 90 401 90 517 q 114 174 90 285 q 181 -32 138 64 q 286 -199 225 -127 q 422 -313 347 -272 l 448 -230 q 318 -71 371 -171 q 239 151 266 28 q 212 401 212 273 z "},")":{"ha":475,"x_min":26,"x_max":385,"o":"m 263 401 q 236 151 263 273 q 157 -71 210 28 q 26 -230 104 -171 l 52 -313 q 189 -199 127 -272 q 293 -32 250 -127 q 361 174 337 64 q 385 401 385 285 q 361 627 385 517 q 293 833 337 738 q 189 1001 250 928 q 52 1114 127 1074 l 26 1031 q 157 873 104 972 q 236 651 210 773 q 263 401 263 528 z "},"∂":{"ha":792,"x_min":72,"x_max":729,"o":"m 389 693 q 507 667 451 693 q 603 595 564 641 q 556 768 593 695 q 465 880 519 840 q 345 919 410 919 q 277 914 309 919 q 215 901 245 909 q 152 880 184 892 l 141 981 q 195 1003 166 993 q 263 1021 224 1014 q 356 1028 302 1028 q 564 959 481 1028 q 688 763 646 889 q 729 467 729 637 l 729 427 q 690 202 729 302 q 577 44 650 102 q 399 -14 503 -14 q 223 33 296 -14 q 111 161 150 80 q 72 345 72 242 l 72 359 q 110 530 72 455 q 218 649 147 606 q 389 693 289 693 m 401 590 q 286 558 331 590 q 220 473 241 526 q 198 359 198 421 l 198 345 q 220 218 198 276 q 286 124 241 159 q 399 89 330 89 q 515 131 470 89 q 582 243 560 172 q 604 402 604 315 l 604 448 q 587 489 600 465 q 551 536 574 513 q 490 574 527 559 q 401 590 453 590 z "},"%":{"ha":1017,"x_min":71,"x_max":957,"o":"m 71 745 l 71 798 q 96 900 71 854 q 165 974 120 946 q 273 1002 211 1002 q 382 974 337 1002 q 452 900 427 946 q 476 798 476 854 l 476 745 q 452 644 476 690 q 383 570 428 598 q 275 543 338 543 q 166 570 212 543 q 96 644 120 598 q 71 745 71 690 m 165 798 l 165 745 q 177 686 165 714 q 214 641 189 659 q 275 624 238 624 q 335 641 311 624 q 370 686 359 659 q 382 745 382 714 l 382 798 q 370 858 382 829 q 334 903 358 886 q 273 920 310 920 q 213 903 237 920 q 177 858 189 886 q 165 798 165 829 m 552 189 l 552 242 q 576 344 552 298 q 646 418 601 390 q 754 446 692 446 q 863 418 818 446 q 932 344 908 390 q 957 242 957 298 l 957 189 q 933 87 957 134 q 864 14 909 41 q 755 -14 819 -14 q 647 14 692 -14 q 577 87 602 41 q 552 189 552 134 m 646 242 l 646 189 q 658 130 646 158 q 694 84 670 102 q 755 67 719 67 q 816 84 792 67 q 852 130 840 102 q 863 189 863 157 l 863 242 q 837 327 863 290 q 754 364 810 364 q 673 327 700 364 q 646 242 646 290 m 785 847 l 303 75 l 233 120 l 715 892 l 785 847 z "},".":{"ha":377,"x_min":98,"x_max":279,"o":"m 98 90 q 125 26 98 52 q 189 0 151 0 q 252 26 226 0 q 279 90 279 53 q 252 154 279 127 q 189 181 226 181 q 125 154 151 181 q 98 90 98 127 z "},"·":{"ha":363,"x_min":100,"x_max":256,"o":"m 100 494 q 120 548 100 526 q 178 570 140 570 q 236 548 216 570 q 256 494 256 526 q 236 442 256 463 q 178 420 216 420 q 120 442 140 420 q 100 494 100 463 z "},"‰":{"ha":1331,"x_min":46,"x_max":1274,"o":"m 46 745 l 46 798 q 71 900 46 854 q 140 974 95 946 q 248 1002 186 1002 q 357 974 312 1002 q 427 900 403 946 q 451 798 451 854 l 451 745 q 427 644 451 690 q 358 570 403 598 q 250 543 313 543 q 141 570 186 543 q 71 644 96 598 q 46 745 46 690 m 140 798 l 140 745 q 152 686 140 714 q 189 641 164 659 q 250 624 213 624 q 310 641 286 624 q 346 686 334 659 q 357 745 357 714 l 357 798 q 346 858 357 829 q 310 903 334 886 q 248 920 286 920 q 188 903 212 920 q 152 858 164 886 q 140 798 140 829 m 558 189 l 558 242 q 583 344 558 298 q 652 418 607 390 q 760 446 698 446 q 862 418 820 446 q 927 344 905 390 q 950 242 950 298 l 950 189 q 927 87 950 134 q 863 14 905 41 q 762 -14 821 -14 q 653 14 699 -14 q 583 87 608 41 q 558 189 558 134 m 652 242 l 652 189 q 664 130 652 158 q 701 84 676 102 q 762 67 725 67 q 822 84 798 67 q 858 130 846 102 q 869 189 869 157 l 869 242 q 843 327 869 290 q 760 364 816 364 q 679 327 706 364 q 652 242 652 290 m 882 189 l 882 242 q 905 344 882 298 q 970 418 928 390 q 1072 446 1013 446 q 1180 418 1135 446 q 1250 344 1225 390 q 1274 242 1274 298 l 1274 189 q 1250 87 1274 134 q 1181 14 1226 41 q 1073 -14 1136 -14 q 971 14 1014 -14 q 905 87 928 41 q 882 189 882 134 m 963 242 l 963 189 q 975 130 963 158 q 1011 84 987 102 q 1072 67 1036 67 q 1133 84 1109 67 q 1168 130 1156 102 q 1180 189 1180 157 l 1180 242 q 1153 327 1180 290 q 1071 364 1126 364 q 990 327 1017 364 q 963 242 963 290 m 774 847 l 292 75 l 220 120 l 703 892 l 774 847 z "},"₧":{"ha":1140,"x_min":113,"x_max":1044,"o":"m 370 383 l 211 383 l 211 486 l 370 486 q 489 515 448 486 q 543 589 529 543 q 557 684 557 634 q 543 781 557 735 q 489 856 529 827 q 370 884 448 884 l 239 884 l 239 0 l 113 0 l 113 987 l 370 987 q 551 948 481 987 q 652 841 620 909 q 684 686 684 772 q 652 530 684 599 q 551 422 620 462 q 370 383 481 383 m 1040 734 l 1040 637 l 644 637 l 644 734 l 1040 734 m 778 912 l 903 912 l 903 182 q 915 125 903 144 q 945 100 926 106 q 984 94 963 94 q 1017 97 1000 94 q 1043 102 1034 100 l 1044 0 q 1005 -9 1029 -5 q 947 -14 981 -14 q 863 5 901 -14 q 801 66 824 23 q 778 182 778 109 l 778 912 z "},"+":{"ha":745,"x_min":95,"x_max":650,"o":"m 424 301 l 650 301 l 650 404 l 424 404 l 424 637 l 321 637 l 321 404 l 95 404 l 95 301 l 321 301 l 321 49 l 424 49 l 424 301 z "},"±":{"ha":743,"x_min":66,"x_max":687,"o":"m 687 580 l 687 477 l 66 477 l 66 580 l 687 580 m 441 859 l 441 196 l 328 196 l 328 859 l 441 859 m 659 103 l 659 1 l 92 1 l 92 103 l 659 103 z "},"∏":{"ha":965,"x_min":115,"x_max":850,"o":"m 850 987 l 850 -144 l 724 -144 l 724 884 l 241 884 l 241 -144 l 115 -144 l 115 987 l 850 987 z "},"q":{"ha":789,"x_min":64,"x_max":684,"o":"m 557 -282 l 557 593 l 568 734 l 684 734 l 684 -282 l 557 -282 m 64 359 l 64 373 q 99 569 64 485 q 200 701 134 654 q 357 747 265 747 q 512 705 449 747 q 610 584 574 663 q 656 397 646 506 l 656 335 q 611 150 647 228 q 512 29 576 71 q 355 -14 449 -14 q 200 35 265 -14 q 99 168 134 83 q 64 359 64 252 m 191 373 l 191 359 q 211 225 191 286 q 275 126 232 163 q 387 90 319 90 q 491 117 449 90 q 557 188 532 144 q 596 283 583 233 l 596 447 q 573 519 589 484 q 532 583 557 555 q 471 628 507 611 q 388 644 435 644 q 276 607 319 644 q 211 508 232 570 q 191 373 191 446 z "},"?":{"ha":656,"x_min":51,"x_max":602,"o":"m 368 278 l 242 278 q 254 385 243 343 q 291 461 265 427 q 359 540 317 496 q 417 600 391 572 q 459 661 443 628 q 475 740 475 694 q 438 851 475 810 q 330 891 401 891 q 224 859 271 891 q 176 756 177 827 l 51 756 q 89 888 52 833 q 189 972 126 943 q 330 1001 252 1001 q 531 932 460 1001 q 602 743 602 863 q 577 631 602 682 q 513 535 552 580 q 431 450 475 490 q 381 372 394 415 q 368 278 368 328 m 237 63 q 256 115 237 94 q 311 136 275 136 q 366 115 347 136 q 385 63 385 94 q 366 13 385 34 q 311 -8 347 -8 q 256 13 275 -8 q 237 63 237 34 z "},"¿":{"ha":658,"x_min":46,"x_max":603,"o":"m 273 461 l 399 461 q 388 356 399 396 q 352 281 376 315 q 285 202 327 248 q 231 143 256 172 q 189 81 205 115 q 172 0 172 47 q 212 -113 172 -74 q 324 -152 251 -152 q 430 -118 384 -152 q 477 -14 477 -84 l 603 -14 q 565 -146 602 -90 q 466 -232 528 -202 q 324 -262 403 -262 q 119 -194 192 -262 q 46 -4 46 -126 q 71 110 46 58 q 134 208 96 163 q 212 292 172 253 q 250 342 237 316 q 268 398 263 368 q 273 461 273 428 m 405 676 q 386 625 405 646 q 331 604 367 604 q 275 625 294 604 q 256 676 256 646 q 275 727 256 706 q 331 747 294 747 q 386 727 367 747 q 405 676 405 706 z "},"\"":{"ha":445,"x_min":93,"x_max":372,"o":"m 189 1042 l 189 949 l 168 707 l 93 707 l 93 943 l 93 1042 l 189 1042 m 372 1042 l 372 949 l 351 707 l 276 707 l 276 948 l 276 1042 l 372 1042 z "},"„":{"ha":479,"x_min":24,"x_max":415,"o":"m 214 167 l 214 54 q 200 -37 214 10 q 160 -129 186 -85 q 96 -205 134 -172 l 24 -155 q 73 -57 56 -107 q 89 52 89 -7 l 89 167 l 214 167 m 415 167 l 415 54 q 401 -37 415 10 q 361 -129 387 -85 q 297 -205 334 -172 l 225 -155 q 273 -57 257 -107 q 290 52 290 -7 l 290 167 l 415 167 z "},"“":{"ha":491,"x_min":71,"x_max":474,"o":"m 71 728 l 71 810 q 85 896 71 851 q 125 983 99 941 q 189 1055 152 1025 l 260 1006 q 212 914 229 961 q 195 812 195 867 l 195 728 l 71 728 m 285 728 l 285 810 q 299 896 285 851 q 339 983 313 941 q 403 1055 366 1025 l 474 1006 q 426 914 443 961 q 409 812 409 867 l 409 728 l 285 728 z "},"”":{"ha":496,"x_min":41,"x_max":439,"o":"m 231 1042 l 231 955 q 217 869 231 914 q 176 782 203 824 q 113 709 150 741 l 41 759 q 89 851 73 804 q 106 953 106 898 l 106 1042 l 231 1042 m 439 1042 l 439 955 q 425 869 439 914 q 385 782 411 824 q 321 709 358 741 l 249 759 q 297 851 281 804 q 314 953 314 898 l 314 1042 l 439 1042 z "},"‘":{"ha":278,"x_min":66,"x_max":255,"o":"m 66 728 l 66 810 q 80 896 66 851 q 120 983 94 941 q 184 1055 146 1025 l 255 1006 q 207 914 224 961 q 190 812 190 867 l 190 728 l 66 728 z "},"‛":{"ha":278,"x_min":54,"x_max":243,"o":"m 54 1042 l 178 1042 l 178 953 q 195 851 178 898 q 243 759 212 804 l 172 709 q 108 782 135 741 q 67 869 81 824 q 54 955 54 914 l 54 1042 z "},"’":{"ha":278,"x_min":33,"x_max":222,"o":"m 222 1042 l 222 955 q 209 869 222 914 q 168 782 195 824 q 104 709 142 741 l 33 759 q 81 851 64 804 q 98 953 98 898 l 98 1042 l 222 1042 z "},"‚":{"ha":277,"x_min":24,"x_max":214,"o":"m 214 123 l 214 54 q 200 -32 214 13 q 160 -119 186 -77 q 96 -192 134 -161 l 24 -143 q 73 -51 56 -98 q 89 52 89 -3 l 89 123 l 214 123 z "},"'":{"ha":243,"x_min":71,"x_max":172,"o":"m 172 1042 l 172 967 l 158 718 l 71 718 l 71 956 l 71 1042 l 172 1042 z "},"r":{"ha":471,"x_min":96,"x_max":450,"o":"m 221 618 l 221 0 l 96 0 l 96 734 l 218 734 l 221 618 m 450 738 l 450 621 q 420 626 434 625 q 389 627 406 627 q 291 603 330 627 q 230 538 252 579 q 202 444 208 497 l 167 423 q 191 585 167 511 q 265 703 214 659 q 395 747 315 747 q 426 744 408 747 q 450 738 444 741 z "},"ŕ":{"ha":471,"x_min":96,"x_max":490,"o":"m 221 618 l 221 0 l 96 0 l 96 734 l 218 734 l 221 618 m 450 738 l 450 621 q 420 626 434 625 q 389 627 406 627 q 291 603 330 627 q 230 538 252 579 q 202 444 208 497 l 167 423 q 191 585 167 511 q 265 703 214 659 q 395 747 315 747 q 426 744 408 747 q 450 738 444 741 m 208 842 l 339 1042 l 490 1042 l 309 842 l 208 842 z "},"√":{"ha":828,"x_min":43,"x_max":798,"o":"m 371 167 l 669 987 l 798 987 l 431 -1 l 347 -1 l 371 167 m 256 530 l 390 167 l 418 -1 l 335 -1 l 128 530 l 256 530 m 43 427 l 43 530 l 251 530 l 251 427 l 43 427 z "},"ř":{"ha":471,"x_min":68,"x_max":487,"o":"m 221 618 l 221 0 l 96 0 l 96 734 l 218 734 l 221 618 m 450 738 l 450 621 q 420 626 434 625 q 389 627 406 627 q 291 603 330 627 q 230 538 252 579 q 202 444 208 497 l 167 423 q 191 585 167 511 q 265 703 214 659 q 395 747 315 747 q 426 744 408 747 q 450 738 444 741 m 174 1041 l 276 926 l 378 1041 l 487 1041 l 487 1034 l 315 848 l 237 848 l 68 1034 l 68 1041 l 174 1041 z "},"ŗ":{"ha":471,"x_min":56,"x_max":450,"o":"m 221 618 l 221 0 l 96 0 l 96 734 l 218 734 l 221 618 m 450 738 l 450 621 q 420 626 434 625 q 389 627 406 627 q 291 603 330 627 q 230 538 252 579 q 202 444 208 497 l 167 423 q 191 585 167 511 q 265 703 214 659 q 395 747 315 747 q 426 744 408 747 q 450 738 444 741 m 226 -71 l 226 -124 q 202 -239 226 -178 q 127 -342 178 -301 l 56 -293 q 94 -214 81 -254 q 106 -125 106 -173 l 106 -71 l 226 -71 z "},"®":{"ha":1092,"x_min":62,"x_max":1024,"o":"m 561 444 l 413 444 l 412 531 l 549 531 q 625 553 592 532 q 658 613 658 574 q 631 684 658 663 q 535 704 604 704 l 443 704 l 443 215 l 347 215 l 347 790 l 535 790 q 694 747 635 790 q 753 617 753 704 q 715 524 753 562 q 607 467 677 487 q 603 463 605 467 q 598 458 600 458 q 584 449 587 452 q 577 445 581 446 q 561 444 574 444 m 554 444 l 568 505 q 711 461 673 505 q 749 349 749 416 l 749 312 q 752 264 749 287 q 761 226 755 241 l 761 215 l 663 215 q 655 265 656 233 q 654 313 654 298 l 654 348 q 631 421 654 397 q 554 444 608 444 m 140 494 q 171 326 140 404 q 258 190 202 248 q 387 99 313 132 q 543 66 460 66 q 700 99 627 66 q 828 190 772 132 q 914 326 883 248 q 945 494 945 404 q 914 663 945 585 q 828 798 883 740 q 700 888 772 856 q 543 920 627 920 q 387 888 460 920 q 258 798 313 856 q 171 663 202 740 q 140 494 140 585 m 62 494 q 99 694 62 602 q 203 856 136 787 q 356 963 269 924 q 543 1001 444 1001 q 730 963 643 1001 q 883 856 817 924 q 987 694 949 787 q 1024 494 1024 602 q 987 294 1024 387 q 883 133 949 202 q 730 24 817 63 q 543 -14 643 -14 q 356 24 444 -14 q 203 133 269 63 q 99 294 136 202 q 62 494 62 387 z "},"˚":{"ha":465,"x_min":82,"x_max":374,"o":"m 82 956 q 124 1055 82 1014 q 228 1097 166 1097 q 332 1055 290 1097 q 374 956 374 1014 q 332 857 374 896 q 228 817 290 817 q 124 857 166 817 q 82 956 82 896 m 149 956 q 171 902 149 926 q 228 878 193 878 q 284 901 262 878 q 307 956 307 924 q 284 1011 307 987 q 228 1036 262 1036 q 171 1011 193 1036 q 149 956 149 987 z "},"₨":{"ha":1469,"x_min":115,"x_max":1400,"o":"m 115 987 l 441 987 q 630 954 553 987 q 747 853 707 920 q 787 691 787 787 q 760 567 787 623 q 681 472 732 511 q 559 414 630 433 l 522 400 l 215 400 l 214 507 l 446 507 q 563 531 516 507 q 633 598 610 556 q 657 691 657 640 q 606 828 657 777 q 441 880 555 880 l 245 880 l 245 0 l 115 0 l 115 987 m 692 0 l 452 448 l 588 448 l 831 8 l 831 0 l 692 0 m 1275 195 q 1263 245 1275 222 q 1215 288 1251 269 q 1106 321 1179 307 q 965 365 1025 338 q 874 432 906 391 q 842 533 842 473 q 875 640 842 591 q 970 718 909 688 q 1114 747 1031 747 q 1264 716 1202 747 q 1360 633 1326 685 q 1393 518 1393 581 l 1267 518 q 1228 604 1267 564 q 1114 644 1188 644 q 1029 628 1061 644 q 982 588 997 612 q 968 536 968 564 q 981 490 968 509 q 1031 454 995 470 q 1137 423 1067 439 q 1285 374 1227 403 q 1372 304 1343 346 q 1400 204 1400 263 q 1365 91 1400 140 q 1266 14 1330 41 q 1117 -14 1202 -14 q 953 21 1020 -14 q 851 111 886 56 q 817 227 817 165 l 943 227 q 972 145 945 175 q 1039 102 1000 115 q 1117 90 1078 90 q 1203 103 1168 90 q 1257 140 1238 117 q 1275 195 1275 164 z "},"s":{"ha":717,"x_min":64,"x_max":648,"o":"m 523 195 q 511 245 523 222 q 463 288 499 269 q 354 321 427 307 q 213 365 273 338 q 122 432 154 391 q 90 533 90 473 q 123 640 90 591 q 218 718 157 688 q 361 747 279 747 q 512 716 450 747 q 608 633 574 685 q 641 518 641 581 l 515 518 q 476 604 515 564 q 361 644 436 644 q 277 628 309 644 q 230 588 245 612 q 216 536 216 564 q 229 490 216 509 q 279 454 243 470 q 385 423 315 439 q 533 374 475 403 q 620 304 591 346 q 648 204 648 263 q 613 91 648 140 q 514 14 578 41 q 365 -14 450 -14 q 201 21 268 -14 q 99 111 134 56 q 64 227 64 165 l 191 227 q 220 145 193 175 q 287 102 248 115 q 365 90 326 90 q 451 103 416 90 q 505 140 486 117 q 523 195 523 164 z "},"ś":{"ha":717,"x_min":64,"x_max":648,"o":"m 523 195 q 511 245 523 222 q 463 288 499 269 q 354 321 427 307 q 213 365 273 338 q 122 432 154 391 q 90 533 90 473 q 123 640 90 591 q 218 718 157 688 q 361 747 279 747 q 512 716 450 747 q 608 633 574 685 q 641 518 641 581 l 515 518 q 476 604 515 564 q 361 644 436 644 q 277 628 309 644 q 230 588 245 612 q 216 536 216 564 q 229 490 216 509 q 279 454 243 470 q 385 423 315 439 q 533 374 475 403 q 620 304 591 346 q 648 204 648 263 q 613 91 648 140 q 514 14 578 41 q 365 -14 450 -14 q 201 21 268 -14 q 99 111 134 56 q 64 227 64 165 l 191 227 q 220 145 193 175 q 287 102 248 115 q 365 90 326 90 q 451 103 416 90 q 505 140 486 117 q 523 195 523 164 m 312 842 l 444 1042 l 595 1042 l 413 842 l 312 842 z "},"š":{"ha":717,"x_min":64,"x_max":648,"o":"m 523 195 q 511 245 523 222 q 463 288 499 269 q 354 321 427 307 q 213 365 273 338 q 122 432 154 391 q 90 533 90 473 q 123 640 90 591 q 218 718 157 688 q 361 747 279 747 q 512 716 450 747 q 608 633 574 685 q 641 518 641 581 l 515 518 q 476 604 515 564 q 361 644 436 644 q 277 628 309 644 q 230 588 245 612 q 216 536 216 564 q 229 490 216 509 q 279 454 243 470 q 385 423 315 439 q 533 374 475 403 q 620 304 591 346 q 648 204 648 263 q 613 91 648 140 q 514 14 578 41 q 365 -14 450 -14 q 201 21 268 -14 q 99 111 134 56 q 64 227 64 165 l 191 227 q 220 145 193 175 q 287 102 248 115 q 365 90 326 90 q 451 103 416 90 q 505 140 486 117 q 523 195 523 164 m 278 1041 l 380 926 l 483 1041 l 591 1041 l 591 1034 l 419 848 l 342 848 l 172 1034 l 172 1041 l 278 1041 z "},"ş":{"ha":717,"x_min":64,"x_max":648,"o":"m 523 195 q 511 245 523 222 q 463 288 499 269 q 354 321 427 307 q 213 365 273 338 q 122 432 154 391 q 90 533 90 473 q 123 640 90 591 q 218 718 157 688 q 361 747 279 747 q 512 716 450 747 q 608 633 574 685 q 641 518 641 581 l 515 518 q 476 604 515 564 q 361 644 436 644 q 277 628 309 644 q 230 588 245 612 q 216 536 216 564 q 229 490 216 509 q 279 454 243 470 q 385 423 315 439 q 533 374 475 403 q 620 304 591 346 q 648 204 648 263 q 613 91 648 140 q 514 14 578 41 q 365 -14 450 -14 q 201 21 268 -14 q 99 111 134 56 q 64 227 64 165 l 191 227 q 220 145 193 175 q 287 102 248 115 q 365 90 326 90 q 451 103 416 90 q 505 140 486 117 q 523 195 523 164 m 340 -7 l 430 -7 l 422 -43 q 493 -75 461 -50 q 526 -160 526 -101 q 473 -263 526 -224 q 320 -302 421 -302 l 315 -229 q 372 -222 347 -229 q 413 -201 397 -216 q 428 -162 428 -186 q 402 -116 428 -128 q 319 -98 376 -103 l 340 -7 z "},"ə":{"ha":732,"x_min":67,"x_max":680,"o":"m 347 749 q 524 701 449 749 q 639 571 598 654 q 680 382 680 488 l 680 352 q 635 162 680 245 q 520 33 591 80 q 366 -13 449 -14 q 199 29 265 -13 q 100 145 132 71 q 67 314 67 218 l 67 397 l 605 397 l 605 294 l 193 294 l 193 277 q 211 185 193 228 q 268 116 229 142 q 366 90 307 90 q 463 125 421 90 q 529 220 505 160 q 553 352 553 279 l 553 382 q 530 514 553 454 q 461 610 507 574 q 347 646 415 646 q 222 624 273 646 q 138 572 172 603 l 88 658 q 185 720 122 690 q 347 749 248 749 z "},"ŝ":{"ha":717,"x_min":64,"x_max":648,"o":"m 523 195 q 511 245 523 222 q 463 288 499 269 q 354 321 427 307 q 213 365 273 338 q 122 432 154 391 q 90 533 90 473 q 123 640 90 591 q 218 718 157 688 q 361 747 279 747 q 512 716 450 747 q 608 633 574 685 q 641 518 641 581 l 515 518 q 476 604 515 564 q 361 644 436 644 q 277 628 309 644 q 230 588 245 612 q 216 536 216 564 q 229 490 216 509 q 279 454 243 470 q 385 423 315 439 q 533 374 475 403 q 620 304 591 346 q 648 204 648 263 q 613 91 648 140 q 514 14 578 41 q 365 -14 450 -14 q 201 21 268 -14 q 99 111 134 56 q 64 227 64 165 l 191 227 q 220 145 193 175 q 287 102 248 115 q 365 90 326 90 q 451 103 416 90 q 505 140 486 117 q 523 195 523 164 m 419 1042 l 587 857 l 587 850 l 483 850 l 381 964 l 280 850 l 177 850 l 177 857 l 343 1042 l 419 1042 z "},"″":{"ha":445,"x_min":93,"x_max":372,"o":"m 189 1042 l 189 949 l 168 707 l 93 707 l 93 943 l 93 1042 l 189 1042 m 372 1042 l 372 949 l 351 707 l 276 707 l 276 948 l 276 1042 l 372 1042 z "},"§":{"ha":852,"x_min":62,"x_max":777,"o":"m 474 73 l 474 153 q 605 192 558 153 q 651 290 651 231 q 629 362 651 333 q 554 416 607 391 q 409 469 502 441 q 241 529 311 496 q 134 616 171 563 q 96 753 96 669 q 137 884 96 829 q 252 971 178 940 q 428 1002 327 1002 q 672 926 583 1002 q 761 709 761 851 l 635 709 q 611 805 635 762 q 541 873 587 848 q 428 899 495 899 q 272 856 321 899 q 222 755 222 814 q 241 681 222 709 q 312 629 260 652 q 458 580 363 606 q 631 517 559 552 q 739 430 702 483 q 777 292 777 377 q 694 131 777 189 q 474 73 612 73 m 356 593 l 356 511 q 231 472 271 511 q 191 375 191 433 q 211 300 191 330 q 283 247 231 271 q 432 197 335 224 q 602 135 532 168 q 709 50 672 102 q 746 -87 746 -3 q 656 -271 746 -205 q 416 -336 566 -336 q 288 -321 351 -336 q 173 -272 224 -306 q 92 -182 122 -238 q 62 -43 62 -125 l 187 -42 q 208 -133 187 -96 q 261 -191 228 -170 q 335 -223 295 -213 q 416 -233 376 -233 q 567 -191 513 -233 q 621 -89 621 -150 q 599 -18 621 -47 q 526 34 578 10 q 382 85 474 58 q 213 147 283 113 q 104 236 142 182 q 66 374 66 290 q 144 533 66 473 q 356 593 223 593 z "},";":{"ha":294,"x_min":28,"x_max":256,"o":"m 75 689 q 102 625 75 650 q 165 599 128 599 q 229 625 203 599 q 256 689 256 652 q 229 753 256 726 q 165 780 203 780 q 102 753 128 780 q 75 689 75 726 m 218 149 l 218 48 q 186 -82 218 -14 q 99 -197 155 -151 l 28 -148 q 64 -87 50 -118 q 87 -23 79 -56 q 95 46 95 9 l 95 149 l 218 149 z "},"⅞":{"ha":1114,"x_min":61,"x_max":1040,"o":"m 481 979 l 481 918 l 243 444 l 131 444 l 368 892 l 61 892 l 61 979 l 481 979 m 789 847 l 307 75 l 236 120 l 718 892 l 789 847 m 1040 146 q 982 32 1040 71 q 840 -7 925 -7 q 696 32 754 -7 q 638 146 638 71 q 695 255 638 215 q 839 296 753 296 q 983 255 926 296 q 1040 146 1040 215 m 934 155 q 907 210 934 190 q 839 230 881 230 q 771 210 796 230 q 745 155 745 190 q 771 99 745 119 q 840 79 796 79 q 908 99 882 79 q 934 155 934 119 m 1027 393 q 974 292 1027 330 q 840 254 922 254 q 705 292 758 254 q 652 393 652 330 q 704 504 652 466 q 839 543 757 543 q 974 504 920 543 q 1027 393 1027 466 m 920 387 q 898 437 920 418 q 839 456 876 456 q 780 437 802 456 q 758 387 758 419 q 780 336 758 355 q 840 317 802 317 q 898 336 877 317 q 920 387 920 355 z "},"/":{"ha":572,"x_min":12,"x_max":532,"o":"m 120 -85 l 532 987 l 425 987 l 12 -85 l 120 -85 z "}," ":{"ha":373,"x_min":0,"x_max":0,"o":""},"£":{"ha":808,"x_min":62,"x_max":765,"o":"m 765 0 l 64 0 l 64 106 l 765 106 l 765 0 m 517 422 l 62 422 l 62 529 l 517 529 l 517 422 m 295 705 l 310 273 q 292 154 311 209 q 235 71 273 98 l 117 106 q 154 141 140 113 q 174 205 168 169 q 180 272 180 242 l 165 705 q 204 864 165 798 q 312 966 243 930 q 466 1001 380 1001 q 672 928 599 1001 q 746 737 746 855 l 616 737 q 593 829 616 794 q 534 879 570 863 q 455 895 497 895 q 341 845 388 895 q 295 705 295 796 z "},"∑":{"ha":813,"x_min":47,"x_max":811,"o":"m 811 -80 l 811 -182 l 97 -182 l 97 -80 l 811 -80 m 759 987 l 759 885 l 74 885 l 74 987 l 759 987 m 593 408 l 593 391 l 114 -182 l 47 -182 l 47 -86 l 460 400 l 47 890 l 47 987 l 114 987 l 593 408 z "},"t":{"ha":454,"x_min":6,"x_max":406,"o":"m 403 734 l 403 637 l 6 637 l 6 734 l 403 734 m 140 912 l 266 912 l 266 182 q 277 125 266 144 q 307 100 289 106 q 347 94 326 94 q 379 97 362 94 q 406 102 397 100 l 406 0 q 367 -9 391 -5 q 309 -14 343 -14 q 224 5 263 -14 q 163 66 186 23 q 140 182 140 109 l 140 912 z "},"ŧ":{"ha":454,"x_min":-8,"x_max":424,"o":"m 403 734 l 403 637 l 6 637 l 6 734 l 403 734 m 140 912 l 266 912 l 266 182 q 277 125 266 144 q 307 100 289 106 q 347 94 326 94 q 379 97 362 94 q 406 102 397 100 l 406 0 q 367 -9 391 -5 q 309 -14 343 -14 q 224 5 263 -14 q 163 66 186 23 q 140 182 140 109 l 140 912 m 424 511 l 424 408 l -8 408 l -8 511 l 424 511 z "},"ť":{"ha":481,"x_min":6,"x_max":507,"o":"m 403 734 l 403 637 l 6 637 l 6 734 l 403 734 m 140 912 l 266 912 l 266 182 q 277 125 266 144 q 307 100 289 106 q 347 94 326 94 q 379 97 362 94 q 406 102 397 100 l 406 0 q 367 -9 391 -5 q 309 -14 343 -14 q 224 5 263 -14 q 163 66 186 23 q 140 182 140 109 l 140 912 m 507 1124 l 507 1071 q 483 956 507 1017 q 409 852 459 894 l 338 902 q 375 981 363 941 q 388 1069 388 1022 l 388 1124 l 507 1124 z "},"þ":{"ha":800,"x_min":101,"x_max":722,"o":"m 227 1042 l 227 -282 l 101 -282 l 101 1042 l 227 1042 m 722 373 l 722 359 q 688 168 722 252 q 591 35 655 83 q 437 -14 528 -14 q 279 27 343 -14 q 180 143 216 68 q 133 321 144 218 l 133 397 q 180 584 144 506 q 279 705 216 663 q 435 747 342 747 q 591 701 528 747 q 688 569 655 654 q 722 373 722 485 m 595 359 l 595 373 q 575 507 595 446 q 510 605 554 568 q 398 642 467 642 q 316 625 351 642 q 256 582 281 609 q 217 519 232 554 q 194 447 201 484 l 194 271 q 232 182 208 224 q 297 115 256 140 q 399 90 338 90 q 511 126 467 90 q 575 225 554 163 q 595 359 595 286 z "},"⅜":{"ha":1187,"x_min":68,"x_max":1098,"o":"m 206 759 l 263 759 q 337 780 313 759 q 362 833 362 800 q 340 883 362 863 q 272 903 319 903 q 208 886 233 903 q 182 840 182 869 l 76 840 q 102 920 76 886 q 172 972 127 954 q 270 990 216 990 q 414 951 359 990 q 469 838 469 913 q 447 772 469 802 q 383 724 425 742 q 281 706 341 706 l 206 706 l 206 759 m 206 681 l 206 734 l 281 734 q 393 718 349 734 q 457 671 436 701 q 478 597 478 640 q 419 481 478 522 q 271 440 359 440 q 173 457 220 440 q 98 509 127 473 q 68 599 68 544 l 175 599 q 202 548 175 568 q 274 527 229 527 q 346 548 321 527 q 371 602 371 569 q 342 663 371 645 q 263 681 313 681 l 206 681 m 879 847 l 397 75 l 326 120 l 808 892 l 879 847 m 1098 146 q 1041 32 1098 71 q 898 -7 983 -7 q 754 32 812 -7 q 696 146 696 71 q 754 255 696 215 q 897 296 811 296 q 1041 255 984 296 q 1098 146 1098 215 m 992 155 q 966 210 992 190 q 897 230 939 230 q 829 210 854 230 q 804 155 804 190 q 829 99 804 119 q 898 79 854 79 q 966 99 940 79 q 992 155 992 119 m 1085 393 q 1033 292 1085 330 q 898 254 980 254 q 763 292 816 254 q 710 393 710 330 q 763 504 710 466 q 897 543 815 543 q 1032 504 979 543 q 1085 393 1085 466 m 978 387 q 956 437 978 418 q 897 456 935 456 q 838 437 860 456 q 817 387 817 419 q 839 336 817 355 q 898 317 861 317 q 957 336 935 317 q 978 387 978 355 z "},"¾":{"ha":1080,"x_min":76,"x_max":1029,"o":"m 869 852 l 387 81 l 317 125 l 799 897 l 869 852 m 1029 203 l 1029 115 l 596 115 l 591 184 l 848 535 l 932 535 l 839 380 l 699 203 l 1029 203 m 956 535 l 956 0 l 850 0 l 850 535 l 956 535 m 214 764 l 271 764 q 345 784 320 764 q 370 838 370 805 q 348 888 370 867 q 279 908 326 908 q 215 891 241 908 q 190 845 190 874 l 83 845 q 109 925 83 891 q 179 977 135 958 q 277 995 223 995 q 421 956 366 995 q 476 843 476 918 q 454 777 476 807 q 390 729 432 747 q 289 711 349 711 l 214 711 l 214 764 m 214 686 l 214 739 l 289 739 q 400 722 357 739 q 465 675 444 706 q 486 602 486 645 q 426 486 486 527 q 278 445 367 445 q 181 461 227 445 q 105 513 134 478 q 76 604 76 549 l 182 604 q 210 552 182 573 q 281 532 237 532 q 354 553 329 532 q 378 607 378 574 q 350 668 378 650 q 271 686 321 686 l 214 686 z "},"³":{"ha":509,"x_min":43,"x_max":452,"o":"m 180 764 l 237 764 q 312 784 287 764 q 336 838 336 805 q 315 888 336 867 q 246 908 293 908 q 182 891 208 908 q 157 845 157 874 l 50 845 q 76 925 50 891 q 146 977 102 958 q 244 995 190 995 q 388 956 333 995 q 443 843 443 918 q 421 777 443 807 q 357 729 399 747 q 256 711 315 711 l 180 711 l 180 764 m 180 686 l 180 739 l 256 739 q 367 722 323 739 q 431 675 410 706 q 452 602 452 645 q 393 486 452 527 q 245 445 334 445 q 148 461 194 445 q 72 513 101 478 q 43 604 43 549 l 149 604 q 176 552 149 573 q 248 532 203 532 q 320 553 296 532 q 345 607 345 574 q 316 668 345 650 q 237 686 288 686 l 180 686 z "},"˜":{"ha":655,"x_min":83,"x_max":564,"o":"m 479 1025 l 564 1018 q 544 931 564 968 q 491 873 524 894 q 417 853 458 853 q 360 863 382 853 q 320 885 338 873 q 283 908 302 898 q 235 918 264 918 q 188 896 207 918 q 168 842 168 874 l 83 846 q 103 933 83 896 q 155 992 122 971 q 229 1014 189 1014 q 280 1004 258 1014 q 322 982 302 994 q 363 959 342 969 q 411 949 384 949 q 459 971 439 949 q 479 1025 479 994 z "},"̃":{"ha":0,"x_min":-601,"x_max":-121,"o":"m -205 1025 l -121 1018 q -140 931 -121 968 q -193 873 -160 894 q -267 853 -226 853 q -324 863 -302 853 q -364 885 -347 873 q -401 908 -382 898 q -449 918 -420 918 q -497 896 -477 918 q -516 842 -516 874 l -601 846 q -582 933 -601 896 q -529 992 -562 971 q -455 1014 -496 1014 q -404 1004 -426 1014 q -362 982 -382 994 q -321 959 -342 969 q -273 949 -300 949 q -225 971 -245 949 q -205 1025 -205 994 z "},"™":{"ha":869,"x_min":71,"x_max":732,"o":"m 671 623 l 671 891 l 577 623 l 542 623 l 447 890 l 447 623 l 386 623 l 386 987 l 462 987 l 559 718 l 656 987 l 732 987 l 732 623 l 671 623 m 332 987 l 332 932 l 232 932 l 232 623 l 170 623 l 170 932 l 71 932 l 71 987 l 332 987 z "},"²":{"ha":509,"x_min":45,"x_max":463,"o":"m 463 539 l 463 452 l 58 452 l 58 526 l 253 709 q 317 781 299 751 q 334 833 334 811 q 313 887 334 866 q 251 908 291 908 q 176 882 200 908 q 152 818 152 857 l 45 818 q 69 907 45 867 q 139 971 94 947 q 248 995 184 995 q 391 952 339 995 q 442 835 442 909 q 407 736 442 781 q 312 638 372 692 l 193 539 l 463 539 z "},"u":{"ha":766,"x_min":93,"x_max":671,"o":"m 545 170 l 545 734 l 671 734 l 671 0 l 551 0 l 545 170 m 568 324 l 621 326 q 593 151 621 228 q 502 31 565 75 q 334 -14 439 -14 q 159 50 226 -14 q 93 260 93 114 l 93 734 l 218 734 l 218 259 q 238 157 218 193 q 288 107 257 121 q 353 93 319 93 q 480 124 433 93 q 548 207 527 155 q 568 324 568 260 z "},"ú":{"ha":766,"x_min":93,"x_max":671,"o":"m 545 170 l 545 734 l 671 734 l 671 0 l 551 0 l 545 170 m 568 324 l 621 326 q 593 151 621 228 q 502 31 565 75 q 334 -14 439 -14 q 159 50 226 -14 q 93 260 93 114 l 93 734 l 218 734 l 218 259 q 238 157 218 193 q 288 107 257 121 q 353 93 319 93 q 480 124 433 93 q 548 207 527 155 q 568 324 568 260 m 315 842 l 447 1042 l 598 1042 l 416 842 l 315 842 z "},"ŭ":{"ha":766,"x_min":93,"x_max":671,"o":"m 545 170 l 545 734 l 671 734 l 671 0 l 551 0 l 545 170 m 568 324 l 621 326 q 593 151 621 228 q 502 31 565 75 q 334 -14 439 -14 q 159 50 226 -14 q 93 260 93 114 l 93 734 l 218 734 l 218 259 q 238 157 218 193 q 288 107 257 121 q 353 93 319 93 q 480 124 433 93 q 548 207 527 155 q 568 324 568 260 m 486 1014 l 587 1014 q 533 883 587 934 q 385 833 479 833 q 236 883 291 833 q 182 1014 182 934 l 283 1014 q 307 943 283 974 q 385 913 330 913 q 463 943 439 913 q 486 1014 486 974 z "},"û":{"ha":766,"x_min":93,"x_max":671,"o":"m 545 170 l 545 734 l 671 734 l 671 0 l 551 0 l 545 170 m 568 324 l 621 326 q 593 151 621 228 q 502 31 565 75 q 334 -14 439 -14 q 159 50 226 -14 q 93 260 93 114 l 93 734 l 218 734 l 218 259 q 238 157 218 193 q 288 107 257 121 q 353 93 319 93 q 480 124 433 93 q 548 207 527 155 q 568 324 568 260 m 422 1042 l 591 857 l 591 850 l 486 850 l 385 964 l 283 850 l 180 850 l 180 857 l 347 1042 l 422 1042 z "},"ü":{"ha":766,"x_min":93,"x_max":671,"o":"m 545 170 l 545 734 l 671 734 l 671 0 l 551 0 l 545 170 m 568 324 l 621 326 q 593 151 621 228 q 502 31 565 75 q 334 -14 439 -14 q 159 50 226 -14 q 93 260 93 114 l 93 734 l 218 734 l 218 259 q 238 157 218 193 q 288 107 257 121 q 353 93 319 93 q 480 124 433 93 q 548 207 527 155 q 568 324 568 260 m 166 930 q 185 981 166 960 q 240 1002 204 1002 q 296 981 277 1002 q 315 930 315 960 q 296 880 315 901 q 240 859 277 859 q 185 880 204 859 q 166 930 166 901 m 458 928 q 477 980 458 959 q 532 1001 496 1001 q 588 980 568 1001 q 607 928 607 959 q 588 879 607 899 q 532 858 568 858 q 477 879 496 858 q 458 928 458 899 z "},"ù":{"ha":766,"x_min":93,"x_max":671,"o":"m 545 170 l 545 734 l 671 734 l 671 0 l 551 0 l 545 170 m 568 324 l 621 326 q 593 151 621 228 q 502 31 565 75 q 334 -14 439 -14 q 159 50 226 -14 q 93 260 93 114 l 93 734 l 218 734 l 218 259 q 238 157 218 193 q 288 107 257 121 q 353 93 319 93 q 480 124 433 93 q 548 207 527 155 q 568 324 568 260 m 325 1042 l 456 842 l 348 842 l 173 1042 l 325 1042 z "},"ư":{"ha":859,"x_min":93,"x_max":879,"o":"m 783 793 l 879 793 q 860 669 879 719 q 792 593 840 618 q 656 568 744 568 l 656 646 q 744 661 718 646 q 777 709 770 676 q 783 793 783 741 m 545 170 l 545 734 l 671 734 l 671 0 l 551 0 l 545 170 m 568 324 l 621 326 q 593 151 621 228 q 502 31 565 75 q 334 -14 439 -14 q 159 50 226 -14 q 93 260 93 114 l 93 734 l 218 734 l 218 259 q 238 157 218 193 q 288 107 257 121 q 353 93 319 93 q 480 124 433 93 q 548 207 527 155 q 568 324 568 260 z "},"ű":{"ha":766,"x_min":93,"x_max":702,"o":"m 545 170 l 545 734 l 671 734 l 671 0 l 551 0 l 545 170 m 568 324 l 621 326 q 593 151 621 228 q 502 31 565 75 q 334 -14 439 -14 q 159 50 226 -14 q 93 260 93 114 l 93 734 l 218 734 l 218 259 q 238 157 218 193 q 288 107 257 121 q 353 93 319 93 q 480 124 433 93 q 548 207 527 155 q 568 324 568 260 m 406 836 l 562 1041 l 702 1041 l 520 836 l 406 836 m 216 836 l 331 1041 l 465 1041 l 317 836 l 216 836 z "},"ū":{"ha":766,"x_min":93,"x_max":671,"o":"m 545 170 l 545 734 l 671 734 l 671 0 l 551 0 l 545 170 m 568 324 l 621 326 q 593 151 621 228 q 502 31 565 75 q 334 -14 439 -14 q 159 50 226 -14 q 93 260 93 114 l 93 734 l 218 734 l 218 259 q 238 157 218 193 q 288 107 257 121 q 353 93 319 93 q 480 124 433 93 q 548 207 527 155 q 568 324 568 260 m 616 985 l 616 889 l 161 889 l 161 985 l 616 985 z "},"_":{"ha":627,"x_min":3,"x_max":625,"o":"m 625 0 l 625 -103 l 3 -103 l 3 0 l 625 0 z "},"‗":{"ha":633,"x_min":9,"x_max":630,"o":"m 630 -172 l 630 -275 l 9 -275 l 9 -172 l 630 -172 m 630 0 l 630 -103 l 9 -103 l 9 0 l 630 0 z "},"­":{"ha":384,"x_min":95,"x_max":553,"o":"m 553 300 l 553 403 l 95 403 l 95 300 l 553 300 z "},"Ċ":{"ha":904,"x_min":81,"x_max":841,"o":"m 711 314 l 841 314 q 787 146 831 220 q 665 30 744 73 q 467 -14 585 -14 q 264 43 351 -14 q 130 203 178 100 q 81 444 81 306 l 81 543 q 130 784 81 681 q 267 944 178 887 q 478 1001 356 1001 q 667 959 590 1001 q 788 843 745 917 q 841 671 831 768 l 711 671 q 644 834 696 774 q 478 894 593 894 q 331 850 391 894 q 242 728 272 806 q 212 544 212 649 l 212 444 q 239 268 212 347 q 322 140 266 188 q 467 93 379 93 q 600 119 550 93 q 674 195 649 146 q 711 314 700 245 m 387 1160 q 406 1211 387 1190 q 461 1232 425 1232 q 516 1211 497 1232 q 536 1160 536 1190 q 516 1110 536 1131 q 461 1089 497 1089 q 406 1110 425 1089 q 387 1160 387 1131 z "},"ċ":{"ha":727,"x_min":63,"x_max":682,"o":"m 389 90 q 472 108 434 90 q 534 158 510 126 q 562 232 559 191 l 682 232 q 638 111 678 167 q 532 21 597 55 q 389 -14 467 -14 q 207 37 279 -14 q 99 171 134 87 q 63 353 63 254 l 63 381 q 99 563 63 479 q 207 697 134 646 q 389 747 279 747 q 540 712 475 747 q 641 617 604 677 q 682 481 678 557 l 562 481 q 537 564 559 527 q 477 622 515 600 q 389 644 439 644 q 268 605 312 644 q 207 505 224 566 q 189 381 189 445 l 189 353 q 206 228 189 288 q 268 129 224 168 q 389 90 311 90 m 288 928 q 306 979 288 958 q 361 1000 325 1000 q 417 979 397 1000 q 436 928 436 958 q 417 877 436 898 q 361 857 397 857 q 306 877 325 857 q 288 928 288 898 z "},"Ġ":{"ha":946,"x_min":83,"x_max":844,"o":"m 844 492 l 844 130 q 786 70 826 103 q 676 11 746 36 q 495 -14 606 -14 q 282 42 375 -14 q 136 203 189 98 q 83 456 83 308 l 83 532 q 129 784 83 680 q 264 945 175 889 q 480 1001 353 1001 q 670 962 593 1001 q 789 854 746 923 q 844 699 832 786 l 713 699 q 679 796 705 752 q 604 867 652 840 q 480 894 556 894 q 330 850 389 894 q 243 726 271 806 q 214 534 214 645 l 214 456 q 250 261 214 342 q 348 136 285 180 q 496 93 412 93 q 609 105 566 93 q 677 133 652 117 q 714 165 701 150 l 714 386 l 486 386 l 486 492 l 844 492 m 382 1160 q 400 1211 382 1190 q 456 1232 419 1232 q 511 1211 492 1232 q 530 1160 530 1190 q 511 1110 530 1131 q 456 1089 492 1089 q 400 1110 419 1089 q 382 1160 382 1131 z "},"ġ":{"ha":780,"x_min":66,"x_max":685,"o":"m 571 734 l 685 734 l 685 16 q 646 -150 685 -81 q 536 -254 606 -218 q 374 -290 466 -290 q 285 -278 336 -290 q 185 -238 234 -266 q 102 -162 136 -210 l 168 -87 q 265 -165 214 -143 q 365 -186 315 -186 q 507 -137 454 -186 q 559 9 559 -87 l 559 572 l 571 734 m 66 359 l 66 373 q 101 569 66 485 q 201 701 136 654 q 355 747 266 747 q 476 723 425 747 q 565 653 528 699 q 622 543 601 608 q 651 397 643 479 l 651 335 q 606 150 641 228 q 509 29 572 71 q 354 -14 447 -14 q 201 35 266 -14 q 101 168 136 83 q 66 359 66 252 m 191 373 l 191 359 q 211 225 191 286 q 274 129 231 165 q 385 93 317 93 q 488 119 447 93 q 552 189 528 146 q 590 283 576 233 l 590 447 q 567 519 583 484 q 528 582 552 554 q 469 625 504 609 q 386 642 433 642 q 274 605 317 642 q 211 507 231 568 q 191 373 191 446 m 303 928 q 322 979 303 958 q 377 1000 340 1000 q 432 979 413 1000 q 452 928 452 958 q 432 877 452 898 q 377 857 413 857 q 322 877 340 857 q 303 928 303 898 z "},"Ţ":{"ha":829,"x_min":34,"x_max":797,"o":"m 479 987 l 479 0 l 351 0 l 351 987 l 479 987 m 797 987 l 797 880 l 34 880 l 34 987 l 797 987 m 375 0 l 465 0 l 457 -36 q 529 -68 496 -43 q 561 -153 561 -94 q 509 -256 561 -217 q 355 -295 456 -295 l 351 -222 q 407 -216 382 -222 q 448 -194 433 -209 q 463 -155 463 -179 q 437 -109 463 -121 q 354 -92 411 -96 l 375 0 z "},"ţ":{"ha":454,"x_min":6,"x_max":452,"o":"m 403 734 l 403 637 l 6 637 l 6 734 l 403 734 m 140 912 l 266 912 l 266 182 q 277 125 266 144 q 307 100 289 106 q 347 94 326 94 q 379 97 362 94 q 406 102 397 100 l 406 0 q 367 -9 391 -5 q 309 -14 343 -14 q 224 5 263 -14 q 163 66 186 23 q 140 182 140 109 l 140 912 m 266 0 l 356 0 l 348 -36 q 419 -68 387 -43 q 452 -153 452 -94 q 399 -256 452 -217 q 246 -295 347 -295 l 241 -222 q 298 -216 273 -222 q 339 -194 323 -209 q 354 -155 354 -179 q 328 -109 354 -121 q 245 -92 302 -96 l 266 0 z "},"ǰ":{"ha":350,"x_min":-52,"x_max":391,"o":"m 117 734 l 243 734 l 243 -60 q 185 -236 243 -175 q 24 -296 127 -296 q -14 -294 3 -296 q -52 -285 -32 -292 l -42 -184 q -8 -191 -32 -189 q 24 -193 15 -193 q 93 -158 68 -193 q 117 -60 117 -123 l 117 734 m 77 1013 l 180 898 l 282 1013 l 391 1013 l 391 1006 l 218 821 l 141 821 l -28 1006 l -28 1013 l 77 1013 z "},"Ș":{"ha":825,"x_min":55,"x_max":772,"o":"m 641 250 q 621 328 641 296 q 551 387 602 361 q 406 441 500 414 q 237 508 309 469 q 125 601 165 547 q 86 732 86 656 q 128 870 86 809 q 245 966 170 930 q 422 1001 321 1001 q 611 959 533 1001 q 729 848 688 916 q 770 703 770 780 l 640 703 q 616 801 640 758 q 544 869 592 844 q 422 894 496 894 q 307 873 352 894 q 239 816 261 852 q 217 734 217 780 q 241 661 217 692 q 316 603 265 629 q 448 555 367 577 q 632 481 560 523 q 738 384 704 440 q 772 251 772 328 q 730 111 772 171 q 610 19 687 52 q 428 -14 532 -14 q 293 5 359 -14 q 173 62 227 24 q 87 156 119 100 q 55 286 55 212 l 185 286 q 205 199 185 235 q 259 139 224 163 q 337 104 293 115 q 428 93 380 93 q 544 112 496 93 q 616 166 591 131 q 641 250 641 201 m 485 -79 l 485 -132 q 461 -248 485 -186 q 387 -351 437 -309 l 315 -301 q 353 -222 340 -262 q 366 -134 366 -181 l 366 -79 l 485 -79 z "},"ș":{"ha":717,"x_min":64,"x_max":648,"o":"m 523 195 q 511 245 523 222 q 463 288 499 269 q 354 321 427 307 q 213 365 273 338 q 122 432 154 391 q 90 533 90 473 q 123 640 90 591 q 218 718 157 688 q 361 747 279 747 q 512 716 450 747 q 608 633 574 685 q 641 518 641 581 l 515 518 q 476 604 515 564 q 361 644 436 644 q 277 628 309 644 q 230 588 245 612 q 216 536 216 564 q 229 490 216 509 q 279 454 243 470 q 385 423 315 439 q 533 374 475 403 q 620 304 591 346 q 648 204 648 263 q 613 91 648 140 q 514 14 578 41 q 365 -14 450 -14 q 201 21 268 -14 q 99 111 134 56 q 64 227 64 165 l 191 227 q 220 145 193 175 q 287 102 248 115 q 365 90 326 90 q 451 103 416 90 q 505 140 486 117 q 523 195 523 164 m 440 -85 l 440 -138 q 416 -254 440 -192 q 342 -357 392 -315 l 271 -307 q 308 -228 296 -269 q 321 -140 321 -187 l 321 -85 l 440 -85 z "},"Ț":{"ha":829,"x_min":34,"x_max":797,"o":"m 479 987 l 479 0 l 351 0 l 351 987 l 479 987 m 797 987 l 797 880 l 34 880 l 34 987 l 797 987 m 475 -78 l 475 -132 q 451 -247 475 -185 q 377 -350 427 -309 l 306 -300 q 343 -221 331 -262 q 356 -133 356 -180 l 356 -78 l 475 -78 z "},"ț":{"ha":454,"x_min":6,"x_max":406,"o":"m 403 734 l 403 637 l 6 637 l 6 734 l 403 734 m 140 912 l 266 912 l 266 182 q 277 125 266 144 q 307 100 289 106 q 347 94 326 94 q 379 97 362 94 q 406 102 397 100 l 406 0 q 367 -9 391 -5 q 309 -14 343 -14 q 224 5 263 -14 q 163 66 186 23 q 140 182 140 109 l 140 912 m 366 -78 l 366 -132 q 342 -247 366 -185 q 268 -350 318 -309 l 197 -300 q 234 -221 222 -262 q 247 -133 247 -180 l 247 -78 l 366 -78 z "},"ȷ":{"ha":350,"x_min":-52,"x_max":243,"o":"m 117 734 l 243 734 l 243 -60 q 185 -236 243 -175 q 24 -296 127 -296 q -14 -294 3 -296 q -52 -285 -32 -292 l -42 -184 q -8 -191 -32 -189 q 24 -193 15 -193 q 93 -158 68 -193 q 117 -60 117 -123 l 117 734 z "},"ʼ":{"ha":278,"x_min":33,"x_max":222,"o":"m 222 1042 l 222 955 q 209 869 222 914 q 168 782 195 824 q 104 709 142 741 l 33 759 q 81 851 64 804 q 98 953 98 898 l 98 1042 l 222 1042 z "},"ˉ":{"ha":637,"x_min":97,"x_max":552,"o":"m 552 980 l 552 884 l 97 884 l 97 980 l 552 980 z "},"˳":{"ha":408,"x_min":86,"x_max":319,"o":"m 86 -165 q 121 -83 86 -115 q 204 -52 156 -52 q 285 -83 251 -52 q 319 -165 319 -115 q 285 -245 319 -214 q 204 -275 251 -275 q 121 -245 156 -275 q 86 -165 86 -214 m 145 -165 q 162 -204 145 -188 q 204 -221 180 -221 q 244 -205 227 -221 q 260 -165 260 -189 q 244 -123 260 -140 q 204 -106 227 -106 q 162 -123 180 -106 q 145 -165 145 -140 z "},"̏":{"ha":0,"x_min":-668,"x_max":-170,"o":"m -347 849 l -461 849 l -668 1029 l -515 1029 l -347 849 m -170 849 l -271 849 l -438 1029 l -298 1029 l -170 849 z "},"،":{"ha":377,"x_min":93,"x_max":294,"o":"m 294 364 l 250 399 q 168 319 203 363 q 113 223 132 275 q 93 110 93 172 q 116 30 93 60 q 193 0 140 0 q 256 24 235 0 q 277 90 277 48 q 259 153 277 132 q 192 174 240 174 q 219 278 192 235 q 294 364 247 321 z "},"؍":{"ha":569,"x_min":38,"x_max":515,"o":"m 420 1002 l 38 -115 l 133 -149 l 515 968 l 420 1002 z "},"ؐ":{"ha":0,"x_min":84,"x_max":566,"o":"m 315 939 l 263 939 q 324 1020 294 987 q 382 1070 353 1053 q 437 1087 410 1087 q 486 1068 467 1087 q 505 1021 505 1049 q 483 976 505 994 q 420 948 462 958 q 315 939 378 939 m 94 819 l 146 787 q 164 837 158 810 q 172 897 171 865 q 223 882 192 888 q 298 877 255 877 l 316 877 q 455 893 399 877 q 538 942 510 909 q 566 1023 566 975 q 529 1114 566 1077 q 435 1150 492 1150 q 317 1101 375 1150 q 199 950 258 1051 q 179 963 188 951 q 163 997 170 975 l 142 1060 l 84 1040 q 107 976 100 1008 q 115 911 115 943 q 110 860 115 883 q 94 819 104 837 z "},"ؑ":{"ha":0,"x_min":84,"x_max":517,"o":"m 174 876 l 200 876 q 351 890 274 876 q 517 930 429 903 l 517 998 l 358 958 q 351 958 355 957 q 345 960 347 960 q 298 1003 307 977 q 288 1039 288 1029 q 317 1104 288 1077 q 390 1131 346 1131 q 435 1121 413 1130 q 480 1093 457 1112 l 505 1148 q 449 1186 480 1174 q 378 1199 417 1199 q 266 1153 307 1199 q 224 1042 224 1106 q 237 986 224 1008 q 264 943 249 963 l 199 943 q 179 956 188 945 q 163 989 170 967 l 142 1054 l 84 1033 q 107 969 100 1001 q 115 905 115 937 q 110 854 115 877 q 94 813 104 831 l 146 781 q 166 827 158 804 q 174 876 174 851 z "},"ؒ":{"ha":0,"x_min":58,"x_max":638,"o":"m 370 686 l 359 750 q 340 749 350 749 q 321 749 331 749 q 210 764 254 749 q 143 811 165 780 q 121 888 121 842 q 148 968 121 931 q 224 1033 176 1004 q 338 1080 273 1061 q 479 1105 404 1099 l 484 1168 q 413 1183 452 1170 q 315 1225 374 1197 q 254 1251 282 1241 q 201 1261 225 1261 q 123 1238 159 1261 q 63 1176 87 1215 l 58 1166 l 115 1138 l 125 1152 q 159 1182 138 1169 q 201 1194 179 1194 q 239 1185 214 1194 q 302 1161 264 1177 q 323 1152 317 1154 q 336 1147 330 1149 q 129 1045 199 1116 q 58 882 58 973 q 91 770 58 814 q 182 705 123 726 q 316 684 240 684 q 343 684 330 684 q 370 686 357 685 m 604 1104 l 543 1082 q 567 1010 558 1045 q 575 941 575 975 q 535 829 575 878 q 404 757 496 779 l 431 701 q 589 796 541 726 q 638 948 638 865 q 629 1026 638 987 q 604 1104 620 1066 z "},"ؕ":{"ha":0,"x_min":86,"x_max":524,"o":"m 275 938 l 224 937 q 284 1017 254 985 q 341 1067 313 1050 q 396 1084 370 1084 q 445 1065 426 1084 q 463 1018 463 1046 q 442 974 463 991 q 379 947 420 956 q 275 938 337 938 m 162 937 l 86 937 l 86 876 l 276 876 q 413 892 359 876 q 496 940 468 908 q 524 1021 524 972 q 488 1111 524 1075 q 393 1147 452 1147 q 316 1124 353 1147 q 245 1060 279 1102 l 245 1304 l 187 1304 l 187 977 q 175 958 181 968 q 162 937 168 947 z "},"؛":{"ha":377,"x_min":93,"x_max":294,"o":"m 98 90 q 125 26 98 52 q 189 0 151 0 q 252 26 226 0 q 279 90 279 53 q 252 154 279 127 q 189 181 226 181 q 125 154 151 181 q 98 90 98 127 m 294 663 l 250 698 q 168 618 203 662 q 113 522 132 574 q 93 408 93 470 q 116 328 93 358 q 193 298 140 298 q 256 322 235 298 q 277 388 277 347 q 259 451 277 430 q 192 472 240 472 q 219 576 192 534 q 294 663 247 619 z "},"؟":{"ha":591,"x_min":67,"x_max":524,"o":"m 67 696 q 82 622 67 652 q 119 569 96 592 q 169 526 142 547 q 218 478 195 505 q 255 415 241 452 q 270 323 270 378 l 270 297 l 383 297 l 383 323 q 363 440 383 392 q 315 522 344 488 q 257 583 286 555 q 209 636 229 610 q 189 694 189 662 q 231 775 189 746 q 331 804 273 804 q 403 792 366 804 q 472 755 440 781 l 524 852 q 427 910 479 892 q 324 928 375 928 q 198 900 257 928 q 103 819 140 871 q 67 696 67 766 m 236 91 q 262 26 236 52 q 326 1 289 1 q 390 27 363 1 q 416 91 416 54 q 390 155 416 128 q 326 182 363 182 q 262 155 289 182 q 236 91 236 128 z "},"ء":{"ha":562,"x_min":63,"x_max":495,"o":"m 205 290 q 239 360 205 329 q 321 391 273 391 q 378 383 349 391 q 444 357 407 376 l 479 448 q 399 490 438 478 q 313 503 359 503 q 206 473 254 503 q 129 396 157 444 q 100 290 100 347 q 119 205 100 245 q 186 121 137 165 q 120 90 142 101 q 63 60 98 78 l 81 -54 q 311 52 211 17 q 495 106 411 87 l 495 220 q 437 209 464 215 q 379 193 410 202 q 302 168 348 183 q 228 230 252 196 q 205 290 205 263 z "},"آ":{"ha":322,"x_min":-109,"x_max":412,"o":"m 229 1019 l 141 1059 q 101 1075 119 1069 q 64 1081 82 1081 q 5 1062 36 1081 q -70 998 -26 1044 l -109 958 l -47 902 l -9 941 q 42 985 23 972 q 76 997 61 997 q 92 994 83 997 q 109 987 100 991 l 197 947 q 258 932 232 932 q 312 948 285 932 q 374 998 338 964 l 412 1034 l 351 1089 l 316 1058 q 275 1024 290 1035 q 248 1014 260 1014 q 229 1019 238 1014 m 218 846 l 104 846 l 104 1 l 218 1 l 218 846 z "},"أ":{"ha":322,"x_min":23,"x_max":291,"o":"m 98 983 l 23 954 l 33 887 l 291 989 l 281 1057 l 192 1024 q 188 1023 190 1023 q 185 1022 186 1022 q 126 1037 147 1017 q 105 1078 106 1057 q 130 1129 105 1112 q 184 1147 155 1147 q 218 1144 199 1147 q 257 1131 236 1141 l 256 1198 q 217 1214 237 1209 q 174 1219 197 1219 q 82 1182 123 1219 q 42 1086 42 1145 q 58 1023 42 1046 q 98 983 75 1000 m 218 846 l 104 846 l 104 1 l 218 1 l 218 846 z "},"ؤ":{"ha":617,"x_min":67,"x_max":550,"o":"m 237 667 l 163 637 l 172 571 l 431 673 l 421 741 l 332 708 q 328 707 330 707 q 325 706 326 706 q 266 721 287 701 q 245 762 245 741 q 270 813 245 795 q 323 831 294 831 q 357 828 339 831 q 397 814 376 825 l 396 882 q 357 898 377 893 q 314 903 337 903 q 222 866 262 903 q 182 770 182 829 q 198 707 182 730 q 237 667 214 684 m 550 116 q 534 256 550 188 q 488 378 519 323 q 409 464 456 432 q 296 496 361 496 q 199 470 242 496 q 127 402 157 444 q 82 309 98 359 q 67 208 67 258 q 130 50 67 102 q 315 -2 193 -2 q 374 4 340 -2 q 434 18 408 10 q 378 -106 423 -52 q 256 -198 332 -161 q 75 -256 180 -235 l 115 -363 q 356 -273 260 -336 q 502 -113 453 -210 q 550 116 550 -16 m 318 121 q 215 142 249 121 q 181 212 181 163 q 191 280 181 243 q 225 346 201 318 q 295 374 250 374 q 352 358 328 374 q 395 313 377 343 q 423 239 412 283 q 437 138 433 195 q 377 125 408 130 q 318 121 347 121 z "},"إ":{"ha":322,"x_min":19,"x_max":287,"o":"m 94 -311 l 19 -340 l 28 -406 l 287 -304 l 277 -237 l 188 -269 q 184 -271 186 -270 q 181 -271 182 -271 q 122 -257 143 -277 q 101 -216 102 -237 q 126 -164 101 -182 q 180 -146 151 -146 q 214 -149 195 -146 q 253 -163 232 -152 l 252 -96 q 213 -79 233 -84 q 170 -74 193 -74 q 78 -111 119 -74 q 38 -207 38 -149 q 54 -270 38 -247 q 94 -311 71 -293 m 219 934 l 104 934 l 104 1 l 219 1 l 219 934 z "},"ئ":{"ha":980,"x_min":67,"x_max":913,"o":"m 273 541 l 198 511 l 208 445 l 466 547 l 456 614 l 367 582 q 363 581 365 581 q 360 580 361 580 q 301 594 322 574 q 280 635 281 614 q 305 687 280 669 q 359 705 330 705 q 393 702 374 705 q 432 688 411 699 l 431 755 q 392 772 412 767 q 349 777 372 777 q 257 740 298 777 q 217 644 217 703 q 233 581 217 604 q 273 541 250 558 m 467 -342 q 658 -318 575 -342 q 798 -253 741 -294 q 884 -159 854 -212 q 913 -50 913 -107 q 898 42 913 2 q 848 106 884 83 q 751 129 813 129 l 637 129 q 585 143 597 129 q 572 190 572 158 q 593 295 572 248 q 656 370 615 342 q 755 397 697 397 q 813 391 785 397 q 869 370 841 385 l 907 473 q 829 509 868 500 q 755 519 790 519 q 629 493 685 519 q 534 421 574 467 q 474 316 495 376 q 453 190 453 257 q 463 113 453 147 q 493 56 472 79 q 549 19 514 32 q 634 7 584 7 l 744 7 q 791 -12 778 7 q 804 -53 804 -31 q 778 -115 804 -85 q 707 -169 753 -145 q 601 -207 662 -193 q 467 -220 539 -220 q 298 -184 359 -220 q 210 -88 236 -149 q 184 45 184 -28 q 197 173 184 107 q 231 301 211 239 l 123 345 q 82 197 97 273 q 67 50 67 121 q 106 -146 67 -57 q 233 -289 145 -235 q 467 -342 321 -342 z "},"ا":{"ha":322,"x_min":104,"x_max":218,"o":"m 218 934 l 104 934 l 104 1 l 218 1 l 218 934 z "},"ب":{"ha":1215,"x_min":67,"x_max":1147,"o":"m 629 -104 l 531 -202 l 629 -300 l 728 -202 l 629 -104 m 738 0 q 899 9 825 0 q 1029 47 973 19 q 1116 132 1085 76 q 1147 279 1147 187 q 1141 378 1147 321 q 1122 488 1135 435 l 1004 458 q 1022 354 1015 406 q 1029 263 1029 301 q 1002 182 1029 211 q 930 141 974 153 q 835 126 886 129 q 739 123 785 123 l 580 123 q 408 132 481 123 q 284 162 334 140 q 210 221 235 183 q 185 319 185 259 q 192 383 185 349 q 210 447 199 417 l 105 486 q 78 400 88 445 q 67 309 67 355 q 99 164 67 223 q 196 69 132 105 q 356 16 260 33 q 580 0 452 0 l 738 0 z "},"ة":{"ha":647,"x_min":67,"x_max":580,"o":"m 465 233 q 431 151 465 178 q 323 123 397 123 q 216 153 249 123 q 182 221 182 182 q 198 288 182 256 q 244 353 214 319 q 315 427 274 387 q 385 363 351 396 q 442 297 419 330 q 465 233 465 264 m 231 502 q 109 355 151 423 q 67 208 67 287 q 136 61 67 119 q 323 3 205 3 q 458 30 401 3 q 548 108 516 58 q 580 228 580 159 q 558 324 580 277 q 495 417 536 370 q 399 513 454 464 q 277 618 344 563 l 205 526 l 231 502 m 418 892 l 323 798 l 418 702 l 513 798 l 418 892 m 193 892 l 98 798 l 193 702 l 288 798 l 193 892 z "},"ت":{"ha":1215,"x_min":67,"x_max":1147,"o":"m 738 0 q 899 9 825 0 q 1029 47 973 19 q 1116 132 1085 76 q 1147 279 1147 187 q 1141 378 1147 321 q 1122 488 1135 435 l 1004 458 q 1022 354 1015 406 q 1029 263 1029 301 q 1002 182 1029 211 q 930 141 974 153 q 835 126 886 129 q 739 123 785 123 l 580 123 q 408 132 481 123 q 284 162 334 140 q 210 221 235 183 q 185 319 185 259 q 192 383 185 349 q 210 447 199 417 l 105 486 q 78 400 88 445 q 67 309 67 355 q 99 164 67 223 q 196 69 132 105 q 356 16 260 33 q 580 0 452 0 l 738 0 m 725 665 l 631 571 l 725 475 l 820 571 l 725 665 m 500 665 l 406 571 l 500 475 l 595 571 l 500 665 z "},"ث":{"ha":1215,"x_min":67,"x_max":1147,"o":"m 738 0 q 899 9 825 0 q 1029 47 973 19 q 1116 132 1085 76 q 1147 279 1147 187 q 1141 378 1147 321 q 1122 488 1135 435 l 1004 458 q 1022 354 1015 406 q 1029 263 1029 301 q 1002 182 1029 211 q 930 141 974 153 q 835 126 886 129 q 739 123 785 123 l 580 123 q 408 132 481 123 q 284 162 334 140 q 210 221 235 183 q 185 319 185 259 q 192 383 185 349 q 210 447 199 417 l 105 486 q 78 400 88 445 q 67 309 67 355 q 99 164 67 223 q 196 69 132 105 q 356 16 260 33 q 580 0 452 0 l 738 0 m 612 781 l 521 689 l 612 597 l 704 689 l 612 781 m 728 609 l 637 517 l 728 426 l 820 517 l 728 609 m 496 609 l 405 517 l 496 426 l 588 517 l 496 609 z "},"ج":{"ha":929,"x_min":62,"x_max":867,"o":"m 847 414 q 734 434 793 416 q 616 478 675 452 q 503 530 557 505 q 402 572 448 555 q 322 589 356 589 q 181 549 242 589 q 72 429 121 508 l 62 413 l 165 362 l 184 385 q 248 446 215 425 q 321 467 280 467 q 378 453 338 467 q 472 416 418 438 q 582 372 526 395 q 356 295 453 343 q 196 182 260 246 q 100 42 132 118 q 68 -119 68 -35 q 101 -276 68 -210 q 196 -385 135 -342 q 339 -448 257 -427 q 519 -469 422 -469 q 705 -451 614 -469 q 867 -401 796 -434 l 837 -288 q 687 -335 767 -320 q 530 -351 606 -351 q 336 -324 414 -351 q 221 -244 259 -297 q 182 -113 182 -191 q 214 10 182 -47 q 303 116 245 68 q 444 202 362 165 q 628 264 526 239 q 847 298 730 288 l 847 414 m 554 43 l 456 -56 l 554 -154 l 652 -56 l 554 43 z "},"ح":{"ha":929,"x_min":62,"x_max":867,"o":"m 847 414 q 734 434 793 416 q 616 478 675 452 q 503 530 557 505 q 402 572 448 555 q 322 589 356 589 q 181 549 242 589 q 72 429 121 508 l 62 413 l 165 362 l 184 385 q 248 446 215 425 q 321 467 280 467 q 378 453 338 467 q 472 416 418 438 q 582 372 526 395 q 356 295 453 343 q 196 182 260 246 q 100 42 132 118 q 68 -119 68 -35 q 101 -276 68 -210 q 196 -385 135 -342 q 339 -448 257 -427 q 519 -469 422 -469 q 705 -451 614 -469 q 867 -401 796 -434 l 837 -288 q 687 -335 767 -320 q 530 -351 606 -351 q 336 -324 414 -351 q 221 -244 259 -297 q 182 -113 182 -191 q 214 10 182 -47 q 303 116 245 68 q 444 202 362 165 q 628 264 526 239 q 847 298 730 288 l 847 414 z "},"خ":{"ha":929,"x_min":62,"x_max":867,"o":"m 392 892 l 294 793 l 392 695 l 490 793 l 392 892 m 847 414 q 734 434 793 416 q 616 478 675 452 q 503 530 557 505 q 402 572 448 555 q 322 589 356 589 q 181 549 242 589 q 72 429 121 508 l 62 413 l 165 362 l 184 385 q 248 446 215 425 q 321 467 280 467 q 378 453 338 467 q 472 416 418 438 q 582 372 526 395 q 356 295 453 343 q 196 182 260 246 q 100 42 132 118 q 68 -119 68 -35 q 101 -276 68 -210 q 196 -385 135 -342 q 339 -448 257 -427 q 519 -469 422 -469 q 705 -451 614 -469 q 867 -401 796 -434 l 837 -288 q 687 -335 767 -320 q 530 -351 606 -351 q 336 -324 414 -351 q 221 -244 259 -297 q 182 -113 182 -191 q 214 10 182 -47 q 303 116 245 68 q 444 202 362 165 q 628 264 526 239 q 847 298 730 288 l 847 414 z "},"د":{"ha":665,"x_min":67,"x_max":597,"o":"m 221 122 q 150 127 188 122 q 67 140 111 132 l 67 18 q 145 5 104 9 q 231 1 187 1 q 439 30 359 1 q 559 117 520 59 q 597 259 597 174 q 576 364 597 313 q 513 465 555 415 q 406 561 471 514 q 254 652 341 608 l 201 545 q 363 440 301 490 q 453 345 425 391 q 481 257 481 300 q 453 182 481 212 q 367 137 425 153 q 221 122 309 122 z "},"ذ":{"ha":665,"x_min":67,"x_max":597,"o":"m 250 954 l 151 856 l 250 758 l 348 856 l 250 954 m 221 122 q 150 127 188 122 q 67 140 111 132 l 67 18 q 145 5 104 9 q 231 1 187 1 q 439 30 359 1 q 559 117 520 59 q 597 259 597 174 q 576 364 597 313 q 513 465 555 415 q 406 561 471 514 q 254 652 341 608 l 201 545 q 363 440 301 490 q 453 345 425 391 q 481 257 481 300 q 453 182 481 212 q 367 137 425 153 q 221 122 309 122 z "},"ر":{"ha":475,"x_min":-8,"x_max":407,"o":"m 32 -365 q 244 -272 161 -340 q 367 -108 328 -205 q 407 102 407 -12 q 394 234 407 166 q 358 370 382 302 l 245 332 q 280 202 268 266 q 293 81 293 139 q 263 -68 293 -1 q 168 -185 234 -136 q -8 -257 102 -233 l 32 -365 z "},"ز":{"ha":475,"x_min":-8,"x_max":407,"o":"m 280 698 l 182 600 l 280 501 l 378 600 l 280 698 m 32 -365 q 244 -272 161 -340 q 367 -108 328 -205 q 407 102 407 -12 q 394 234 407 166 q 358 370 382 302 l 245 332 q 280 202 268 266 q 293 81 293 139 q 263 -68 293 -1 q 168 -185 234 -136 q -8 -257 102 -233 l 32 -365 z "},"س":{"ha":1641,"x_min":67,"x_max":1574,"o":"m 1005 0 q 1106 24 1059 0 q 1190 104 1152 49 q 1255 27 1215 54 q 1360 0 1295 0 q 1487 40 1440 1 q 1554 144 1533 80 q 1574 282 1574 209 q 1567 384 1574 333 q 1547 481 1559 435 l 1431 450 q 1442 398 1436 429 q 1453 332 1449 367 q 1458 264 1458 298 q 1449 194 1458 227 q 1418 143 1440 162 q 1360 123 1397 123 q 1276 162 1302 123 q 1247 255 1251 200 l 1236 397 l 1123 382 q 1127 334 1126 354 q 1129 300 1128 314 q 1130 273 1130 286 q 1104 162 1130 201 q 1006 123 1078 123 q 905 153 943 123 q 848 242 867 183 l 808 370 l 692 323 q 732 195 711 273 q 754 35 754 116 q 729 -93 754 -33 q 643 -190 705 -153 q 467 -227 581 -227 q 298 -191 359 -227 q 210 -95 236 -155 q 184 39 184 -35 q 197 166 184 100 q 231 294 211 232 l 123 338 q 82 190 97 266 q 67 43 67 115 q 106 -153 67 -64 q 233 -296 145 -242 q 467 -349 321 -349 q 697 -300 608 -349 q 829 -162 787 -250 q 873 39 872 -75 q 927 11 895 22 q 1005 0 960 0 z "},"ش":{"ha":1641,"x_min":67,"x_max":1574,"o":"m 1150 892 l 1059 800 l 1150 709 l 1242 800 l 1150 892 m 1266 720 l 1175 629 l 1266 537 l 1358 629 l 1266 720 m 1034 720 l 943 629 l 1034 537 l 1126 629 l 1034 720 m 1005 0 q 1106 24 1059 0 q 1190 104 1152 49 q 1255 27 1215 54 q 1360 0 1295 0 q 1487 40 1440 1 q 1554 144 1533 80 q 1574 282 1574 209 q 1567 384 1574 333 q 1547 481 1559 435 l 1431 450 q 1442 398 1436 429 q 1453 332 1449 367 q 1458 264 1458 298 q 1449 194 1458 227 q 1418 143 1440 162 q 1360 123 1397 123 q 1276 162 1302 123 q 1247 255 1251 200 l 1236 397 l 1123 382 q 1127 334 1126 354 q 1129 300 1128 314 q 1130 273 1130 286 q 1104 162 1130 201 q 1006 123 1078 123 q 905 153 943 123 q 848 242 867 183 l 808 370 l 692 323 q 732 195 711 273 q 754 35 754 116 q 729 -93 754 -33 q 643 -190 705 -153 q 467 -227 581 -227 q 298 -191 359 -227 q 210 -95 236 -155 q 184 39 184 -35 q 197 166 184 100 q 231 294 211 232 l 123 338 q 82 190 97 266 q 67 43 67 115 q 106 -153 67 -64 q 233 -296 145 -242 q 467 -349 321 -349 q 697 -300 608 -349 q 829 -162 787 -250 q 873 39 872 -75 q 927 11 895 22 q 1005 0 960 0 z "},"ص":{"ha":1733,"x_min":67,"x_max":1666,"o":"m 467 -349 q 697 -300 608 -349 q 829 -162 787 -250 q 873 39 872 -75 q 937 20 901 28 q 1021 5 973 11 q 1129 0 1068 0 l 1165 0 q 1384 18 1291 0 q 1541 72 1478 35 q 1634 163 1603 108 q 1666 292 1666 218 q 1632 422 1666 364 q 1538 513 1598 479 q 1401 547 1478 547 q 1284 522 1343 547 q 1167 448 1226 498 q 1049 323 1109 399 q 930 144 990 248 q 884 171 905 144 q 848 242 863 197 l 808 370 l 692 323 q 732 195 711 273 q 754 35 754 116 q 729 -93 754 -33 q 643 -190 705 -153 q 467 -227 581 -227 q 298 -191 359 -227 q 210 -95 236 -155 q 184 39 184 -35 q 197 166 184 100 q 231 294 211 232 l 123 338 q 82 190 97 266 q 67 43 67 115 q 106 -153 67 -64 q 233 -296 145 -242 q 467 -349 321 -349 m 1406 423 q 1508 384 1469 423 q 1546 285 1546 345 q 1522 212 1546 243 q 1451 162 1499 182 q 1331 133 1403 142 q 1162 123 1259 123 l 1053 123 q 1146 254 1101 198 q 1237 348 1192 311 q 1323 405 1281 386 q 1406 423 1366 423 z "},"ض":{"ha":1733,"x_min":67,"x_max":1666,"o":"m 1380 877 l 1282 779 l 1380 680 l 1478 779 l 1380 877 m 467 -349 q 697 -300 608 -349 q 829 -162 787 -250 q 873 39 872 -75 q 937 20 901 28 q 1021 5 973 11 q 1129 0 1068 0 l 1165 0 q 1384 18 1291 0 q 1541 72 1478 35 q 1634 163 1603 108 q 1666 292 1666 218 q 1632 422 1666 364 q 1538 513 1598 479 q 1401 547 1478 547 q 1284 522 1343 547 q 1167 448 1226 498 q 1049 323 1109 399 q 930 144 990 248 q 884 171 905 144 q 848 242 863 197 l 808 370 l 692 323 q 732 195 711 273 q 754 35 754 116 q 729 -93 754 -33 q 643 -190 705 -153 q 467 -227 581 -227 q 298 -191 359 -227 q 210 -95 236 -155 q 184 39 184 -35 q 197 166 184 100 q 231 294 211 232 l 123 338 q 82 190 97 266 q 67 43 67 115 q 106 -153 67 -64 q 233 -296 145 -242 q 467 -349 321 -349 m 1406 423 q 1508 384 1469 423 q 1546 285 1546 345 q 1522 212 1546 243 q 1451 162 1499 182 q 1331 133 1403 142 q 1162 123 1259 123 l 1053 123 q 1146 254 1101 198 q 1237 348 1192 311 q 1323 405 1281 386 q 1406 423 1366 423 z "},"ط":{"ha":1028,"x_min":67,"x_max":961,"o":"m 701 423 q 803 384 764 423 q 842 285 842 345 q 818 212 842 243 q 746 162 794 182 q 627 133 699 142 q 458 123 555 123 l 349 124 q 442 255 396 199 q 532 349 488 311 q 619 405 576 386 q 701 423 661 423 m 224 123 l 67 123 l 67 0 l 460 0 q 680 18 586 0 q 836 72 773 35 q 929 163 898 108 q 961 292 960 218 q 928 424 961 366 q 834 513 895 481 q 694 546 774 546 q 617 535 655 546 q 541 502 578 524 q 467 447 504 480 q 394 370 431 414 l 394 934 l 279 934 l 279 209 q 252 166 266 188 q 224 123 237 145 z "},"ظ":{"ha":1028,"x_min":67,"x_max":961,"o":"m 686 877 l 588 779 l 686 680 l 785 779 l 686 877 m 701 423 q 803 384 764 423 q 842 285 842 345 q 818 212 842 243 q 746 162 794 182 q 627 133 699 142 q 458 123 555 123 l 349 124 q 442 255 396 199 q 532 349 488 311 q 619 405 576 386 q 701 423 661 423 m 224 123 l 67 123 l 67 0 l 460 0 q 680 18 586 0 q 836 72 773 35 q 929 163 898 108 q 961 292 960 218 q 928 424 961 366 q 834 513 895 481 q 694 546 774 546 q 617 535 655 546 q 541 502 578 524 q 467 447 504 480 q 394 370 431 414 l 394 934 l 279 934 l 279 209 q 252 166 266 188 q 224 123 237 145 z "},"ع":{"ha":859,"x_min":67,"x_max":792,"o":"m 724 282 q 681 284 695 283 q 642 286 666 286 q 538 281 589 286 q 418 267 488 276 q 380 304 400 283 q 346 351 360 325 q 332 412 332 378 q 380 518 332 479 q 491 557 428 557 q 573 542 528 557 q 670 495 618 526 l 715 595 q 595 659 653 637 q 484 680 538 680 q 351 644 413 680 q 251 549 289 608 q 213 422 213 490 q 221 354 213 386 q 246 290 229 321 q 294 226 264 259 q 160 129 210 184 q 89 11 111 74 q 67 -119 67 -52 q 102 -279 67 -212 q 196 -387 136 -345 q 330 -449 255 -429 q 488 -469 406 -469 q 645 -452 566 -469 q 792 -404 724 -435 l 761 -291 q 628 -330 703 -315 q 479 -346 553 -346 q 333 -324 401 -346 q 223 -252 265 -302 q 182 -113 182 -201 q 209 3 182 -48 q 293 92 235 55 q 440 147 350 128 q 659 166 531 166 q 682 166 671 166 q 716 165 693 166 l 724 282 z "},"غ":{"ha":859,"x_min":67,"x_max":792,"o":"m 460 983 l 361 885 l 460 787 l 558 885 l 460 983 m 724 282 q 681 284 695 283 q 642 286 666 286 q 538 281 589 286 q 418 267 488 276 q 380 304 400 283 q 346 351 360 325 q 332 412 332 378 q 380 518 332 479 q 491 557 428 557 q 573 542 528 557 q 670 495 618 526 l 715 595 q 595 659 653 637 q 484 680 538 680 q 351 644 413 680 q 251 549 289 608 q 213 422 213 490 q 221 354 213 386 q 246 290 229 321 q 294 226 264 259 q 160 129 210 184 q 89 11 111 74 q 67 -119 67 -52 q 102 -279 67 -212 q 196 -387 136 -345 q 330 -449 255 -429 q 488 -469 406 -469 q 645 -452 566 -469 q 792 -404 724 -435 l 761 -291 q 628 -330 703 -315 q 479 -346 553 -346 q 333 -324 401 -346 q 223 -252 265 -302 q 182 -113 182 -201 q 209 3 182 -48 q 293 92 235 55 q 440 147 350 128 q 659 166 531 166 q 682 166 671 166 q 716 165 693 166 l 724 282 z "},"ؽ":{"ha":980,"x_min":67,"x_max":913,"o":"m 433 492 l 330 704 l 258 704 l 154 492 l 210 465 l 294 637 l 378 465 l 433 492 m 467 -342 q 658 -318 575 -342 q 798 -253 741 -294 q 884 -159 854 -212 q 913 -50 913 -107 q 898 42 913 2 q 848 106 884 83 q 751 129 813 129 l 637 129 q 585 143 597 129 q 572 190 572 158 q 593 295 572 248 q 656 370 615 342 q 755 397 697 397 q 813 391 785 397 q 869 370 841 385 l 907 473 q 829 509 868 500 q 755 519 790 519 q 629 493 685 519 q 534 421 574 467 q 474 316 495 376 q 453 190 453 257 q 463 113 453 147 q 493 56 472 79 q 549 19 514 32 q 634 7 584 7 l 744 7 q 791 -12 778 7 q 804 -53 804 -31 q 778 -115 804 -85 q 707 -169 753 -145 q 601 -207 662 -193 q 467 -220 539 -220 q 298 -184 359 -220 q 210 -88 236 -149 q 184 45 184 -28 q 197 173 184 107 q 231 301 211 239 l 123 345 q 82 197 97 273 q 67 50 67 121 q 106 -146 67 -57 q 233 -289 145 -235 q 467 -342 321 -342 z "},"ـ":{"ha":383,"x_min":-14,"x_max":397,"o":"m -14 123 l -14 0 l 397 0 l 397 123 l -14 123 z "}}}
